<?xml version="1.0" standalone="yes"?>
<svg xmlns="http://www.w3.org/2000/svg" width="1280" height="896">
<path style="fill:#dbdbdb; stroke:none;" d="M0 0L0 896C15.4878 886.442 30.089 875.157 45 864.72L125 808.72L385 626.72L980 210.28C1079.64 140.537 1178.44 69.4044 1279 1C1275.3 -0.552002 1270.98 0 1267 0L1246 0L1170 0L908 0L0 0z"/>
<path style="fill:#747474; stroke:none;" d="M1279 0C1263.92 12.8539 1246.24 23.355 1230 34.7199L1130 104.72L830 314.72L280 699.72C187.029 764.797 94.8316 831.172 1 895C4.69866 896.552 9.01719 896 13 896L34 896L110 896L372 896L1280 896L1280 260L1280 77L1280 24C1280 16.7845 1281.8 6.67755 1279 0z"/>
<path style="fill:#a5a5a5; stroke:none;" d="M1276 2L1277 3L1276 2z"/>
<path style="fill:#afafaf; stroke:none;" d="M1273 4L1274 5L1273 4z"/>
<path style="fill:#a5a5a5; stroke:none;" d="M1266 9L1267 10L1266 9z"/>
<path style="fill:#afafaf; stroke:none;" d="M1263 11L1264 12L1263 11z"/>
<path style="fill:#a5a5a5; stroke:none;" d="M1256 16L1257 17L1256 16z"/>
<path style="fill:#afafaf; stroke:none;" d="M1253 18L1254 19L1253 18z"/>
<path style="fill:#a5a5a5; stroke:none;" d="M1246 23L1247 24L1246 23z"/>
<path style="fill:#afafaf; stroke:none;" d="M1243 25L1244 26L1243 25z"/>
<path style="fill:#a5a5a5; stroke:none;" d="M1236 30L1237 31L1236 30z"/>
<path style="fill:#afafaf; stroke:none;" d="M1233 32L1234 33L1233 32z"/>
<path style="fill:#a5a5a5; stroke:none;" d="M1226 37L1227 38L1226 37z"/>
<path style="fill:#afafaf; stroke:none;" d="M1223 39L1224 40L1223 39z"/>
<path style="fill:#a5a5a5; stroke:none;" d="M1216 44L1217 45L1216 44z"/>
<path style="fill:#afafaf; stroke:none;" d="M1213 46L1214 47L1213 46z"/>
<path style="fill:#a5a5a5; stroke:none;" d="M1206 51L1207 52L1206 51z"/>
<path style="fill:#afafaf; stroke:none;" d="M1203 53L1204 54L1203 53z"/>
<path style="fill:#a5a5a5; stroke:none;" d="M1196 58L1197 59L1196 58z"/>
<path style="fill:#afafaf; stroke:none;" d="M1193 60L1194 61L1193 60z"/>
<path style="fill:#c0c0c0; stroke:none;" d="M191.667 64.3333C191.222 64.7777 192.278 64.7223 192.333 64.6667C192.778 64.222 191.722 64.2777 191.667 64.3333z"/>
<path style="fill:#868686; stroke:none;" d="M191.667 65.3333C191.222 65.7777 192.278 65.7223 192.333 65.6667C192.778 65.222 191.722 65.2777 191.667 65.3333z"/>
<path style="fill:#a5a5a5; stroke:none;" d="M1186 65L1187 66L1186 65z"/>
<path style="fill:#4a4a4a; stroke:none;" d="M191.667 66.3333C191.222 66.7777 192.278 66.7223 192.333 66.6667C192.778 66.222 191.722 66.2778 191.667 66.3333z"/>
<path style="fill:#2b2b2b; stroke:none;" d="M191 67C184.978 88.2195 177.081 108.884 170.72 130C169.105 135.362 167.472 140.697 165.666 146C164.825 148.469 164.084 151.492 161.722 152.972C159.287 154.498 155.735 153.999 153 154L136 154L71 154C76.2057 159.861 83.6393 164.031 90 168.579L125 193.579L138.998 203.579C140.856 204.922 143.619 206.382 144.454 208.669C145.277 210.922 143.695 213.893 143.001 216.001C141.251 221.31 139.768 226.695 138 232C134.121 243.639 130.546 255.362 126.667 267C123.854 275.439 120.302 284.183 119 293C137.253 282.828 154 268.574 171 256.421L185 246.422C187.003 245.008 189.398 242.869 192 242.869C194.602 242.869 196.997 245.008 199 246.422L213 256.421C230 268.574 246.747 282.828 265 293C263.698 284.183 260.147 275.439 257.333 267C253.454 255.362 249.879 243.639 246 232C244.232 226.695 242.744 221.311 240.999 216C240.293 213.85 238.707 210.813 239.546 208.518C240.363 206.279 243.183 204.878 245.002 203.576L259 193.579L313 155C306.806 152.401 297.686 154 291 154L243 154C237.275 154 228.461 155.653 223.133 153.397C217.194 150.881 215.226 136.635 213.576 131C207.281 109.502 199.117 88.5541 193 67L191 67z"/>
<path style="fill:#afafaf; stroke:none;" d="M1183 67L1184 68L1183 67z"/>
<path style="fill:#8b8b8b; stroke:none;" d="M190 68L191 69L190 68z"/>
<path style="fill:#8c8c8c; stroke:none;" d="M193 68L194 69L193 68z"/>
<path style="fill:#919191; stroke:none;" d="M189 71L190 72L189 71z"/>
<path style="fill:#929292; stroke:none;" d="M194 71L195 72L194 71z"/>
<path style="fill:#565656; stroke:none;" d="M189 72L190 73L189 72z"/>
<path style="fill:#585858; stroke:none;" d="M194 72L195 73L194 72z"/>
<path style="fill:#a5a5a5; stroke:none;" d="M1176 72L1177 73L1176 72z"/>
<path style="fill:#979797; stroke:none;" d="M188 74L189 75L188 74z"/>
<path style="fill:#989898; stroke:none;" d="M195 74L196 75L195 74z"/>
<path style="fill:#afafaf; stroke:none;" d="M1173 74L1174 75L1173 74z"/>
<path style="fill:#5c5c5c; stroke:none;" d="M188 75L189 76L188 75z"/>
<path style="fill:#5d5d5d; stroke:none;" d="M195 75L196 76L195 75z"/>
<path style="fill:#9d9d9d; stroke:none;" d="M187 77L188 78L187 77z"/>
<path style="fill:#9e9e9e; stroke:none;" d="M196 77L197 78L196 77z"/>
<path style="fill:#626262; stroke:none;" d="M187 78L188 79L187 78z"/>
<path style="fill:#636363; stroke:none;" d="M196 78L197 79L196 78z"/>
<path style="fill:#a5a5a5; stroke:none;" d="M1166 79L1167 80L1166 79z"/>
<path style="fill:#a3a3a3; stroke:none;" d="M186 80L187 81L186 80z"/>
<path style="fill:#a4a4a4; stroke:none;" d="M197 80L198 81L197 80z"/>
<path style="fill:#686868; stroke:none;" d="M186 81L187 82L186 81z"/>
<path style="fill:#696969; stroke:none;" d="M197 81L198 82L197 81z"/>
<path style="fill:#afafaf; stroke:none;" d="M1163 81L1164 82L1163 81z"/>
<path style="fill:#a9a9a9; stroke:none;" d="M185 83L186 84L185 83z"/>
<path style="fill:#aaaaaa; stroke:none;" d="M198 83L199 84L198 83z"/>
<path style="fill:#6f6f6f; stroke:none;" d="M185 84L186 85L185 84M198 84L199 85L198 84z"/>
<path style="fill:#afafaf; stroke:none;" d="M184 86L185 87L184 86z"/>
<path style="fill:#b0b0b0; stroke:none;" d="M199 86L200 87L199 86z"/>
<path style="fill:#a5a5a5; stroke:none;" d="M1156 86L1157 87L1156 86z"/>
<path style="fill:#757575; stroke:none;" d="M184 87L185 88L184 87z"/>
<path style="fill:#767676; stroke:none;" d="M199 87L200 88L199 87z"/>
<path style="fill:#afafaf; stroke:none;" d="M1153 88L1154 89L1153 88z"/>
<path style="fill:#7b7b7b; stroke:none;" d="M183 90L184 91L183 90z"/>
<path style="fill:#7c7c7c; stroke:none;" d="M200 90L201 91L200 90z"/>
<path style="fill:#818181; stroke:none;" d="M182 93L183 94L182 93M201 93L202 94L201 93z"/>
<path style="fill:#a5a5a5; stroke:none;" d="M1146 93L1147 94L1146 93z"/>
<path style="fill:#afafaf; stroke:none;" d="M1143 95L1144 96L1143 95z"/>
<path style="fill:#868686; stroke:none;" d="M181 96L182 97L181 96z"/>
<path style="fill:#878787; stroke:none;" d="M202 96L203 97L202 96z"/>
<path style="fill:#8d8d8d; stroke:none;" d="M180 99L181 100L180 99z"/>
<path style="fill:#8e8e8e; stroke:none;" d="M203 99L204 100L203 99z"/>
<path style="fill:#a5a5a5; stroke:none;" d="M1136 100L1137 101L1136 100z"/>
<path style="fill:#939393; stroke:none;" d="M179 102L180 103L179 102z"/>
<path style="fill:#949494; stroke:none;" d="M204 102L205 103L204 102z"/>
<path style="fill:#afafaf; stroke:none;" d="M1133 102L1134 103L1133 102z"/>
<path style="fill:#595959; stroke:none;" d="M179 103L180 104L179 103M204 103L205 104L204 103z"/>
<path style="fill:#999999; stroke:none;" d="M178 105L179 106L178 105z"/>
<path style="fill:#9a9a9a; stroke:none;" d="M205 105L206 106L205 105z"/>
<path style="fill:#5e5e5e; stroke:none;" d="M178 106L179 107L178 106z"/>
<path style="fill:#5f5f5f; stroke:none;" d="M205 106L206 107L205 106z"/>
<path style="fill:#a5a5a5; stroke:none;" d="M1126 107L1127 108L1126 107z"/>
<path style="fill:#9f9f9f; stroke:none;" d="M177 108L178 109L177 108z"/>
<path style="fill:#a0a0a0; stroke:none;" d="M206 108L207 109L206 108z"/>
<path style="fill:#656565; stroke:none;" d="M177 109L178 110L177 109z"/>
<path style="fill:#666666; stroke:none;" d="M206 109L207 110L206 109z"/>
<path style="fill:#afafaf; stroke:none;" d="M1123 109L1124 110L1123 109z"/>
<path style="fill:#a5a5a5; stroke:none;" d="M176 111L177 112L176 111M207 111L208 112L207 111z"/>
<path style="fill:#6b6b6b; stroke:none;" d="M176 112L177 113L176 112z"/>
<path style="fill:#6c6c6c; stroke:none;" d="M207 112L208 113L207 112z"/>
<path style="fill:#ababab; stroke:none;" d="M175 114L176 115L175 114M208 114L209 115L208 114z"/>
<path style="fill:#a5a5a5; stroke:none;" d="M1116 114L1117 115L1116 114z"/>
<path style="fill:#717171; stroke:none;" d="M175 115L176 116L175 115z"/>
<path style="fill:#727272; stroke:none;" d="M208 115L209 116L208 115z"/>
<path style="fill:#afafaf; stroke:none;" d="M1113 116L1114 117L1113 116z"/>
<path style="fill:#787878; stroke:none;" d="M174 118L175 119L174 118M209 118L210 119L209 118z"/>
<path style="fill:#7e7e7e; stroke:none;" d="M173 121L174 122L173 121M210 121L211 122L210 121z"/>
<path style="fill:#a5a5a5; stroke:none;" d="M1106 121L1107 122L1106 121z"/>
<path style="fill:#afafaf; stroke:none;" d="M1103 123L1104 124L1103 123z"/>
<path style="fill:#838383; stroke:none;" d="M172 124L173 125L172 124z"/>
<path style="fill:#848484; stroke:none;" d="M211 124L212 125L211 124z"/>
<path style="fill:#898989; stroke:none;" d="M171 127L172 128L171 127z"/>
<path style="fill:#8a8a8a; stroke:none;" d="M212 127L213 128L212 127z"/>
<path style="fill:#a5a5a5; stroke:none;" d="M1096 128L1097 129L1096 128z"/>
<path style="fill:#8f8f8f; stroke:none;" d="M170 130L171 131L170 130z"/>
<path style="fill:#909090; stroke:none;" d="M213 130L214 131L213 130z"/>
<path style="fill:#afafaf; stroke:none;" d="M1093 130L1094 131L1093 130z"/>
<path style="fill:#959595; stroke:none;" d="M169 133L170 134L169 133z"/>
<path style="fill:#969696; stroke:none;" d="M214 133L215 134L214 133z"/>
<path style="fill:#5a5a5a; stroke:none;" d="M169 134L170 135L169 134z"/>
<path style="fill:#5b5b5b; stroke:none;" d="M214 134L215 135L214 134z"/>
<path style="fill:#a5a5a5; stroke:none;" d="M1086 135L1087 136L1086 135z"/>
<path style="fill:#9b9b9b; stroke:none;" d="M168 136L169 137L168 136z"/>
<path style="fill:#9c9c9c; stroke:none;" d="M215 136L216 137L215 136z"/>
<path style="fill:#606060; stroke:none;" d="M168 137L169 138L168 137z"/>
<path style="fill:#616161; stroke:none;" d="M215 137L216 138L215 137z"/>
<path style="fill:#afafaf; stroke:none;" d="M1083 137L1084 138L1083 137z"/>
<path style="fill:#a1a1a1; stroke:none;" d="M167 139L168 140L167 139M216 139L217 140L216 139z"/>
<path style="fill:#676767; stroke:none;" d="M167 140L168 141L167 140z"/>
<path style="fill:#686868; stroke:none;" d="M216 140L217 141L216 140z"/>
<path style="fill:#a7a7a7; stroke:none;" d="M166 142L167 143L166 142z"/>
<path style="fill:#a8a8a8; stroke:none;" d="M217 142L218 143L217 142z"/>
<path style="fill:#a5a5a5; stroke:none;" d="M1076 142L1077 143L1076 142z"/>
<path style="fill:#6d6d6d; stroke:none;" d="M166 143L167 144L166 143z"/>
<path style="fill:#6e6e6e; stroke:none;" d="M217 143L218 144L217 143z"/>
<path style="fill:#afafaf; stroke:none;" d="M1073 144L1074 145L1073 144z"/>
<path style="fill:#adadad; stroke:none;" d="M165 145L166 146L165 145z"/>
<path style="fill:#aeaeae; stroke:none;" d="M218 145L219 146L218 145z"/>
<path style="fill:#737373; stroke:none;" d="M165 146L166 147L165 146z"/>
<path style="fill:#747474; stroke:none;" d="M218 146L219 147L218 146z"/>
<path style="fill:#797979; stroke:none;" d="M164 149L165 150L164 149z"/>
<path style="fill:#7a7a7a; stroke:none;" d="M219 149L220 150L219 149z"/>
<path style="fill:#a5a5a5; stroke:none;" d="M1066 149L1067 150L1066 149z"/>
<path style="fill:#afafaf; stroke:none;" d="M1063 151L1064 152L1063 151z"/>
<path style="fill:#7f7f7f; stroke:none;" d="M163 152L164 153L163 152z"/>
<path style="fill:#808080; stroke:none;" d="M220 152L221 153L220 152z"/>
<path style="fill:#959595; stroke:none;" d="M69 153C71.8336 154.638 74.7403 154.036 78 154.004C83.9988 153.944 90.0009 154 96 154L163 154C155.121 150.694 142.534 153 134 153L69 153M221 153C228.879 156.306 241.466 154 250 154L315 154C307.121 150.694 294.534 153 286 153L221 153z"/>
<path style="fill:#6a6a6a; stroke:none;" d="M313 154L314 155L313 154z"/>
<path style="fill:#ababab; stroke:none;" d="M71 155L72 156L71 155z"/>
<path style="fill:#a5a5a5; stroke:none;" d="M312 155L313 156L312 155z"/>
<path style="fill:#5d5d5d; stroke:none;" d="M73 156L74 157L73 156z"/>
<path style="fill:#595959; stroke:none;" d="M310 156L311 157L310 156z"/>
<path style="fill:#a5a5a5; stroke:none;" d="M1056 156L1057 157L1056 156z"/>
<path style="fill:#959595; stroke:none;" d="M74 157L75 158L74 157z"/>
<path style="fill:#898989; stroke:none;" d="M309 157L310 158L309 157z"/>
<path style="fill:#afafaf; stroke:none;" d="M1053 158L1054 159L1053 158z"/>
<path style="fill:#777777; stroke:none;" d="M77 159L78 160L77 159z"/>
<path style="fill:#6a6a6a; stroke:none;" d="M306 159L307 160L306 159z"/>
<path style="fill:#ababab; stroke:none;" d="M78 160L79 161L78 160z"/>
<path style="fill:#a5a5a5; stroke:none;" d="M305 160L306 161L305 160z"/>
<path style="fill:#5d5d5d; stroke:none;" d="M80 161L81 162L80 161z"/>
<path style="fill:#595959; stroke:none;" d="M303 161L304 162L303 161z"/>
<path style="fill:#959595; stroke:none;" d="M81 162L82 163L81 162z"/>
<path style="fill:#898989; stroke:none;" d="M302 162L303 163L302 162z"/>
<path style="fill:#a5a5a5; stroke:none;" d="M1046 163L1047 164L1046 163z"/>
<path style="fill:#777777; stroke:none;" d="M84 164L85 165L84 164z"/>
<path style="fill:#6a6a6a; stroke:none;" d="M299 164L300 165L299 164z"/>
<path style="fill:#ababab; stroke:none;" d="M85 165L86 166L85 165z"/>
<path style="fill:#a5a5a5; stroke:none;" d="M298 165L299 166L298 165z"/>
<path style="fill:#afafaf; stroke:none;" d="M1043 165L1044 166L1043 165z"/>
<path style="fill:#5d5d5d; stroke:none;" d="M87 166L88 167L87 166z"/>
<path style="fill:#595959; stroke:none;" d="M296 166L297 167L296 166z"/>
<path style="fill:#959595; stroke:none;" d="M88 167L89 168L88 167z"/>
<path style="fill:#898989; stroke:none;" d="M295 167L296 168L295 167z"/>
<path style="fill:#777777; stroke:none;" d="M91 169L92 170L91 169z"/>
<path style="fill:#6a6a6a; stroke:none;" d="M292 169L293 170L292 169z"/>
<path style="fill:#ababab; stroke:none;" d="M92 170L93 171L92 170z"/>
<path style="fill:#a5a5a5; stroke:none;" d="M291 170L292 171L291 170M1036 170L1037 171L1036 170z"/>
<path style="fill:#5d5d5d; stroke:none;" d="M94 171L95 172L94 171z"/>
<path style="fill:#595959; stroke:none;" d="M289 171L290 172L289 171z"/>
<path style="fill:#959595; stroke:none;" d="M95 172L96 173L95 172z"/>
<path style="fill:#898989; stroke:none;" d="M288 172L289 173L288 172z"/>
<path style="fill:#afafaf; stroke:none;" d="M1033 172L1034 173L1033 172z"/>
<path style="fill:#777777; stroke:none;" d="M98 174L99 175L98 174z"/>
<path style="fill:#6a6a6a; stroke:none;" d="M285 174L286 175L285 174z"/>
<path style="fill:#ababab; stroke:none;" d="M99 175L100 176L99 175z"/>
<path style="fill:#a5a5a5; stroke:none;" d="M284 175L285 176L284 175z"/>
<path style="fill:#5d5d5d; stroke:none;" d="M101 176L102 177L101 176z"/>
<path style="fill:#595959; stroke:none;" d="M282 176L283 177L282 176z"/>
<path style="fill:#959595; stroke:none;" d="M102 177L103 178L102 177z"/>
<path style="fill:#898989; stroke:none;" d="M281 177L282 178L281 177z"/>
<path style="fill:#a5a5a5; stroke:none;" d="M1026 177L1027 178L1026 177z"/>
<path style="fill:#777777; stroke:none;" d="M105 179L106 180L105 179z"/>
<path style="fill:#6a6a6a; stroke:none;" d="M278 179L279 180L278 179z"/>
<path style="fill:#afafaf; stroke:none;" d="M1023 179L1024 180L1023 179z"/>
<path style="fill:#ababab; stroke:none;" d="M106 180L107 181L106 180z"/>
<path style="fill:#a5a5a5; stroke:none;" d="M277 180L278 181L277 180z"/>
<path style="fill:#5d5d5d; stroke:none;" d="M108 181L109 182L108 181z"/>
<path style="fill:#595959; stroke:none;" d="M275 181L276 182L275 181z"/>
<path style="fill:#959595; stroke:none;" d="M109 182L110 183L109 182z"/>
<path style="fill:#898989; stroke:none;" d="M274 182L275 183L274 182z"/>
<path style="fill:#777777; stroke:none;" d="M112 184L113 185L112 184z"/>
<path style="fill:#6a6a6a; stroke:none;" d="M271 184L272 185L271 184z"/>
<path style="fill:#a5a5a5; stroke:none;" d="M1016 184L1017 185L1016 184z"/>
<path style="fill:#ababab; stroke:none;" d="M113 185L114 186L113 185z"/>
<path style="fill:#a5a5a5; stroke:none;" d="M270 185L271 186L270 185z"/>
<path style="fill:#5d5d5d; stroke:none;" d="M115 186L116 187L115 186z"/>
<path style="fill:#595959; stroke:none;" d="M268 186L269 187L268 186z"/>
<path style="fill:#afafaf; stroke:none;" d="M1013 186L1014 187L1013 186z"/>
<path style="fill:#959595; stroke:none;" d="M116 187L117 188L116 187z"/>
<path style="fill:#898989; stroke:none;" d="M267 187L268 188L267 187z"/>
<path style="fill:#777777; stroke:none;" d="M119 189L120 190L119 189z"/>
<path style="fill:#6a6a6a; stroke:none;" d="M264 189L265 190L264 189z"/>
<path style="fill:#ababab; stroke:none;" d="M120 190L121 191L120 190z"/>
<path style="fill:#a5a5a5; stroke:none;" d="M263 190L264 191L263 190z"/>
<path style="fill:#5d5d5d; stroke:none;" d="M122 191L123 192L122 191z"/>
<path style="fill:#595959; stroke:none;" d="M261 191L262 192L261 191z"/>
<path style="fill:#a5a5a5; stroke:none;" d="M1006 191L1007 192L1006 191z"/>
<path style="fill:#959595; stroke:none;" d="M123 192L124 193L123 192z"/>
<path style="fill:#898989; stroke:none;" d="M260 192L261 193L260 192z"/>
<path style="fill:#afafaf; stroke:none;" d="M1003 193L1004 194L1003 193z"/>
<path style="fill:#777777; stroke:none;" d="M126 194L127 195L126 194z"/>
<path style="fill:#6a6a6a; stroke:none;" d="M257 194L258 195L257 194z"/>
<path style="fill:#ababab; stroke:none;" d="M127 195L128 196L127 195z"/>
<path style="fill:#a5a5a5; stroke:none;" d="M256 195L257 196L256 195z"/>
<path style="fill:#5d5d5d; stroke:none;" d="M129 196L130 197L129 196z"/>
<path style="fill:#595959; stroke:none;" d="M254 196L255 197L254 196z"/>
<path style="fill:#959595; stroke:none;" d="M130 197L131 198L130 197z"/>
<path style="fill:#898989; stroke:none;" d="M253 197L254 198L253 197z"/>
<path style="fill:#a5a5a5; stroke:none;" d="M996 198L997 199L996 198z"/>
<path style="fill:#777777; stroke:none;" d="M133 199L134 200L133 199z"/>
<path style="fill:#6a6a6a; stroke:none;" d="M250 199L251 200L250 199z"/>
<path style="fill:#ababab; stroke:none;" d="M134 200L135 201L134 200z"/>
<path style="fill:#a5a5a5; stroke:none;" d="M249 200L250 201L249 200z"/>
<path style="fill:#afafaf; stroke:none;" d="M993 200L994 201L993 200z"/>
<path style="fill:#5d5d5d; stroke:none;" d="M136 201L137 202L136 201z"/>
<path style="fill:#595959; stroke:none;" d="M247 201L248 202L247 201z"/>
<path style="fill:#959595; stroke:none;" d="M137 202L138 203L137 202z"/>
<path style="fill:#898989; stroke:none;" d="M246 202L247 203L246 202z"/>
<path style="fill:#777777; stroke:none;" d="M140 204L141 205L140 204z"/>
<path style="fill:#6a6a6a; stroke:none;" d="M243 204L244 205L243 204z"/>
<path style="fill:#ababab; stroke:none;" d="M141 205L142 206L141 205z"/>
<path style="fill:#a5a5a5; stroke:none;" d="M242 205L243 206L242 205M986 205L987 206L986 205z"/>
<path style="fill:#5d5d5d; stroke:none;" d="M143 206L144 207L143 206z"/>
<path style="fill:#595959; stroke:none;" d="M240 206L241 207L240 206z"/>
<path style="fill:#959595; stroke:none;" d="M144 207L145 208L144 207z"/>
<path style="fill:#898989; stroke:none;" d="M239 207L240 208L239 207z"/>
<path style="fill:#afafaf; stroke:none;" d="M983 207L984 208L983 207z"/>
<path style="fill:#727272; stroke:none;" d="M145 208L146 209L145 208M238 208L239 209L238 208z"/>
<path style="fill:#7e7e7e; stroke:none;" d="M144 211L145 212L144 211M239 211L240 212L239 211z"/>
<path style="fill:#a5a5a5; stroke:none;" d="M976 212L977 213L976 212z"/>
<path style="fill:#838383; stroke:none;" d="M143 214L144 215L143 214z"/>
<path style="fill:#848484; stroke:none;" d="M240 214L241 215L240 214z"/>
<path style="fill:#afafaf; stroke:none;" d="M973 214L974 215L973 214z"/>
<path style="fill:#898989; stroke:none;" d="M142 217L143 218L142 217z"/>
<path style="fill:#8a8a8a; stroke:none;" d="M241 217L242 218L241 217z"/>
<path style="fill:#a5a5a5; stroke:none;" d="M966 219L967 220L966 219z"/>
<path style="fill:#8f8f8f; stroke:none;" d="M141 220L142 221L141 220z"/>
<path style="fill:#909090; stroke:none;" d="M242 220L243 221L242 220z"/>
<path style="fill:#afafaf; stroke:none;" d="M963 221L964 222L963 221z"/>
<path style="fill:#959595; stroke:none;" d="M140 223L141 224L140 223z"/>
<path style="fill:#969696; stroke:none;" d="M243 223L244 224L243 223z"/>
<path style="fill:#5b5b5b; stroke:none;" d="M140 224L141 225L140 224z"/>
<path style="fill:#5c5c5c; stroke:none;" d="M243 224L244 225L243 224z"/>
<path style="fill:#9b9b9b; stroke:none;" d="M139 226L140 227L139 226z"/>
<path style="fill:#9c9c9c; stroke:none;" d="M244 226L245 227L244 226z"/>
<path style="fill:#a5a5a5; stroke:none;" d="M956 226L957 227L956 226z"/>
<path style="fill:#606060; stroke:none;" d="M139 227L140 228L139 227z"/>
<path style="fill:#616161; stroke:none;" d="M244 227L245 228L244 227z"/>
<path style="fill:#afafaf; stroke:none;" d="M953 228L954 229L953 228z"/>
<path style="fill:#a1a1a1; stroke:none;" d="M138 229L139 230L138 229z"/>
<path style="fill:#a2a2a2; stroke:none;" d="M245 229L246 230L245 229z"/>
<path style="fill:#686868; stroke:none;" d="M138 230L139 231L138 230M245 230L246 231L245 230z"/>
<path style="fill:#a7a7a7; stroke:none;" d="M137 232L138 233L137 232z"/>
<path style="fill:#a8a8a8; stroke:none;" d="M246 232L247 233L246 232z"/>
<path style="fill:#6d6d6d; stroke:none;" d="M137 233L138 234L137 233z"/>
<path style="fill:#6e6e6e; stroke:none;" d="M246 233L247 234L246 233z"/>
<path style="fill:#a5a5a5; stroke:none;" d="M946 233L947 234L946 233z"/>
<path style="fill:#adadad; stroke:none;" d="M136 235L137 236L136 235z"/>
<path style="fill:#aeaeae; stroke:none;" d="M247 235L248 236L247 235z"/>
<path style="fill:#afafaf; stroke:none;" d="M943 235L944 236L943 235z"/>
<path style="fill:#737373; stroke:none;" d="M136 236L137 237L136 236z"/>
<path style="fill:#747474; stroke:none;" d="M247 236L248 237L247 236z"/>
<path style="fill:#797979; stroke:none;" d="M135 239L136 240L135 239z"/>
<path style="fill:#7a7a7a; stroke:none;" d="M248 239L249 240L248 239z"/>
<path style="fill:#a5a5a5; stroke:none;" d="M936 240L937 241L936 240z"/>
<path style="fill:#595959; stroke:none;" d="M191.667 241.333C191.222 241.778 192.278 241.722 192.333 241.667C192.778 241.222 191.722 241.278 191.667 241.333z"/>
<path style="fill:#7f7f7f; stroke:none;" d="M134 242L135 243L134 242z"/>
<path style="fill:#898989; stroke:none;" d="M190 242L191 243L190 242z"/>
<path style="fill:#959595; stroke:none;" d="M193 242L194 243L193 242z"/>
<path style="fill:#808080; stroke:none;" d="M249 242L250 243L249 242z"/>
<path style="fill:#afafaf; stroke:none;" d="M933 242L934 243L933 242z"/>
<path style="fill:#6a6a6a; stroke:none;" d="M187 244L188 245L187 244z"/>
<path style="fill:#777777; stroke:none;" d="M196 244L197 245L196 244z"/>
<path style="fill:#858585; stroke:none;" d="M133 245L134 246L133 245z"/>
<path style="fill:#a5a5a5; stroke:none;" d="M186 245L187 246L186 245z"/>
<path style="fill:#ababab; stroke:none;" d="M197 245L198 246L197 245z"/>
<path style="fill:#868686; stroke:none;" d="M250 245L251 246L250 245z"/>
<path style="fill:#595959; stroke:none;" d="M184 246L185 247L184 246z"/>
<path style="fill:#5d5d5d; stroke:none;" d="M199 246L200 247L199 246z"/>
<path style="fill:#898989; stroke:none;" d="M183 247L184 248L183 247z"/>
<path style="fill:#959595; stroke:none;" d="M200 247L201 248L200 247z"/>
<path style="fill:#a5a5a5; stroke:none;" d="M926 247L927 248L926 247z"/>
<path style="fill:#8b8b8b; stroke:none;" d="M132 248L133 249L132 248z"/>
<path style="fill:#8c8c8c; stroke:none;" d="M251 248L252 249L251 248z"/>
<path style="fill:#6a6a6a; stroke:none;" d="M180 249L181 250L180 249z"/>
<path style="fill:#777777; stroke:none;" d="M203 249L204 250L203 249z"/>
<path style="fill:#afafaf; stroke:none;" d="M923 249L924 250L923 249z"/>
<path style="fill:#a5a5a5; stroke:none;" d="M179 250L180 251L179 250z"/>
<path style="fill:#ababab; stroke:none;" d="M204 250L205 251L204 250z"/>
<path style="fill:#919191; stroke:none;" d="M131 251L132 252L131 251z"/>
<path style="fill:#595959; stroke:none;" d="M177 251L178 252L177 251z"/>
<path style="fill:#5d5d5d; stroke:none;" d="M206 251L207 252L206 251z"/>
<path style="fill:#929292; stroke:none;" d="M252 251L253 252L252 251z"/>
<path style="fill:#565656; stroke:none;" d="M131 252L132 253L131 252z"/>
<path style="fill:#898989; stroke:none;" d="M176 252L177 253L176 252z"/>
<path style="fill:#959595; stroke:none;" d="M207 252L208 253L207 252z"/>
<path style="fill:#585858; stroke:none;" d="M252 252L253 253L252 252z"/>
<path style="fill:#979797; stroke:none;" d="M130 254L131 255L130 254z"/>
<path style="fill:#6a6a6a; stroke:none;" d="M173 254L174 255L173 254z"/>
<path style="fill:#777777; stroke:none;" d="M210 254L211 255L210 254z"/>
<path style="fill:#989898; stroke:none;" d="M253 254L254 255L253 254z"/>
<path style="fill:#a5a5a5; stroke:none;" d="M916 254L917 255L916 254z"/>
<path style="fill:#5c5c5c; stroke:none;" d="M130 255L131 256L130 255z"/>
<path style="fill:#a5a5a5; stroke:none;" d="M172 255L173 256L172 255z"/>
<path style="fill:#ababab; stroke:none;" d="M211 255L212 256L211 255z"/>
<path style="fill:#5d5d5d; stroke:none;" d="M253 255L254 256L253 255z"/>
<path style="fill:#595959; stroke:none;" d="M170 256L171 257L170 256z"/>
<path style="fill:#5d5d5d; stroke:none;" d="M213 256L214 257L213 256z"/>
<path style="fill:#afafaf; stroke:none;" d="M913 256L914 257L913 256z"/>
<path style="fill:#9d9d9d; stroke:none;" d="M129 257L130 258L129 257z"/>
<path style="fill:#898989; stroke:none;" d="M169 257L170 258L169 257z"/>
<path style="fill:#959595; stroke:none;" d="M214 257L215 258L214 257z"/>
<path style="fill:#9e9e9e; stroke:none;" d="M254 257L255 258L254 257z"/>
<path style="fill:#626262; stroke:none;" d="M129 258L130 259L129 258z"/>
<path style="fill:#636363; stroke:none;" d="M254 258L255 259L254 258z"/>
<path style="fill:#6a6a6a; stroke:none;" d="M166 259L167 260L166 259z"/>
<path style="fill:#777777; stroke:none;" d="M217 259L218 260L217 259z"/>
<path style="fill:#a3a3a3; stroke:none;" d="M128 260L129 261L128 260z"/>
<path style="fill:#a5a5a5; stroke:none;" d="M165 260L166 261L165 260z"/>
<path style="fill:#ababab; stroke:none;" d="M218 260L219 261L218 260z"/>
<path style="fill:#a4a4a4; stroke:none;" d="M255 260L256 261L255 260z"/>
<path style="fill:#686868; stroke:none;" d="M128 261L129 262L128 261z"/>
<path style="fill:#595959; stroke:none;" d="M163 261L164 262L163 261z"/>
<path style="fill:#5d5d5d; stroke:none;" d="M220 261L221 262L220 261z"/>
<path style="fill:#696969; stroke:none;" d="M255 261L256 262L255 261z"/>
<path style="fill:#a5a5a5; stroke:none;" d="M906 261L907 262L906 261z"/>
<path style="fill:#898989; stroke:none;" d="M162 262L163 263L162 262z"/>
<path style="fill:#959595; stroke:none;" d="M221 262L222 263L221 262z"/>
<path style="fill:#a9a9a9; stroke:none;" d="M127 263L128 264L127 263z"/>
<path style="fill:#aaaaaa; stroke:none;" d="M256 263L257 264L256 263z"/>
<path style="fill:#afafaf; stroke:none;" d="M903 263L904 264L903 263z"/>
<path style="fill:#6f6f6f; stroke:none;" d="M127 264L128 265L127 264z"/>
<path style="fill:#6a6a6a; stroke:none;" d="M159 264L160 265L159 264z"/>
<path style="fill:#777777; stroke:none;" d="M224 264L225 265L224 264z"/>
<path style="fill:#6f6f6f; stroke:none;" d="M256 264L257 265L256 264z"/>
<path style="fill:#a5a5a5; stroke:none;" d="M158 265L159 266L158 265z"/>
<path style="fill:#ababab; stroke:none;" d="M225 265L226 266L225 265z"/>
<path style="fill:#b0b0b0; stroke:none;" d="M126 266L127 267L126 266z"/>
<path style="fill:#595959; stroke:none;" d="M156 266L157 267L156 266z"/>
<path style="fill:#5d5d5d; stroke:none;" d="M227 266L228 267L227 266z"/>
<path style="fill:#b0b0b0; stroke:none;" d="M257 266L258 267L257 266z"/>
<path style="fill:#767676; stroke:none;" d="M126 267L127 268L126 267z"/>
<path style="fill:#898989; stroke:none;" d="M155 267L156 268L155 267z"/>
<path style="fill:#959595; stroke:none;" d="M228 267L229 268L228 267z"/>
<path style="fill:#777777; stroke:none;" d="M257 267L258 268L257 267z"/>
<path style="fill:#a5a5a5; stroke:none;" d="M896 268L897 269L896 268z"/>
<path style="fill:#6a6a6a; stroke:none;" d="M152 269L153 270L152 269z"/>
<path style="fill:#777777; stroke:none;" d="M231 269L232 270L231 269z"/>
<path style="fill:#7b7b7b; stroke:none;" d="M125 270L126 271L125 270z"/>
<path style="fill:#a5a5a5; stroke:none;" d="M151 270L152 271L151 270z"/>
<path style="fill:#ababab; stroke:none;" d="M232 270L233 271L232 270z"/>
<path style="fill:#7c7c7c; stroke:none;" d="M258 270L259 271L258 270z"/>
<path style="fill:#afafaf; stroke:none;" d="M893 270L894 271L893 270z"/>
<path style="fill:#595959; stroke:none;" d="M149 271L150 272L149 271z"/>
<path style="fill:#5d5d5d; stroke:none;" d="M234 271L235 272L234 271z"/>
<path style="fill:#898989; stroke:none;" d="M148 272L149 273L148 272z"/>
<path style="fill:#959595; stroke:none;" d="M235 272L236 273L235 272z"/>
<path style="fill:#818181; stroke:none;" d="M124 273L125 274L124 273z"/>
<path style="fill:#828282; stroke:none;" d="M259 273L260 274L259 273z"/>
<path style="fill:#6a6a6a; stroke:none;" d="M145 274L146 275L145 274z"/>
<path style="fill:#777777; stroke:none;" d="M238 274L239 275L238 274z"/>
<path style="fill:#a5a5a5; stroke:none;" d="M144 275L145 276L144 275z"/>
<path style="fill:#ababab; stroke:none;" d="M239 275L240 276L239 275z"/>
<path style="fill:#a5a5a5; stroke:none;" d="M886 275L887 276L886 275z"/>
<path style="fill:#878787; stroke:none;" d="M123 276L124 277L123 276z"/>
<path style="fill:#595959; stroke:none;" d="M142 276L143 277L142 276z"/>
<path style="fill:#5d5d5d; stroke:none;" d="M241 276L242 277L241 276z"/>
<path style="fill:#888888; stroke:none;" d="M260 276L261 277L260 276z"/>
<path style="fill:#898989; stroke:none;" d="M141 277L142 278L141 277z"/>
<path style="fill:#959595; stroke:none;" d="M242 277L243 278L242 277z"/>
<path style="fill:#afafaf; stroke:none;" d="M883 277L884 278L883 277z"/>
<path style="fill:#8d8d8d; stroke:none;" d="M122 279L123 280L122 279z"/>
<path style="fill:#6a6a6a; stroke:none;" d="M138 279L139 280L138 279z"/>
<path style="fill:#777777; stroke:none;" d="M245 279L246 280L245 279z"/>
<path style="fill:#8e8e8e; stroke:none;" d="M261 279L262 280L261 279z"/>
<path style="fill:#a5a5a5; stroke:none;" d="M137 280L138 281L137 280z"/>
<path style="fill:#ababab; stroke:none;" d="M246 280L247 281L246 280z"/>
<path style="fill:#595959; stroke:none;" d="M135 281L136 282L135 281z"/>
<path style="fill:#5d5d5d; stroke:none;" d="M248 281L249 282L248 281z"/>
<path style="fill:#949494; stroke:none;" d="M121 282L122 283L121 282z"/>
<path style="fill:#898989; stroke:none;" d="M134 282L135 283L134 282z"/>
<path style="fill:#959595; stroke:none;" d="M249 282L250 283L249 282z"/>
<path style="fill:#949494; stroke:none;" d="M262 282L263 283L262 282z"/>
<path style="fill:#a5a5a5; stroke:none;" d="M876 282L877 283L876 282z"/>
<path style="fill:#595959; stroke:none;" d="M121 283L122 284L121 283M262 283L263 284L262 283z"/>
<path style="fill:#6a6a6a; stroke:none;" d="M131 284L132 285L131 284z"/>
<path style="fill:#777777; stroke:none;" d="M252 284L253 285L252 284z"/>
<path style="fill:#afafaf; stroke:none;" d="M873 284L874 285L873 284z"/>
<path style="fill:#999999; stroke:none;" d="M120 285L121 286L120 285z"/>
<path style="fill:#a5a5a5; stroke:none;" d="M130 285L131 286L130 285z"/>
<path style="fill:#ababab; stroke:none;" d="M253 285L254 286L253 285z"/>
<path style="fill:#9a9a9a; stroke:none;" d="M263 285L264 286L263 285z"/>
<path style="fill:#5e5e5e; stroke:none;" d="M120 286L121 287L120 286z"/>
<path style="fill:#595959; stroke:none;" d="M128 286L129 287L128 286z"/>
<path style="fill:#5d5d5d; stroke:none;" d="M255 286L256 287L255 286z"/>
<path style="fill:#5f5f5f; stroke:none;" d="M263 286L264 287L263 286z"/>
<path style="fill:#898989; stroke:none;" d="M127 287L128 288L127 287z"/>
<path style="fill:#959595; stroke:none;" d="M256 287L257 288L256 287z"/>
<path style="fill:#9f9f9f; stroke:none;" d="M119 288L120 289L119 288z"/>
<path style="fill:#a0a0a0; stroke:none;" d="M264 288L265 289L264 288z"/>
<path style="fill:#656565; stroke:none;" d="M119 289L120 290L119 289z"/>
<path style="fill:#6a6a6a; stroke:none;" d="M124 289L125 290L124 289z"/>
<path style="fill:#777777; stroke:none;" d="M259 289L260 290L259 289z"/>
<path style="fill:#666666; stroke:none;" d="M264 289L265 290L264 289z"/>
<path style="fill:#a5a5a5; stroke:none;" d="M866 289L867 290L866 289M123 290L124 291L123 290z"/>
<path style="fill:#ababab; stroke:none;" d="M260 290L261 291L260 290z"/>
<path style="fill:#a5a5a5; stroke:none;" d="M118 291L119 292L118 291z"/>
<path style="fill:#595959; stroke:none;" d="M121 291L122 292L121 291z"/>
<path style="fill:#5d5d5d; stroke:none;" d="M262 291L263 292L262 291z"/>
<path style="fill:#a5a5a5; stroke:none;" d="M265 291L266 292L265 291z"/>
<path style="fill:#afafaf; stroke:none;" d="M863 291L864 292L863 291z"/>
<path style="fill:#515151; stroke:none;" d="M118.333 292.667C118.278 292.722 118.222 293.778 118.667 293.333C118.722 293.278 118.778 292.222 118.333 292.667z"/>
<path style="fill:#898989; stroke:none;" d="M120 292L121 293L120 292z"/>
<path style="fill:#959595; stroke:none;" d="M263 292L264 293L263 292z"/>
<path style="fill:#535353; stroke:none;" d="M265.333 292.667C265.278 292.722 265.222 293.778 265.667 293.333C265.722 293.278 265.778 292.222 265.333 292.667z"/>
<path style="fill:#a5a5a5; stroke:none;" d="M856 296L857 297L856 296z"/>
<path style="fill:#afafaf; stroke:none;" d="M853 298L854 299L853 298z"/>
<path style="fill:#a5a5a5; stroke:none;" d="M846 303L847 304L846 303z"/>
<path style="fill:#afafaf; stroke:none;" d="M843 305L844 306L843 305z"/>
<path style="fill:#a5a5a5; stroke:none;" d="M836 310L837 311L836 310z"/>
<path style="fill:#afafaf; stroke:none;" d="M833 312L834 313L833 312z"/>
<path style="fill:#a5a5a5; stroke:none;" d="M826 317L827 318L826 317z"/>
<path style="fill:#afafaf; stroke:none;" d="M823 319L824 320L823 319z"/>
<path style="fill:#a5a5a5; stroke:none;" d="M816 324L817 325L816 324z"/>
<path style="fill:#afafaf; stroke:none;" d="M813 326L814 327L813 326z"/>
<path style="fill:#a5a5a5; stroke:none;" d="M806 331L807 332L806 331z"/>
<path style="fill:#afafaf; stroke:none;" d="M803 333L804 334L803 333z"/>
<path style="fill:#a5a5a5; stroke:none;" d="M796 338L797 339L796 338z"/>
<path style="fill:#afafaf; stroke:none;" d="M793 340L794 341L793 340z"/>
<path style="fill:#a5a5a5; stroke:none;" d="M786 345L787 346L786 345z"/>
<path style="fill:#afafaf; stroke:none;" d="M783 347L784 348L783 347z"/>
<path style="fill:#a5a5a5; stroke:none;" d="M776 352L777 353L776 352z"/>
<path style="fill:#afafaf; stroke:none;" d="M773 354L774 355L773 354z"/>
<path style="fill:#a5a5a5; stroke:none;" d="M766 359L767 360L766 359z"/>
<path style="fill:#afafaf; stroke:none;" d="M763 361L764 362L763 361z"/>
<path style="fill:#a5a5a5; stroke:none;" d="M756 366L757 367L756 366z"/>
<path style="fill:#afafaf; stroke:none;" d="M753 368L754 369L753 368z"/>
<path style="fill:#a5a5a5; stroke:none;" d="M746 373L747 374L746 373z"/>
<path style="fill:#afafaf; stroke:none;" d="M743 375L744 376L743 375z"/>
<path style="fill:#a5a5a5; stroke:none;" d="M736 380L737 381L736 380z"/>
<path style="fill:#afafaf; stroke:none;" d="M733 382L734 383L733 382z"/>
<path style="fill:#a5a5a5; stroke:none;" d="M726 387L727 388L726 387z"/>
<path style="fill:#afafaf; stroke:none;" d="M723 389L724 390L723 389z"/>
<path style="fill:#a5a5a5; stroke:none;" d="M716 394L717 395L716 394z"/>
<path style="fill:#afafaf; stroke:none;" d="M713 396L714 397L713 396z"/>
<path style="fill:#a5a5a5; stroke:none;" d="M706 401L707 402L706 401z"/>
<path style="fill:#afafaf; stroke:none;" d="M703 403L704 404L703 403z"/>
<path style="fill:#a5a5a5; stroke:none;" d="M696 408L697 409L696 408z"/>
<path style="fill:#afafaf; stroke:none;" d="M693 410L694 411L693 410z"/>
<path style="fill:#a5a5a5; stroke:none;" d="M686 415L687 416L686 415z"/>
<path style="fill:#afafaf; stroke:none;" d="M683 417L684 418L683 417z"/>
<path style="fill:#a5a5a5; stroke:none;" d="M676 422L677 423L676 422z"/>
<path style="fill:#afafaf; stroke:none;" d="M673 424L674 425L673 424z"/>
<path style="fill:#a5a5a5; stroke:none;" d="M666 429L667 430L666 429z"/>
<path style="fill:#afafaf; stroke:none;" d="M663 431L664 432L663 431z"/>
<path style="fill:#a5a5a5; stroke:none;" d="M656 436L657 437L656 436z"/>
<path style="fill:#afafaf; stroke:none;" d="M653 438L654 439L653 438z"/>
<path style="fill:#a5a5a5; stroke:none;" d="M646 443L647 444L646 443z"/>
<path style="fill:#afafaf; stroke:none;" d="M643 445L644 446L643 445z"/>
<path style="fill:#a5a5a5; stroke:none;" d="M636 450L637 451L636 450z"/>
<path style="fill:#afafaf; stroke:none;" d="M633 452L634 453L633 452z"/>
<path style="fill:#a5a5a5; stroke:none;" d="M626 457L627 458L626 457z"/>
<path style="fill:#afafaf; stroke:none;" d="M623 459L624 460L623 459z"/>
<path style="fill:#a5a5a5; stroke:none;" d="M616 464L617 465L616 464z"/>
<path style="fill:#afafaf; stroke:none;" d="M613 466L614 467L613 466z"/>
<path style="fill:#a5a5a5; stroke:none;" d="M606 471L607 472L606 471z"/>
<path style="fill:#afafaf; stroke:none;" d="M603 473L604 474L603 473z"/>
<path style="fill:#a5a5a5; stroke:none;" d="M596 478L597 479L596 478z"/>
<path style="fill:#afafaf; stroke:none;" d="M593 480L594 481L593 480z"/>
<path style="fill:#a5a5a5; stroke:none;" d="M586 485L587 486L586 485z"/>
<path style="fill:#afafaf; stroke:none;" d="M583 487L584 488L583 487z"/>
<path style="fill:#a5a5a5; stroke:none;" d="M576 492L577 493L576 492z"/>
<path style="fill:#afafaf; stroke:none;" d="M573 494L574 495L573 494z"/>
<path style="fill:#a5a5a5; stroke:none;" d="M566 499L567 500L566 499z"/>
<path style="fill:#afafaf; stroke:none;" d="M563 501L564 502L563 501z"/>
<path style="fill:#a5a5a5; stroke:none;" d="M556 506L557 507L556 506z"/>
<path style="fill:#afafaf; stroke:none;" d="M553 508L554 509L553 508z"/>
<path style="fill:#a5a5a5; stroke:none;" d="M546 513L547 514L546 513z"/>
<path style="fill:#afafaf; stroke:none;" d="M543 515L544 516L543 515z"/>
<path style="fill:#a5a5a5; stroke:none;" d="M536 520L537 521L536 520z"/>
<path style="fill:#afafaf; stroke:none;" d="M533 522L534 523L533 522z"/>
<path style="fill:#a5a5a5; stroke:none;" d="M526 527L527 528L526 527z"/>
<path style="fill:#afafaf; stroke:none;" d="M523 529L524 530L523 529z"/>
<path style="fill:#a5a5a5; stroke:none;" d="M516 534L517 535L516 534z"/>
<path style="fill:#afafaf; stroke:none;" d="M513 536L514 537L513 536z"/>
<path style="fill:#a5a5a5; stroke:none;" d="M506 541L507 542L506 541z"/>
<path style="fill:#afafaf; stroke:none;" d="M503 543L504 544L503 543z"/>
<path style="fill:#a5a5a5; stroke:none;" d="M496 548L497 549L496 548z"/>
<path style="fill:#afafaf; stroke:none;" d="M493 550L494 551L493 550z"/>
<path style="fill:#a5a5a5; stroke:none;" d="M486 555L487 556L486 555z"/>
<path style="fill:#afafaf; stroke:none;" d="M483 557L484 558L483 557z"/>
<path style="fill:#a5a5a5; stroke:none;" d="M476 562L477 563L476 562z"/>
<path style="fill:#afafaf; stroke:none;" d="M473 564L474 565L473 564z"/>
<path style="fill:#a5a5a5; stroke:none;" d="M466 569L467 570L466 569z"/>
<path style="fill:#afafaf; stroke:none;" d="M463 571L464 572L463 571z"/>
<path style="fill:#a5a5a5; stroke:none;" d="M456 576L457 577L456 576z"/>
<path style="fill:#afafaf; stroke:none;" d="M453 578L454 579L453 578z"/>
<path style="fill:#a5a5a5; stroke:none;" d="M446 583L447 584L446 583z"/>
<path style="fill:#afafaf; stroke:none;" d="M443 585L444 586L443 585z"/>
<path style="fill:#a5a5a5; stroke:none;" d="M436 590L437 591L436 590z"/>
<path style="fill:#afafaf; stroke:none;" d="M433 592L434 593L433 592z"/>
<path style="fill:#a5a5a5; stroke:none;" d="M426 597L427 598L426 597z"/>
<path style="fill:#afafaf; stroke:none;" d="M423 599L424 600L423 599z"/>
<path style="fill:#a5a5a5; stroke:none;" d="M416 604L417 605L416 604z"/>
<path style="fill:#afafaf; stroke:none;" d="M413 606L414 607L413 606z"/>
<path style="fill:#a5a5a5; stroke:none;" d="M406 611L407 612L406 611z"/>
<path style="fill:#afafaf; stroke:none;" d="M403 613L404 614L403 613z"/>
<path style="fill:#a5a5a5; stroke:none;" d="M396 618L397 619L396 618z"/>
<path style="fill:#afafaf; stroke:none;" d="M393 620L394 621L393 620z"/>
<path style="fill:#a5a5a5; stroke:none;" d="M386 625L387 626L386 625z"/>
<path style="fill:#afafaf; stroke:none;" d="M383 627L384 628L383 627z"/>
<path style="fill:#a5a5a5; stroke:none;" d="M376 632L377 633L376 632z"/>
<path style="fill:#afafaf; stroke:none;" d="M373 634L374 635L373 634z"/>
<path style="fill:#a5a5a5; stroke:none;" d="M366 639L367 640L366 639z"/>
<path style="fill:#afafaf; stroke:none;" d="M363 641L364 642L363 641z"/>
<path style="fill:#a5a5a5; stroke:none;" d="M356 646L357 647L356 646z"/>
<path style="fill:#afafaf; stroke:none;" d="M353 648L354 649L353 648z"/>
<path style="fill:#a5a5a5; stroke:none;" d="M346 653L347 654L346 653z"/>
<path style="fill:#afafaf; stroke:none;" d="M343 655L344 656L343 655z"/>
<path style="fill:#a5a5a5; stroke:none;" d="M336 660L337 661L336 660z"/>
<path style="fill:#afafaf; stroke:none;" d="M333 662L334 663L333 662z"/>
<path style="fill:#a5a5a5; stroke:none;" d="M326 667L327 668L326 667z"/>
<path style="fill:#afafaf; stroke:none;" d="M323 669L324 670L323 669z"/>
<path style="fill:#a5a5a5; stroke:none;" d="M316 674L317 675L316 674z"/>
<path style="fill:#afafaf; stroke:none;" d="M313 676L314 677L313 676z"/>
<path style="fill:#a5a5a5; stroke:none;" d="M306 681L307 682L306 681z"/>
<path style="fill:#afafaf; stroke:none;" d="M303 683L304 684L303 683z"/>
<path style="fill:#a5a5a5; stroke:none;" d="M296 688L297 689L296 688z"/>
<path style="fill:#afafaf; stroke:none;" d="M293 690L294 691L293 690z"/>
<path style="fill:#a5a5a5; stroke:none;" d="M286 695L287 696L286 695z"/>
<path style="fill:#afafaf; stroke:none;" d="M283 697L284 698L283 697z"/>
<path style="fill:#a5a5a5; stroke:none;" d="M276 702L277 703L276 702z"/>
<path style="fill:#afafaf; stroke:none;" d="M273 704L274 705L273 704z"/>
<path style="fill:#a5a5a5; stroke:none;" d="M266 709L267 710L266 709z"/>
<path style="fill:#afafaf; stroke:none;" d="M263 711L264 712L263 711z"/>
<path style="fill:#a5a5a5; stroke:none;" d="M256 716L257 717L256 716z"/>
<path style="fill:#afafaf; stroke:none;" d="M253 718L254 719L253 718z"/>
<path style="fill:#a5a5a5; stroke:none;" d="M246 723L247 724L246 723z"/>
<path style="fill:#afafaf; stroke:none;" d="M243 725L244 726L243 725z"/>
<path style="fill:#a5a5a5; stroke:none;" d="M236 730L237 731L236 730z"/>
<path style="fill:#afafaf; stroke:none;" d="M233 732L234 733L233 732z"/>
<path style="fill:#a5a5a5; stroke:none;" d="M226 737L227 738L226 737z"/>
<path style="fill:#afafaf; stroke:none;" d="M223 739L224 740L223 739z"/>
<path style="fill:#a5a5a5; stroke:none;" d="M216 744L217 745L216 744z"/>
<path style="fill:#afafaf; stroke:none;" d="M213 746L214 747L213 746z"/>
<path style="fill:#a5a5a5; stroke:none;" d="M206 751L207 752L206 751z"/>
<path style="fill:#afafaf; stroke:none;" d="M203 753L204 754L203 753z"/>
<path style="fill:#a5a5a5; stroke:none;" d="M196 758L197 759L196 758z"/>
<path style="fill:#afafaf; stroke:none;" d="M193 760L194 761L193 760z"/>
<path style="fill:#a5a5a5; stroke:none;" d="M186 765L187 766L186 765z"/>
<path style="fill:#afafaf; stroke:none;" d="M183 767L184 768L183 767z"/>
<path style="fill:#a5a5a5; stroke:none;" d="M176 772L177 773L176 772z"/>
<path style="fill:#afafaf; stroke:none;" d="M173 774L174 775L173 774z"/>
<path style="fill:#a5a5a5; stroke:none;" d="M166 779L167 780L166 779z"/>
<path style="fill:#afafaf; stroke:none;" d="M163 781L164 782L163 781z"/>
<path style="fill:#a5a5a5; stroke:none;" d="M156 786L157 787L156 786z"/>
<path style="fill:#afafaf; stroke:none;" d="M153 788L154 789L153 788z"/>
<path style="fill:#a5a5a5; stroke:none;" d="M146 793L147 794L146 793z"/>
<path style="fill:#afafaf; stroke:none;" d="M143 795L144 796L143 795z"/>
<path style="fill:#a5a5a5; stroke:none;" d="M136 800L137 801L136 800z"/>
<path style="fill:#afafaf; stroke:none;" d="M133 802L134 803L133 802z"/>
<path style="fill:#a5a5a5; stroke:none;" d="M126 807L127 808L126 807z"/>
<path style="fill:#afafaf; stroke:none;" d="M123 809L124 810L123 809z"/>
<path style="fill:#a5a5a5; stroke:none;" d="M116 814L117 815L116 814z"/>
<path style="fill:#afafaf; stroke:none;" d="M113 816L114 817L113 816z"/>
<path style="fill:#a5a5a5; stroke:none;" d="M106 821L107 822L106 821z"/>
<path style="fill:#afafaf; stroke:none;" d="M103 823L104 824L103 823z"/>
<path style="fill:#a5a5a5; stroke:none;" d="M96 828L97 829L96 828z"/>
<path style="fill:#afafaf; stroke:none;" d="M93 830L94 831L93 830z"/>
<path style="fill:#a5a5a5; stroke:none;" d="M86 835L87 836L86 835z"/>
<path style="fill:#afafaf; stroke:none;" d="M83 837L84 838L83 837z"/>
<path style="fill:#a5a5a5; stroke:none;" d="M76 842L77 843L76 842z"/>
<path style="fill:#afafaf; stroke:none;" d="M73 844L74 845L73 844z"/>
<path style="fill:#a5a5a5; stroke:none;" d="M66 849L67 850L66 849z"/>
<path style="fill:#afafaf; stroke:none;" d="M63 851L64 852L63 851z"/>
<path style="fill:#a5a5a5; stroke:none;" d="M56 856L57 857L56 856z"/>
<path style="fill:#afafaf; stroke:none;" d="M53 858L54 859L53 858z"/>
<path style="fill:#a5a5a5; stroke:none;" d="M46 863L47 864L46 863z"/>
<path style="fill:#afafaf; stroke:none;" d="M43 865L44 866L43 865z"/>
<path style="fill:#a5a5a5; stroke:none;" d="M36 870L37 871L36 870z"/>
<path style="fill:#afafaf; stroke:none;" d="M33 872L34 873L33 872z"/>
<path style="fill:#a5a5a5; stroke:none;" d="M26 877L27 878L26 877z"/>
<path style="fill:#afafaf; stroke:none;" d="M23 879L24 880L23 879z"/>
<path style="fill:#a5a5a5; stroke:none;" d="M16 884L17 885L16 884z"/>
<path style="fill:#afafaf; stroke:none;" d="M13 886L14 887L13 886z"/>
<path style="fill:#a5a5a5; stroke:none;" d="M6 891L7 892L6 891z"/>
<path style="fill:#afafaf; stroke:none;" d="M3 893L4 894L3 893z"/>
</svg>
