<?xml version="1.0" standalone="yes"?>
<svg xmlns="http://www.w3.org/2000/svg" width="1500" height="1050">
<path style="fill:#ffffff; stroke:none;" d="M0 0L0 1050L1500 1050L1500 0L0 0z"/>
<path style="fill:#6e6e6e; stroke:none;" d="M490 265L490 785L1010 785L1010 265L490 265z"/>
<path style="fill:#979797; stroke:none;" d="M749.667 272.333C749.222 272.778 750.278 272.722 750.333 272.667C750.778 272.222 749.722 272.278 749.667 272.333z"/>
<path style="fill:#c0c0c0; stroke:none;" d="M714 309L739 309L739 342C739 346.568 740.073 352.799 737.972 357C734.373 364.197 725.624 370.338 720.001 376C717.395 378.624 714.253 381.27 713.318 385C710.843 394.872 713 407.824 713 418L713 487C718.605 484.386 722.668 479.332 727 475C734.174 467.826 744.682 460.26 749 451C763.232 461.025 772.768 476.975 787 487L787 417C787 406.824 789.157 393.872 786.682 384C785.747 380.27 782.605 377.624 779.999 375C774.376 369.338 765.626 363.197 762.028 356C759.928 351.8 761 345.568 761 341L761 309L787 309C779.953 298.996 769.648 290.644 761 282C758.405 279.406 754.203 273.425 750 273.921C745.812 274.415 741.773 280.227 739 283C730.671 291.328 720.789 299.363 714 309z"/>
<path style="fill:#979797; stroke:none;" d="M749.667 451.333C749.222 451.778 750.278 451.722 750.333 451.667C750.778 451.222 749.722 451.278 749.667 451.333z"/>
<path style="fill:#c0c0c0; stroke:none;" d="M534 514L534 489C523.996 496.047 515.644 506.352 507 515C504.576 517.425 499.207 521.188 499.207 525C499.207 528.812 504.576 532.575 507 535C515.644 543.648 523.996 553.953 534 561L534 536L567 536C571.568 536 577.8 534.928 582 537.028C589.197 540.627 595.338 549.376 601 554.999C603.624 557.605 606.27 560.747 610 561.682C619.872 564.157 632.824 562 643 562L713 562C706.988 553.465 698.374 546.374 691 539C686.377 534.377 681.983 528.79 676 526L676 524C681.983 521.21 686.377 515.623 691 511C698.374 503.626 706.988 496.535 713 488L643 488C632.824 488 619.872 485.843 610 488.318C606.27 489.253 603.624 492.395 601 495.001C595.338 500.624 589.198 509.373 582 512.972C577.799 515.073 571.568 514 567 514L534 514M788 488C794.789 497.637 804.671 505.671 813 514C815.578 516.578 821.944 520.971 821.944 525C821.944 529.029 815.578 533.422 813 536C804.671 544.329 794.789 552.363 788 562L858 562C868.176 562 881.128 564.157 891 561.682C894.73 560.747 897.376 557.605 900 554.999C905.662 549.376 911.803 540.627 919 537.028C923.201 534.927 929.432 536 934 536L966 536L966 561C976.672 556.023 985.725 543.292 994 535C996.515 532.48 1001.36 528.96 1001.36 525C1001.36 521.04 996.515 517.52 994 515C985.725 506.708 976.672 493.977 966 489L966 514L934 514C929.431 514 923.201 515.073 919 512.972C911.803 509.374 905.662 500.624 900 495.001C897.376 492.395 894.73 489.253 891 488.318C881.128 485.843 868.176 488 858 488L788 488z"/>
<path style="fill:#979797; stroke:none;" d="M497.333 524.667C497.278 524.722 497.222 525.778 497.667 525.333C497.722 525.278 497.778 524.222 497.333 524.667M676.333 524.667C676.278 524.722 676.222 525.778 676.667 525.333C676.722 525.278 676.778 524.222 676.333 524.667M823.333 524.667C823.278 524.722 823.222 525.778 823.667 525.333C823.722 525.278 823.778 524.222 823.333 524.667M1002.33 524.667C1002.28 524.722 1002.22 525.778 1002.67 525.333C1002.72 525.278 1002.78 524.222 1002.33 524.667z"/>
<path style="fill:#c0c0c0; stroke:none;" d="M713 563L713 632C713 642.176 710.843 655.128 713.318 665C714.253 668.73 717.395 671.376 720.001 674C725.624 679.662 734.373 685.802 737.972 693C740.073 697.201 739 703.432 739 708L739 741L714 741C721.047 751.004 731.352 759.356 740 768C742.595 770.593 746.798 776.575 751 776.079C755.188 775.585 759.227 769.773 762 767C770.329 758.672 780.211 750.637 787 741L761 741L761 709C761 704.432 759.927 698.201 762.028 694C765.627 686.802 774.376 680.662 779.999 675C782.605 672.376 785.747 669.73 786.682 666C789.157 656.128 787 643.176 787 633L787 563C772.768 573.025 763.232 588.975 749 599C744.682 589.74 734.174 582.174 727 575C722.668 570.668 718.605 565.614 713 563z"/>
<path style="fill:#979797; stroke:none;" d="M749.667 598.333C749.222 598.778 750.278 598.722 750.333 598.667C750.778 598.222 749.722 598.278 749.667 598.333M749.667 777.333C749.222 777.778 750.278 777.722 750.333 777.667C750.778 777.222 749.722 777.278 749.667 777.333z"/>
</svg>
