<?xml version="1.0" standalone="yes"?>
<svg xmlns="http://www.w3.org/2000/svg" width="1500" height="1000">
<path style="fill:#1e1e1e; stroke:none;" d="M0 0L0 500L500 500L500 0L0 0z"/>
<path style="fill:#ffffff; stroke:none;" d="M500 0L500 250L1500 250L1500 0L500 0z"/>
<path style="fill:#5e5e5e; stroke:none;" d="M249.667 70.3333C249.222 70.7778 250.278 70.7222 250.333 70.6667C250.778 70.2221 249.722 70.2777 249.667 70.3333z"/>
<path style="fill:#dadada; stroke:none;" d="M249.667 71.3333C249.222 71.7778 250.278 71.7223 250.333 71.6667C250.778 71.222 249.722 71.2778 249.667 71.3333z"/>
<path style="fill:#818181; stroke:none;" d="M248 72L249 73L248 72z"/>
<path style="fill:#ffffff; stroke:none;" d="M249 72C228.53 105.445 209.671 139.992 190.15 174C165.437 217.053 140.255 259.845 115.719 303C102.607 326.063 89.425 349.124 75.9892 372C69.0533 383.809 58.866 396.857 55 410L445 410C441.134 396.857 430.947 383.809 424.011 372C410.575 349.124 397.393 326.063 384.281 303C359.745 259.845 334.563 217.053 309.85 174C290.329 139.992 271.47 105.445 251 72L249 72z"/>
<path style="fill:#818181; stroke:none;" d="M251 72L252 73L251 72z"/>
<path style="fill:#a4a4a4; stroke:none;" d="M247 74L248 75L247 74M252 74L253 75L252 74z"/>
<path style="fill:#c2c2c2; stroke:none;" d="M246 76L247 77L246 76M253 76L254 77L253 76z"/>
<path style="fill:#6c6c6c; stroke:none;" d="M245 77L246 78L245 77M254 77L255 78L254 77z"/>
<path style="fill:#888888; stroke:none;" d="M244 79L245 80L244 79M255 79L256 80L255 79z"/>
<path style="fill:#ababab; stroke:none;" d="M243 81L244 82L243 81M256 81L257 82L256 81z"/>
<path style="fill:#4e4e4e; stroke:none;" d="M242 82L243 83L242 82M257 82L258 83L257 82z"/>
<path style="fill:#cecece; stroke:none;" d="M242 83L243 84L242 83M257 83L258 84L257 83z"/>
<path style="fill:#6c6c6c; stroke:none;" d="M241 84L242 85L241 84M258 84L259 85L258 84z"/>
<path style="fill:#969696; stroke:none;" d="M240 86L241 87L240 86M259 86L260 87L259 86z"/>
<path style="fill:#b2b2b2; stroke:none;" d="M239 88L240 89L239 88M260 88L261 89L260 88z"/>
<path style="fill:#4e4e4e; stroke:none;" d="M238 89L239 90L238 89M261 89L262 90L261 89z"/>
<path style="fill:#cecece; stroke:none;" d="M238 90L239 91L238 90M261 90L262 91L261 90z"/>
<path style="fill:#797979; stroke:none;" d="M237 91L238 92L237 91M262 91L263 92L262 91z"/>
<path style="fill:#969696; stroke:none;" d="M236 93L237 94L236 93M263 93L264 94L263 93z"/>
<path style="fill:#c0c0c0; stroke:none;" d="M235 95L236 96L235 95M264 95L265 96L264 95z"/>
<path style="fill:#5e5e5e; stroke:none;" d="M234 96L235 97L234 96M265 96L266 97L265 96z"/>
<path style="fill:#797979; stroke:none;" d="M233 98L234 99L233 98M266 98L267 99L266 98z"/>
<path style="fill:#a4a4a4; stroke:none;" d="M232 100L233 101L232 100M267 100L268 101L267 100z"/>
<path style="fill:#c0c0c0; stroke:none;" d="M231 102L232 103L231 102M268 102L269 103L268 102z"/>
<path style="fill:#646464; stroke:none;" d="M230 103L231 104L230 103M269 103L270 104L269 103z"/>
<path style="fill:#888888; stroke:none;" d="M229 105L230 106L229 105M270 105L271 106L270 105z"/>
<path style="fill:#a4a4a4; stroke:none;" d="M228 107L229 108L228 107M271 107L272 108L271 107z"/>
<path style="fill:#4e4e4e; stroke:none;" d="M227 108L228 109L227 108M272 108L273 109L272 108z"/>
<path style="fill:#cecece; stroke:none;" d="M227 109L228 110L227 109M272 109L273 110L272 109z"/>
<path style="fill:#6c6c6c; stroke:none;" d="M226 110L227 111L226 110M273 110L274 111L273 110z"/>
<path style="fill:#8f8f8f; stroke:none;" d="M225 112L226 113L225 112M274 112L275 113L274 112z"/>
<path style="fill:#b2b2b2; stroke:none;" d="M224 114L225 115L224 114M275 114L276 115L275 114z"/>
<path style="fill:#4e4e4e; stroke:none;" d="M223 115L224 116L223 115M276 115L277 116L276 115z"/>
<path style="fill:#cecece; stroke:none;" d="M223 116L224 117L223 116M276 116L277 117L276 116z"/>
<path style="fill:#737373; stroke:none;" d="M222 117L223 118L222 117M277 117L278 118L277 117z"/>
<path style="fill:#969696; stroke:none;" d="M221 119L222 120L221 119M278 119L279 120L278 119z"/>
<path style="fill:#b9b9b9; stroke:none;" d="M220 121L221 122L220 121M279 121L280 122L279 121z"/>
<path style="fill:#5e5e5e; stroke:none;" d="M219 122L220 123L219 122M280 122L281 123L280 122z"/>
<path style="fill:#797979; stroke:none;" d="M218 124L219 125L218 124M281 124L282 125L281 124z"/>
<path style="fill:#a4a4a4; stroke:none;" d="M217 126L218 127L217 126M282 126L283 127L282 126z"/>
<path style="fill:#c0c0c0; stroke:none;" d="M216 128L217 129L216 128M283 128L284 129L283 128z"/>
<path style="fill:#5e5e5e; stroke:none;" d="M215 129L216 130L215 129M284 129L285 130L284 129z"/>
<path style="fill:#888888; stroke:none;" d="M214 131L215 132L214 131M285 131L286 132L285 131z"/>
<path style="fill:#a4a4a4; stroke:none;" d="M213 133L214 134L213 133M286 133L287 134L286 133z"/>
<path style="fill:#4e4e4e; stroke:none;" d="M212 134L213 135L212 134M287 134L288 135L287 134z"/>
<path style="fill:#cecece; stroke:none;" d="M212 135L213 136L212 135M287 135L288 136L287 135z"/>
<path style="fill:#6c6c6c; stroke:none;" d="M211 136L212 137L211 136M288 136L289 137L288 136z"/>
<path style="fill:#888888; stroke:none;" d="M210 138L211 139L210 138M289 138L290 139L289 138z"/>
<path style="fill:#b2b2b2; stroke:none;" d="M209 140L210 141L209 140M290 140L291 141L290 140z"/>
<path style="fill:#4e4e4e; stroke:none;" d="M208 141L209 142L208 141M291 141L292 142L291 141z"/>
<path style="fill:#cecece; stroke:none;" d="M208 142L209 143L208 142M291 142L292 143L291 142z"/>
<path style="fill:#737373; stroke:none;" d="M207 143L208 144L207 143M292 143L293 144L292 143z"/>
<path style="fill:#969696; stroke:none;" d="M206 145L207 146L206 145M293 145L294 146L293 145z"/>
<path style="fill:#b2b2b2; stroke:none;" d="M205 147L206 148L205 147M294 147L295 148L294 147z"/>
<path style="fill:#5b5b5b; stroke:none;" d="M204 148L205 149L204 148M295 148L296 149L295 148z"/>
<path style="fill:#797979; stroke:none;" d="M203 150L204 151L203 150M296 150L297 151L296 150z"/>
<path style="fill:#9d9d9d; stroke:none;" d="M202 152L203 153L202 152M297 152L298 153L297 152z"/>
<path style="fill:#c0c0c0; stroke:none;" d="M201 154L202 155L201 154M298 154L299 155L298 154z"/>
<path style="fill:#5e5e5e; stroke:none;" d="M200 155L201 156L200 155M299 155L300 156L299 155z"/>
<path style="fill:#818181; stroke:none;" d="M199 157L200 158L199 157M300 157L301 158L300 157z"/>
<path style="fill:#a4a4a4; stroke:none;" d="M198 159L199 160L198 159M301 159L302 160L301 159z"/>
<path style="fill:#c2c2c2; stroke:none;" d="M197 161L198 162L197 161M302 161L303 162L302 161z"/>
<path style="fill:#6c6c6c; stroke:none;" d="M196 162L197 163L196 162M303 162L304 163L303 162z"/>
<path style="fill:#888888; stroke:none;" d="M195 164L196 165L195 164M304 164L305 165L304 164z"/>
<path style="fill:#ababab; stroke:none;" d="M194 166L195 167L194 166M305 166L306 167L305 166z"/>
<path style="fill:#4e4e4e; stroke:none;" d="M193 167L194 168L193 167M306 167L307 168L306 167z"/>
<path style="fill:#cecece; stroke:none;" d="M193 168L194 169L193 168M306 168L307 169L306 168z"/>
<path style="fill:#6c6c6c; stroke:none;" d="M192 169L193 170L192 169M307 169L308 170L307 169z"/>
<path style="fill:#969696; stroke:none;" d="M191 171L192 172L191 171M308 171L309 172L308 171z"/>
<path style="fill:#b2b2b2; stroke:none;" d="M190 173L191 174L190 173M309 173L310 174L309 173z"/>
<path style="fill:#4e4e4e; stroke:none;" d="M189 174L190 175L189 174M310 174L311 175L310 174z"/>
<path style="fill:#cecece; stroke:none;" d="M189 175L190 176L189 175M310 175L311 176L310 175z"/>
<path style="fill:#797979; stroke:none;" d="M188 176L189 177L188 176M311 176L312 177L311 176z"/>
<path style="fill:#969696; stroke:none;" d="M187 178L188 179L187 178M312 178L313 179L312 178z"/>
<path style="fill:#c0c0c0; stroke:none;" d="M186 180L187 181L186 180M313 180L314 181L313 180z"/>
<path style="fill:#5e5e5e; stroke:none;" d="M185 181L186 182L185 181M314 181L315 182L314 181z"/>
<path style="fill:#797979; stroke:none;" d="M184 183L185 184L184 183M315 183L316 184L315 183z"/>
<path style="fill:#a4a4a4; stroke:none;" d="M183 185L184 186L183 185M316 185L317 186L316 185z"/>
<path style="fill:#c0c0c0; stroke:none;" d="M182 187L183 188L182 187M317 187L318 188L317 187z"/>
<path style="fill:#646464; stroke:none;" d="M181 188L182 189L181 188M318 188L319 189L318 188z"/>
<path style="fill:#888888; stroke:none;" d="M180 190L181 191L180 190M319 190L320 191L319 190z"/>
<path style="fill:#a4a4a4; stroke:none;" d="M179 192L180 193L179 192M320 192L321 193L320 192z"/>
<path style="fill:#4e4e4e; stroke:none;" d="M178 193L179 194L178 193M321 193L322 194L321 193z"/>
<path style="fill:#cecece; stroke:none;" d="M178 194L179 195L178 194M321 194L322 195L321 194z"/>
<path style="fill:#6c6c6c; stroke:none;" d="M177 195L178 196L177 195M322 195L323 196L322 195z"/>
<path style="fill:#8f8f8f; stroke:none;" d="M176 197L177 198L176 197M323 197L324 198L323 197z"/>
<path style="fill:#b2b2b2; stroke:none;" d="M175 199L176 200L175 199M324 199L325 200L324 199z"/>
<path style="fill:#4e4e4e; stroke:none;" d="M174 200L175 201L174 200M325 200L326 201L325 200z"/>
<path style="fill:#cecece; stroke:none;" d="M174 201L175 202L174 201M325 201L326 202L325 201z"/>
<path style="fill:#737373; stroke:none;" d="M173 202L174 203L173 202M326 202L327 203L326 202z"/>
<path style="fill:#969696; stroke:none;" d="M172 204L173 205L172 204M327 204L328 205L327 204z"/>
<path style="fill:#b9b9b9; stroke:none;" d="M171 206L172 207L171 206M328 206L329 207L328 206z"/>
<path style="fill:#5e5e5e; stroke:none;" d="M170 207L171 208L170 207M329 207L330 208L329 207z"/>
<path style="fill:#797979; stroke:none;" d="M169 209L170 210L169 209M330 209L331 210L330 209z"/>
<path style="fill:#9d9d9d; stroke:none;" d="M168 211L169 212L168 211M331 211L332 212L331 211z"/>
<path style="fill:#c0c0c0; stroke:none;" d="M167 213L168 214L167 213M332 213L333 214L332 213z"/>
<path style="fill:#5e5e5e; stroke:none;" d="M166 214L167 215L166 214M333 214L334 215L333 214z"/>
<path style="fill:#888888; stroke:none;" d="M165 216L166 217L165 216M334 216L335 217L334 216z"/>
<path style="fill:#a4a4a4; stroke:none;" d="M164 218L165 219L164 218M335 218L336 219L335 218z"/>
<path style="fill:#4e4e4e; stroke:none;" d="M163 219L164 220L163 219M336 219L337 220L336 219z"/>
<path style="fill:#cecece; stroke:none;" d="M163 220L164 221L163 220M336 220L337 221L336 220z"/>
<path style="fill:#6c6c6c; stroke:none;" d="M162 221L163 222L162 221M337 221L338 222L337 221z"/>
<path style="fill:#888888; stroke:none;" d="M161 223L162 224L161 223M338 223L339 224L338 223z"/>
<path style="fill:#b2b2b2; stroke:none;" d="M160 225L161 226L160 225M339 225L340 226L339 225z"/>
<path style="fill:#4e4e4e; stroke:none;" d="M159 226L160 227L159 226M340 226L341 227L340 226z"/>
<path style="fill:#cecece; stroke:none;" d="M159 227L160 228L159 227M340 227L341 228L340 227z"/>
<path style="fill:#737373; stroke:none;" d="M158 228L159 229L158 228M341 228L342 229L341 228z"/>
<path style="fill:#969696; stroke:none;" d="M157 230L158 231L157 230M342 230L343 231L342 230z"/>
<path style="fill:#b2b2b2; stroke:none;" d="M156 232L157 233L156 232M343 232L344 233L343 232z"/>
<path style="fill:#5b5b5b; stroke:none;" d="M155 233L156 234L155 233M344 233L345 234L344 233z"/>
<path style="fill:#797979; stroke:none;" d="M154 235L155 236L154 235M345 235L346 236L345 235z"/>
<path style="fill:#9d9d9d; stroke:none;" d="M153 237L154 238L153 237M346 237L347 238L346 237z"/>
<path style="fill:#c0c0c0; stroke:none;" d="M152 239L153 240L152 239M347 239L348 240L347 239z"/>
<path style="fill:#5e5e5e; stroke:none;" d="M151 240L152 241L151 240M348 240L349 241L348 240z"/>
<path style="fill:#818181; stroke:none;" d="M150 242L151 243L150 242M349 242L350 243L349 242z"/>
<path style="fill:#a4a4a4; stroke:none;" d="M149 244L150 245L149 244M350 244L351 245L350 244z"/>
<path style="fill:#c2c2c2; stroke:none;" d="M148 246L149 247L148 246M351 246L352 247L351 246z"/>
<path style="fill:#6c6c6c; stroke:none;" d="M147 247L148 248L147 247M352 247L353 248L352 247z"/>
<path style="fill:#888888; stroke:none;" d="M146 249L147 250L146 249M353 249L354 250L353 249z"/>
<path style="fill:#393939; stroke:none;" d="M500 250L500 500L1500 500L1500 250L500 250z"/>
<path style="fill:#ababab; stroke:none;" d="M145 251L146 252L145 251M354 251L355 252L354 251z"/>
<path style="fill:#4e4e4e; stroke:none;" d="M144 252L145 253L144 252M355 252L356 253L355 252z"/>
<path style="fill:#cecece; stroke:none;" d="M144 253L145 254L144 253M355 253L356 254L355 253z"/>
<path style="fill:#6c6c6c; stroke:none;" d="M143 254L144 255L143 254M356 254L357 255L356 254z"/>
<path style="fill:#969696; stroke:none;" d="M142 256L143 257L142 256M357 256L358 257L357 256z"/>
<path style="fill:#b2b2b2; stroke:none;" d="M141 258L142 259L141 258M358 258L359 259L358 258z"/>
<path style="fill:#4e4e4e; stroke:none;" d="M140 259L141 260L140 259M359 259L360 260L359 259z"/>
<path style="fill:#cecece; stroke:none;" d="M140 260L141 261L140 260M359 260L360 261L359 260z"/>
<path style="fill:#797979; stroke:none;" d="M139 261L140 262L139 261M360 261L361 262L360 261z"/>
<path style="fill:#969696; stroke:none;" d="M138 263L139 264L138 263M361 263L362 264L361 263z"/>
<path style="fill:#c0c0c0; stroke:none;" d="M137 265L138 266L137 265M362 265L363 266L362 265z"/>
<path style="fill:#5e5e5e; stroke:none;" d="M136 266L137 267L136 266M363 266L364 267L363 266z"/>
<path style="fill:#797979; stroke:none;" d="M135 268L136 269L135 268M364 268L365 269L364 268z"/>
<path style="fill:#a4a4a4; stroke:none;" d="M134 270L135 271L134 270M365 270L366 271L365 270z"/>
<path style="fill:#c0c0c0; stroke:none;" d="M133 272L134 273L133 272M366 272L367 273L366 272z"/>
<path style="fill:#646464; stroke:none;" d="M132 273L133 274L132 273M367 273L368 274L367 273z"/>
<path style="fill:#888888; stroke:none;" d="M131 275L132 276L131 275M368 275L369 276L368 275z"/>
<path style="fill:#a4a4a4; stroke:none;" d="M130 277L131 278L130 277M369 277L370 278L369 277z"/>
<path style="fill:#4e4e4e; stroke:none;" d="M129 278L130 279L129 278M370 278L371 279L370 278z"/>
<path style="fill:#cecece; stroke:none;" d="M129 279L130 280L129 279M370 279L371 280L370 279z"/>
<path style="fill:#6c6c6c; stroke:none;" d="M128 280L129 281L128 280M371 280L372 281L371 280z"/>
<path style="fill:#8f8f8f; stroke:none;" d="M127 282L128 283L127 282M372 282L373 283L372 282z"/>
<path style="fill:#b2b2b2; stroke:none;" d="M126 284L127 285L126 284M373 284L374 285L373 284z"/>
<path style="fill:#4e4e4e; stroke:none;" d="M125 285L126 286L125 285M374 285L375 286L374 285z"/>
<path style="fill:#cecece; stroke:none;" d="M125 286L126 287L125 286M374 286L375 287L374 286z"/>
<path style="fill:#737373; stroke:none;" d="M124 287L125 288L124 287M375 287L376 288L375 287z"/>
<path style="fill:#969696; stroke:none;" d="M123 289L124 290L123 289M376 289L377 290L376 289z"/>
<path style="fill:#b9b9b9; stroke:none;" d="M122 291L123 292L122 291M377 291L378 292L377 291z"/>
<path style="fill:#5e5e5e; stroke:none;" d="M121 292L122 293L121 292M378 292L379 293L378 292z"/>
<path style="fill:#797979; stroke:none;" d="M120 294L121 295L120 294M379 294L380 295L379 294z"/>
<path style="fill:#9d9d9d; stroke:none;" d="M119 296L120 297L119 296M380 296L381 297L380 296z"/>
<path style="fill:#c0c0c0; stroke:none;" d="M118 298L119 299L118 298M381 298L382 299L381 298z"/>
<path style="fill:#5e5e5e; stroke:none;" d="M117 299L118 300L117 299M382 299L383 300L382 299z"/>
<path style="fill:#888888; stroke:none;" d="M116 301L117 302L116 301M383 301L384 302L383 301z"/>
<path style="fill:#a4a4a4; stroke:none;" d="M115 303L116 304L115 303M384 303L385 304L384 303z"/>
<path style="fill:#c2c2c2; stroke:none;" d="M114 305L115 306L114 305M385 305L386 306L385 305z"/>
<path style="fill:#6c6c6c; stroke:none;" d="M113 306L114 307L113 306M386 306L387 307L386 306z"/>
<path style="fill:#888888; stroke:none;" d="M112 308L113 309L112 308M387 308L388 309L387 308z"/>
<path style="fill:#b2b2b2; stroke:none;" d="M111 310L112 311L111 310M388 310L389 311L388 310z"/>
<path style="fill:#4e4e4e; stroke:none;" d="M110 311L111 312L110 311M389 311L390 312L389 311z"/>
<path style="fill:#cecece; stroke:none;" d="M110 312L111 313L110 312M389 312L390 313L389 312z"/>
<path style="fill:#737373; stroke:none;" d="M109 313L110 314L109 313M390 313L391 314L390 313z"/>
<path style="fill:#969696; stroke:none;" d="M108 315L109 316L108 315M391 315L392 316L391 315z"/>
<path style="fill:#b2b2b2; stroke:none;" d="M107 317L108 318L107 317M392 317L393 318L392 317z"/>
<path style="fill:#5b5b5b; stroke:none;" d="M106 318L107 319L106 318M393 318L394 319L393 318z"/>
<path style="fill:#797979; stroke:none;" d="M105 320L106 321L105 320M394 320L395 321L394 320z"/>
<path style="fill:#9d9d9d; stroke:none;" d="M104 322L105 323L104 322M395 322L396 323L395 322z"/>
<path style="fill:#c0c0c0; stroke:none;" d="M103 324L104 325L103 324M396 324L397 325L396 324z"/>
<path style="fill:#5e5e5e; stroke:none;" d="M102 325L103 326L102 325M397 325L398 326L397 325z"/>
<path style="fill:#818181; stroke:none;" d="M101 327L102 328L101 327M398 327L399 328L398 327z"/>
<path style="fill:#a4a4a4; stroke:none;" d="M100 329L101 330L100 329M399 329L400 330L399 329z"/>
<path style="fill:#c2c2c2; stroke:none;" d="M99 331L100 332L99 331M400 331L401 332L400 331z"/>
<path style="fill:#6c6c6c; stroke:none;" d="M98 332L99 333L98 332M401 332L402 333L401 332z"/>
<path style="fill:#888888; stroke:none;" d="M97 334L98 335L97 334M402 334L403 335L402 334z"/>
<path style="fill:#ababab; stroke:none;" d="M96 336L97 337L96 336M403 336L404 337L403 336z"/>
<path style="fill:#4e4e4e; stroke:none;" d="M95 337L96 338L95 337M404 337L405 338L404 337z"/>
<path style="fill:#cecece; stroke:none;" d="M95 338L96 339L95 338M404 338L405 339L404 338z"/>
<path style="fill:#6c6c6c; stroke:none;" d="M94 339L95 340L94 339M405 339L406 340L405 339z"/>
<path style="fill:#969696; stroke:none;" d="M93 341L94 342L93 341M406 341L407 342L406 341z"/>
<path style="fill:#b2b2b2; stroke:none;" d="M92 343L93 344L92 343M407 343L408 344L407 343z"/>
<path style="fill:#4e4e4e; stroke:none;" d="M91 344L92 345L91 344M408 344L409 345L408 344z"/>
<path style="fill:#cecece; stroke:none;" d="M91 345L92 346L91 345M408 345L409 346L408 345z"/>
<path style="fill:#797979; stroke:none;" d="M90 346L91 347L90 346M409 346L410 347L409 346z"/>
<path style="fill:#969696; stroke:none;" d="M89 348L90 349L89 348M410 348L411 349L410 348z"/>
<path style="fill:#c0c0c0; stroke:none;" d="M88 350L89 351L88 350M411 350L412 351L411 350z"/>
<path style="fill:#5e5e5e; stroke:none;" d="M87 351L88 352L87 351M412 351L413 352L412 351z"/>
<path style="fill:#797979; stroke:none;" d="M86 353L87 354L86 353M413 353L414 354L413 353z"/>
<path style="fill:#a4a4a4; stroke:none;" d="M85 355L86 356L85 355M414 355L415 356L414 355z"/>
<path style="fill:#c0c0c0; stroke:none;" d="M84 357L85 358L84 357M415 357L416 358L415 357z"/>
<path style="fill:#646464; stroke:none;" d="M83 358L84 359L83 358M416 358L417 359L416 358z"/>
<path style="fill:#888888; stroke:none;" d="M82 360L83 361L82 360M417 360L418 361L417 360z"/>
<path style="fill:#a4a4a4; stroke:none;" d="M81 362L82 363L81 362M418 362L419 363L418 362z"/>
<path style="fill:#4e4e4e; stroke:none;" d="M80 363L81 364L80 363M419 363L420 364L419 363z"/>
<path style="fill:#cecece; stroke:none;" d="M80 364L81 365L80 364M419 364L420 365L419 364z"/>
<path style="fill:#6c6c6c; stroke:none;" d="M79 365L80 366L79 365M420 365L421 366L420 365z"/>
<path style="fill:#8f8f8f; stroke:none;" d="M78 367L79 368L78 367M421 367L422 368L421 367z"/>
<path style="fill:#b2b2b2; stroke:none;" d="M77 369L78 370L77 369M422 369L423 370L422 369z"/>
<path style="fill:#4e4e4e; stroke:none;" d="M76 370L77 371L76 370M423 370L424 371L423 370z"/>
<path style="fill:#cecece; stroke:none;" d="M76 371L77 372L76 371M423 371L424 372L423 371z"/>
<path style="fill:#737373; stroke:none;" d="M75 372L76 373L75 372M424 372L425 373L424 372z"/>
<path style="fill:#969696; stroke:none;" d="M74 374L75 375L74 374M425 374L426 375L425 374z"/>
<path style="fill:#b9b9b9; stroke:none;" d="M73 376L74 377L73 376M426 376L427 377L426 376z"/>
<path style="fill:#5e5e5e; stroke:none;" d="M72 377L73 378L72 377M427 377L428 378L427 377z"/>
<path style="fill:#797979; stroke:none;" d="M71 379L72 380L71 379M428 379L429 380L428 379z"/>
<path style="fill:#9d9d9d; stroke:none;" d="M70 381L71 382L70 381M429 381L430 382L429 381z"/>
<path style="fill:#c0c0c0; stroke:none;" d="M69 383L70 384L69 383M430 383L431 384L430 383z"/>
<path style="fill:#5e5e5e; stroke:none;" d="M68 384L69 385L68 384M431 384L432 385L431 384z"/>
<path style="fill:#888888; stroke:none;" d="M67 386L68 387L67 386M432 386L433 387L432 386z"/>
<path style="fill:#a4a4a4; stroke:none;" d="M66 388L67 389L66 388M433 388L434 389L433 388z"/>
<path style="fill:#c2c2c2; stroke:none;" d="M65 390L66 391L65 390M434 390L435 391L434 390z"/>
<path style="fill:#6c6c6c; stroke:none;" d="M64 391L65 392L64 391M435 391L436 392L435 391z"/>
<path style="fill:#888888; stroke:none;" d="M63 393L64 394L63 393M436 393L437 394L436 393z"/>
<path style="fill:#b2b2b2; stroke:none;" d="M62 395L63 396L62 395M437 395L438 396L437 395z"/>
<path style="fill:#4e4e4e; stroke:none;" d="M61 396L62 397L61 396M438 396L439 397L438 396z"/>
<path style="fill:#cecece; stroke:none;" d="M61 397L62 398L61 397M438 397L439 398L438 397z"/>
<path style="fill:#6c6c6c; stroke:none;" d="M60 398L61 399L60 398M439 398L440 399L439 398z"/>
<path style="fill:#969696; stroke:none;" d="M59 400L60 401L59 400M440 400L441 401L440 400z"/>
<path style="fill:#b2b2b2; stroke:none;" d="M58 402L59 403L58 402M441 402L442 403L441 402z"/>
<path style="fill:#5b5b5b; stroke:none;" d="M57 403L58 404L57 403M442 403L443 404L442 403z"/>
<path style="fill:#797979; stroke:none;" d="M56 405L57 406L56 405M443 405L444 406L443 405z"/>
<path style="fill:#9d9d9d; stroke:none;" d="M55 407L56 408L55 407M444 407L445 408L444 407z"/>
<path style="fill:#c0c0c0; stroke:none;" d="M54 409L55 410L54 409M445 409L446 410L445 409z"/>
<path style="fill:#ffffff; stroke:none;" d="M0 500L0 750L1500 750L1500 500L0 500z"/>
<path style="fill:#393939; stroke:none;" d="M0 750L0 1000L1500 1000L1500 750L0 750z"/>
</svg>
