<?xml version="1.0" standalone="yes"?>
<svg xmlns="http://www.w3.org/2000/svg" width="2000" height="1400">
<path style="fill:#000000; stroke:none;" d="M0 0L0 1400L666 1400L666 0L0 0z"/>
<path style="fill:#121212; stroke:none;" d="M666 0L666 1400C669.507 1391.64 667 1378.06 667 1369L667 1298L667 1053L667 305L667 90L667 28C667 19.7292 669.206 7.6394 666 0z"/>
<path style="fill:#323232; stroke:none;" d="M667 0L667 1400L2000 1400L2000 0L667 0z"/>
<path style="fill:#656565; stroke:none;" d="M1374.67 635.333C1374.22 635.777 1375.28 635.723 1375.33 635.667C1375.78 635.222 1374.72 635.278 1374.67 635.333z"/>
<path style="fill:#969696; stroke:none;" d="M1376.67 635.333C1376.22 635.778 1377.28 635.722 1377.33 635.667C1377.78 635.222 1376.72 635.278 1376.67 635.333z"/>
<path style="fill:#bdbdbd; stroke:none;" d="M1378.67 635.333C1378.22 635.777 1379.28 635.723 1379.33 635.667C1379.78 635.222 1378.72 635.278 1378.67 635.333z"/>
<path style="fill:#d8d8d8; stroke:none;" d="M1380.67 635.333C1380.22 635.778 1381.28 635.722 1381.33 635.667C1381.78 635.222 1380.72 635.278 1380.67 635.333z"/>
<path style="fill:#ffffff; stroke:none;" d="M1443 696L1388 696L1388 716L1408 716C1410.66 716.005 1414.33 715.533 1416.4 717.603C1420.56 721.771 1418.03 731.995 1413.94 735.096C1405.19 741.735 1391.87 745.495 1381 743.535C1344.72 736.994 1339.29 675.689 1371 659.832C1382.29 654.185 1397.23 654.896 1406.96 663.329C1410.32 666.239 1412.58 673.71 1416.42 675.357C1418.64 676.31 1421.74 675.299 1424 674.919C1429.67 673.965 1435.29 672.725 1441 672C1438.53 655.299 1424.97 642.228 1409 637.746C1403.29 636.143 1397.81 636.383 1392 635.83C1380.47 634.734 1367.44 635.736 1357 641.324C1331.1 655.18 1324.22 682.801 1326.09 710C1326.61 717.55 1328.39 726.091 1331.52 733C1345.32 763.447 1382.82 769.846 1412 761.848C1421.23 759.318 1434.08 754.951 1440.68 747.671C1444.11 743.894 1443 737.71 1443 733L1443 696z"/>
<path style="fill:#e4e4e4; stroke:none;" d="M1389 635C1390.77 635.779 1392.04 635.912 1394 636C1392.23 635.221 1390.96 635.088 1389 635z"/>
<path style="fill:#bdbdbd; stroke:none;" d="M1394.67 635.333C1394.22 635.778 1395.28 635.722 1395.33 635.667C1395.78 635.222 1394.72 635.278 1394.67 635.333z"/>
<path style="fill:#9c9c9c; stroke:none;" d="M1396 635C1397.25 635.685 1397.55 635.749 1399 636C1397.75 635.315 1397.45 635.251 1396 635z"/>
<path style="fill:#525252; stroke:none;" d="M1399.67 635.333C1399.22 635.778 1400.28 635.722 1400.33 635.667C1400.78 635.222 1399.72 635.278 1399.67 635.333z"/>
<path style="fill:#808080; stroke:none;" d="M1510 635C1511.25 635.685 1511.55 635.749 1513 636C1511.75 635.315 1511.45 635.251 1510 635z"/>
<path style="fill:#c4c4c4; stroke:none;" d="M1513 635C1514.25 635.685 1514.55 635.749 1516 636C1514.75 635.315 1514.45 635.251 1513 635z"/>
<path style="fill:#ededed; stroke:none;" d="M1516 635C1517.51 635.683 1518.31 635.826 1520 636C1518.49 635.317 1517.69 635.174 1516 635z"/>
<path style="fill:#ffffff; stroke:none;" d="M1520 635.464C1501.82 637.054 1486.54 641.196 1474.33 656C1469.84 661.441 1467.14 668.334 1465.03 675C1457.9 697.504 1460.4 730.06 1477.3 747.829C1490.36 761.565 1510.56 766.592 1529 764.83C1544.65 763.335 1559.44 757.388 1569.67 745C1588.64 722.031 1588.21 676.587 1568.79 654.001C1557.23 640.557 1537.51 633.932 1520 635.464z"/>
<path style="fill:#d3d3d3; stroke:none;" d="M1524 635C1525.77 635.779 1527.04 635.912 1529 636C1527.23 635.221 1525.96 635.088 1524 635z"/>
<path style="fill:#9a9a9a; stroke:none;" d="M1529 635C1530.25 635.685 1530.55 635.749 1532 636C1530.75 635.315 1530.45 635.251 1529 635z"/>
<path style="fill:#525252; stroke:none;" d="M1532.67 635.333C1532.22 635.778 1533.28 635.722 1533.33 635.667C1533.78 635.222 1532.72 635.278 1532.67 635.333z"/>
<path style="fill:#b0b0b0; stroke:none;" d="M1370.67 636.333C1370.22 636.777 1371.28 636.722 1371.33 636.667C1371.78 636.222 1370.72 636.278 1370.67 636.333z"/>
<path style="fill:#9c9c9c; stroke:none;" d="M1403.67 636.333C1403.22 636.777 1404.28 636.723 1404.33 636.667C1404.78 636.222 1403.72 636.278 1403.67 636.333z"/>
<path style="fill:#6e6e6e; stroke:none;" d="M1405 636L1406 637L1405 636M1505 636L1506 637L1505 636z"/>
<path style="fill:#9c9c9c; stroke:none;" d="M1506 636L1507 637L1506 636z"/>
<path style="fill:#9f9f9f; stroke:none;" d="M1536 636C1537.25 636.685 1537.55 636.749 1539 637C1537.75 636.315 1537.45 636.251 1536 636z"/>
<path style="fill:#b7b7b7; stroke:none;" d="M1083 637L1083 763C1086.31 755.121 1084 742.534 1084 734L1084 669L1084 648C1084 644.298 1084.44 640.435 1083 637z"/>
<path style="fill:#ffffff; stroke:none;" d="M1084 637L1084 763L1107 763L1107 681C1120.4 699.436 1131.84 719.688 1143.95 739L1154.05 755C1155.51 757.324 1156.98 760.472 1159.38 761.972C1164.75 765.321 1176.79 763 1183 763L1183 637L1162 637L1162 721C1156.19 715.363 1152.41 706.893 1148.19 700C1140.01 686.652 1131.82 673.307 1123.58 660C1119.75 653.833 1115.16 641.749 1108.79 638.028C1102.96 634.623 1090.64 637 1084 637z"/>
<path style="fill:#b5b5b5; stroke:none;" d="M1109 637L1110 638L1109 637z"/>
<path style="fill:#b7b7b7; stroke:none;" d="M1161 637L1161 691C1161 700.749 1162.27 711.479 1160 721C1164.13 717.394 1162 706.217 1162 701L1162 657C1162 650.846 1163.39 642.707 1161 637z"/>
<path style="fill:#7b7b7b; stroke:none;" d="M1183 637L1183 763C1186.31 755.121 1184 742.534 1184 734L1184 669L1184 648C1184 644.298 1184.44 640.435 1183 637z"/>
<path style="fill:#b7b7b7; stroke:none;" d="M1211 637L1211 763C1214.31 755.121 1212 742.534 1212 734L1212 669L1212 648C1212 644.298 1212.44 640.435 1211 637z"/>
<path style="fill:#ffffff; stroke:none;" d="M1212 637L1212 763L1307 763L1307 742L1237 742L1237 707L1299 707L1299 687L1237 687L1237 658L1305 658L1305 637L1212 637z"/>
<path style="fill:#7b7b7b; stroke:none;" d="M1305 637L1305 658C1307.15 652.869 1307.15 642.131 1305 637z"/>
<path style="fill:#909090; stroke:none;" d="M1366 637L1367 638L1366 637z"/>
<path style="fill:#c8c8c8; stroke:none;" d="M1367 637L1368 638L1367 637z"/>
<path style="fill:#b0b0b0; stroke:none;" d="M1408 637L1409 638L1408 637z"/>
<path style="fill:#707070; stroke:none;" d="M1409 637L1410 638L1409 637z"/>
<path style="fill:#5f5f5f; stroke:none;" d="M1501 637L1502 638L1501 637z"/>
<path style="fill:#9b9b9b; stroke:none;" d="M1502 637L1503 638L1502 637z"/>
<path style="fill:#b1b1b1; stroke:none;" d="M1541 637L1542 638L1541 637z"/>
<path style="fill:#757575; stroke:none;" d="M1542 637L1543 638L1542 637z"/>
<path style="fill:#676767; stroke:none;" d="M1110 638L1111 639L1110 638z"/>
<path style="fill:#a3a3a3; stroke:none;" d="M1363 638L1364 639L1363 638z"/>
<path style="fill:#bebebe; stroke:none;" d="M1411 638L1412 639L1411 638z"/>
<path style="fill:#7e7e7e; stroke:none;" d="M1412 638L1413 639L1412 638z"/>
<path style="fill:#636363; stroke:none;" d="M1498 638L1499 639L1498 638z"/>
<path style="fill:#a7a7a7; stroke:none;" d="M1499 638L1500 639L1499 638z"/>
<path style="fill:#cacaca; stroke:none;" d="M1544 638L1545 639L1544 638z"/>
<path style="fill:#838383; stroke:none;" d="M1545 638L1546 639L1545 638z"/>
<path style="fill:#898989; stroke:none;" d="M1360 639L1361 640L1360 639z"/>
<path style="fill:#a2a2a2; stroke:none;" d="M1414 639L1415 640L1414 639z"/>
<path style="fill:#909090; stroke:none;" d="M1496 639L1497 640L1496 639z"/>
<path style="fill:#bebebe; stroke:none;" d="M1547 639L1548 640L1547 639z"/>
<path style="fill:#6b6b6b; stroke:none;" d="M1548 639L1549 640L1548 639z"/>
<path style="fill:#979797; stroke:none;" d="M1111 640L1112 641L1111 640z"/>
<path style="fill:#a0a0a0; stroke:none;" d="M1358 640L1359 641L1358 640z"/>
<path style="fill:#bfbfbf; stroke:none;" d="M1416 640L1417 641L1416 640z"/>
<path style="fill:#b3b3b3; stroke:none;" d="M1494 640L1495 641L1494 640z"/>
<path style="fill:#8c8c8c; stroke:none;" d="M1550 640L1551 641L1550 640z"/>
<path style="fill:#989898; stroke:none;" d="M1356 641L1357 642L1356 641z"/>
<path style="fill:#aaaaaa; stroke:none;" d="M1418 641L1419 642L1418 641z"/>
<path style="fill:#6e6e6e; stroke:none;" d="M1491 641L1492 642L1491 641z"/>
<path style="fill:#c8c8c8; stroke:none;" d="M1492 641L1493 642L1492 641z"/>
<path style="fill:#979797; stroke:none;" d="M1552 641L1553 642L1552 641z"/>
<path style="fill:#c6c6c6; stroke:none;" d="M1112 642L1113 643L1112 642z"/>
<path style="fill:#6d6d6d; stroke:none;" d="M1354 642L1355 643L1354 642z"/>
<path style="fill:#858585; stroke:none;" d="M1420 642L1421 643L1420 642z"/>
<path style="fill:#5f5f5f; stroke:none;" d="M1489 642L1490 643L1489 642z"/>
<path style="fill:#d2d2d2; stroke:none;" d="M1490 642L1491 643L1490 642z"/>
<path style="fill:#8d8d8d; stroke:none;" d="M1554 642L1555 643L1554 642z"/>
<path style="fill:#787878; stroke:none;" d="M1113 643L1114 644L1113 643z"/>
<path style="fill:#b8b8b8; stroke:none;" d="M1353 643L1354 644L1353 643z"/>
<path style="fill:#bcbcbc; stroke:none;" d="M1421 643L1422 644L1421 643z"/>
<path style="fill:#b0b0b0; stroke:none;" d="M1488 643L1489 644L1488 643z"/>
<path style="fill:#6e6e6e; stroke:none;" d="M1556 643L1557 644L1556 643z"/>
<path style="fill:#6b6b6b; stroke:none;" d="M1351 644L1352 645L1351 644z"/>
<path style="fill:#606060; stroke:none;" d="M1423 644L1424 645L1423 644z"/>
<path style="fill:#8b8b8b; stroke:none;" d="M1486 644L1487 645L1486 644z"/>
<path style="fill:#bdbdbd; stroke:none;" d="M1557 644L1558 645L1557 644z"/>
<path style="fill:#a8a8a8; stroke:none;" d="M1114 645L1115 646L1114 645M1350 645L1351 646L1350 645z"/>
<path style="fill:#949494; stroke:none;" d="M1424 645L1425 646L1424 645z"/>
<path style="fill:#c7c7c7; stroke:none;" d="M1485 645L1486 646L1485 645z"/>
<path style="fill:#6f6f6f; stroke:none;" d="M1559 645L1560 646L1559 645z"/>
<path style="fill:#d2d2d2; stroke:none;" d="M1349 646L1350 647L1349 646z"/>
<path style="fill:#c9c9c9; stroke:none;" d="M1425 646L1426 647L1425 646z"/>
<path style="fill:#5e5e5e; stroke:none;" d="M1483 646L1484 647L1483 646z"/>
<path style="fill:#aaaaaa; stroke:none;" d="M1560 646L1561 647L1560 646z"/>
<path style="fill:#626262; stroke:none;" d="M1347 647L1348 648L1347 647z"/>
<path style="fill:#606060; stroke:none;" d="M1427 647L1428 648L1427 647z"/>
<path style="fill:#777777; stroke:none;" d="M1482 647L1483 648L1482 647z"/>
<path style="fill:#888888; stroke:none;" d="M1116 648L1117 649L1116 648z"/>
<path style="fill:#7d7d7d; stroke:none;" d="M1346 648L1347 649L1346 648z"/>
<path style="fill:#737373; stroke:none;" d="M1428 648L1429 649L1428 648z"/>
<path style="fill:#808080; stroke:none;" d="M1481 648L1482 649L1481 648z"/>
<path style="fill:#767676; stroke:none;" d="M1563 648L1564 649L1563 648z"/>
<path style="fill:#8e8e8e; stroke:none;" d="M1345 649L1346 650L1345 649z"/>
<path style="fill:#878787; stroke:none;" d="M1429 649L1430 650L1429 649z"/>
<path style="fill:#7b7b7b; stroke:none;" d="M1480 649L1481 650L1480 649z"/>
<path style="fill:#909090; stroke:none;" d="M1564 649L1565 650L1564 649z"/>
<path style="fill:#b8b8b8; stroke:none;" d="M1117 650L1118 651L1117 650z"/>
<path style="fill:#9f9f9f; stroke:none;" d="M1344 650L1345 651L1344 650z"/>
<path style="fill:#8e8e8e; stroke:none;" d="M1430 650L1431 651L1430 650z"/>
<path style="fill:#676767; stroke:none;" d="M1479 650L1480 651L1479 650z"/>
<path style="fill:#ababab; stroke:none;" d="M1565 650L1566 651L1565 650z"/>
<path style="fill:#6b6b6b; stroke:none;" d="M1118 651L1119 652L1118 651z"/>
<path style="fill:#a6a6a6; stroke:none;" d="M1343 651L1344 652L1343 651z"/>
<path style="fill:#7c7c7c; stroke:none;" d="M1431 651L1432 652L1431 651z"/>
<path style="fill:#676767; stroke:none;" d="M1478 651L1479 652L1478 651z"/>
<path style="fill:#c4c4c4; stroke:none;" d="M1566 651L1567 652L1566 651z"/>
<path style="fill:#9c9c9c; stroke:none;" d="M1342 652L1343 653L1342 652z"/>
<path style="fill:#717171; stroke:none;" d="M1432 652L1433 653L1432 652M1477 652L1478 653L1477 652z"/>
<path style="fill:#c4c4c4; stroke:none;" d="M1567 652L1568 653L1567 652z"/>
<path style="fill:#9a9a9a; stroke:none;" d="M1119 653L1120 654L1119 653z"/>
<path style="fill:#959595; stroke:none;" d="M1341 653L1342 654L1341 653z"/>
<path style="fill:#727272; stroke:none;" d="M1476 653L1477 654L1476 653z"/>
<path style="fill:#989898; stroke:none;" d="M1568 653L1569 654L1568 653z"/>
<path style="fill:#818181; stroke:none;" d="M1340 654L1341 655L1340 654z"/>
<path style="fill:#6b6b6b; stroke:none;" d="M1475 654L1476 655L1475 654z"/>
<path style="fill:#6c6c6c; stroke:none;" d="M1569 654L1570 655L1569 654z"/>
<path style="fill:#c9c9c9; stroke:none;" d="M1120 655L1121 656L1120 655z"/>
<path style="fill:#636363; stroke:none;" d="M1339 655L1340 656L1339 655z"/>
<path style="fill:#b3b3b3; stroke:none;" d="M1434 655L1435 656L1434 655z"/>
<path style="fill:#5d5d5d; stroke:none;" d="M1474 655L1475 656L1474 655z"/>
<path style="fill:#7b7b7b; stroke:none;" d="M1121 656L1122 657L1121 656z"/>
<path style="fill:#c0c0c0; stroke:none;" d="M1382 656C1385.16 657.327 1388.59 657 1392 657C1388.84 655.673 1385.41 656 1382 656z"/>
<path style="fill:#787878; stroke:none;" d="M1435 656L1436 657L1435 656z"/>
<path style="fill:#c3c3c3; stroke:none;" d="M1517 656C1519.89 657.213 1522.87 656.998 1526 657C1523.11 655.787 1520.13 656.002 1517 656z"/>
<path style="fill:#b3b3b3; stroke:none;" d="M1377 657L1378 658L1377 657z"/>
<path style="fill:#636363; stroke:none;" d="M1378.67 657.333C1378.22 657.777 1379.28 657.723 1379.33 657.667C1379.78 657.222 1378.72 657.278 1378.67 657.333z"/>
<path style="fill:#838383; stroke:none;" d="M1394.67 657.333C1394.22 657.778 1395.28 657.722 1395.33 657.667C1395.78 657.222 1394.72 657.278 1394.67 657.333z"/>
<path style="fill:#b3b3b3; stroke:none;" d="M1396 657L1397 658L1396 657z"/>
<path style="fill:#c8c8c8; stroke:none;" d="M1512 657L1513 658L1512 657z"/>
<path style="fill:#959595; stroke:none;" d="M1513 657L1514 658L1513 657z"/>
<path style="fill:#4c4c4c; stroke:none;" d="M1514.67 657.333C1514.22 657.778 1515.28 657.722 1515.33 657.667C1515.78 657.222 1514.72 657.278 1514.67 657.333z"/>
<path style="fill:#323232; stroke:none;" d="M1516 657.439C1483.48 662.561 1478.71 715.808 1500.17 735.671C1507.93 742.848 1518.9 744.155 1529 742.7C1545.73 740.287 1553.97 725.377 1556.13 710C1559.18 688.329 1553.41 661.107 1528 657.428C1524.04 656.855 1519.96 656.816 1516 657.439z"/>
<path style="fill:#6e6e6e; stroke:none;" d="M1528 657C1529.25 657.685 1529.55 657.749 1531 658C1529.75 657.315 1529.45 657.251 1528 657z"/>
<path style="fill:#c5c5c5; stroke:none;" d="M1531 657L1532 658L1531 657z"/>
<path style="fill:#949494; stroke:none;" d="M1571 657L1572 658L1571 657z"/>
<path style="fill:#acacac; stroke:none;" d="M1122 658L1123 659L1122 658z"/>
<path style="fill:#a7a7a7; stroke:none;" d="M1237 658L1238 659L1237 658z"/>
<path style="fill:#777777; stroke:none;" d="M1238 658C1243.95 660.497 1252.58 659 1259 659L1305 659C1299.05 656.503 1290.42 658 1284 658L1238 658z"/>
<path style="fill:#aaaaaa; stroke:none;" d="M1337 658L1338 659L1337 658z"/>
<path style="fill:#c8c8c8; stroke:none;" d="M1373 658L1374 659L1373 658z"/>
<path style="fill:#828282; stroke:none;" d="M1374 658L1375 659L1374 658z"/>
<path style="fill:#9f9f9f; stroke:none;" d="M1399 658L1400 659L1399 658M1436 658L1437 659L1436 658z"/>
<path style="fill:#a3a3a3; stroke:none;" d="M1472 658L1473 659L1472 658z"/>
<path style="fill:#bbbbbb; stroke:none;" d="M1509 658L1510 659L1509 658z"/>
<path style="fill:#6e6e6e; stroke:none;" d="M1510 658L1511 659L1510 658z"/>
<path style="fill:#9f9f9f; stroke:none;" d="M1534 658L1535 659L1534 658z"/>
<path style="fill:#5e5e5e; stroke:none;" d="M1123 659L1124 660L1123 659z"/>
<path style="fill:#7b7b7b; stroke:none;" d="M1237 659L1237 686C1239.54 679.945 1239.54 665.055 1237 659z"/>
<path style="fill:#717171; stroke:none;" d="M1336 659L1337 660L1336 659z"/>
<path style="fill:#959595; stroke:none;" d="M1371 659L1372 660L1371 659z"/>
<path style="fill:#858585; stroke:none;" d="M1401 659L1402 660L1401 659z"/>
<path style="fill:#6b6b6b; stroke:none;" d="M1471 659L1472 660L1471 659z"/>
<path style="fill:#929292; stroke:none;" d="M1507 659L1508 660L1507 659z"/>
<path style="fill:#626262; stroke:none;" d="M1536 659L1537 660L1536 659z"/>
<path style="fill:#c0c0c0; stroke:none;" d="M1537 659L1538 660L1537 659z"/>
<path style="fill:#cacaca; stroke:none;" d="M1572 659L1573 660L1572 659z"/>
<path style="fill:#898989; stroke:none;" d="M1369 660L1370 661L1369 660z"/>
<path style="fill:#a7a7a7; stroke:none;" d="M1403 660L1404 661L1403 660z"/>
<path style="fill:#b3b3b3; stroke:none;" d="M1437 660L1438 661L1437 660z"/>
<path style="fill:#9b9b9b; stroke:none;" d="M1505 660L1506 661L1505 660z"/>
<path style="fill:#bcbcbc; stroke:none;" d="M1539 660L1540 661L1539 660z"/>
<path style="fill:#808080; stroke:none;" d="M1573 660L1574 661L1573 660z"/>
<path style="fill:#8c8c8c; stroke:none;" d="M1124 661L1125 662L1124 661z"/>
<path style="fill:#c0c0c0; stroke:none;" d="M1335 661L1336 662L1335 661z"/>
<path style="fill:#b3b3b3; stroke:none;" d="M1367 661L1368 662L1367 661z"/>
<path style="fill:#767676; stroke:none;" d="M1404 661L1405 662L1404 661z"/>
<path style="fill:#a0a0a0; stroke:none;" d="M1470 661L1471 662L1470 661z"/>
<path style="fill:#d4d4d4; stroke:none;" d="M1503 661L1504 662L1503 661z"/>
<path style="fill:#6f6f6f; stroke:none;" d="M1540 661L1541 662L1540 661z"/>
<path style="fill:#737373; stroke:none;" d="M1334 662L1335 663L1334 662z"/>
<path style="fill:#6b6b6b; stroke:none;" d="M1366 662L1367 663L1366 662z"/>
<path style="fill:#d4d4d4; stroke:none;" d="M1406 662L1407 663L1406 662z"/>
<path style="fill:#9d9d9d; stroke:none;" d="M1438 662L1439 663L1438 662z"/>
<path style="fill:#9b9b9b; stroke:none;" d="M1502 662L1503 663L1502 662z"/>
<path style="fill:#b6b6b6; stroke:none;" d="M1542 662L1543 663L1542 662z"/>
<path style="fill:#9e9e9e; stroke:none;" d="M1574 662L1575 663L1574 662z"/>
<path style="fill:#bcbcbc; stroke:none;" d="M1125 663L1126 664L1125 663z"/>
<path style="fill:#a0a0a0; stroke:none;" d="M1407 663L1408 664L1407 663z"/>
<path style="fill:#afafaf; stroke:none;" d="M1469 663L1470 664L1469 663z"/>
<path style="fill:#7b7b7b; stroke:none;" d="M1501 663L1502 664L1501 663z"/>
<path style="fill:#979797; stroke:none;" d="M1543 663L1544 664L1543 663z"/>
<path style="fill:#6e6e6e; stroke:none;" d="M1126 664L1127 665L1126 664z"/>
<path style="fill:#a4a4a4; stroke:none;" d="M1333 664L1334 665L1333 664z"/>
<path style="fill:#c4c4c4; stroke:none;" d="M1363 664L1364 665L1363 664z"/>
<path style="fill:#878787; stroke:none;" d="M1408 664L1409 665L1408 664z"/>
<path style="fill:#767676; stroke:none;" d="M1439 664L1440 665L1439 664z"/>
<path style="fill:#696969; stroke:none;" d="M1500 664L1501 665L1500 664z"/>
<path style="fill:#797979; stroke:none;" d="M1544 664L1545 665L1544 664z"/>
<path style="fill:#a0a0a0; stroke:none;" d="M1575 664L1576 665L1575 664z"/>
<path style="fill:#c9c9c9; stroke:none;" d="M1362 665L1363 666L1362 665z"/>
<path style="fill:#878787; stroke:none;" d="M1409 665L1410 666L1409 665z"/>
<path style="fill:#b9b9b9; stroke:none;" d="M1439 665L1440 666L1439 665z"/>
<path style="fill:#9c9c9c; stroke:none;" d="M1468 665L1469 666L1468 665z"/>
<path style="fill:#676767; stroke:none;" d="M1499 665L1500 666L1499 665z"/>
<path style="fill:#7b7b7b; stroke:none;" d="M1545 665L1546 666L1545 665z"/>
<path style="fill:#9d9d9d; stroke:none;" d="M1127 666L1128 667L1127 666z"/>
<path style="fill:#b4b4b4; stroke:none;" d="M1332 666L1333 667L1332 666z"/>
<path style="fill:#d0d0d0; stroke:none;" d="M1361 666L1362 667L1361 666z"/>
<path style="fill:#a2a2a2; stroke:none;" d="M1410 666L1411 667L1410 666z"/>
<path style="fill:#7b7b7b; stroke:none;" d="M1498 666L1499 667L1498 666z"/>
<path style="fill:#878787; stroke:none;" d="M1546 666L1547 667L1546 666z"/>
<path style="fill:#a3a3a3; stroke:none;" d="M1576 666L1577 667L1576 666z"/>
<path style="fill:#727272; stroke:none;" d="M1440 667L1441 668L1440 667z"/>
<path style="fill:#696969; stroke:none;" d="M1467 667L1468 668L1467 667z"/>
<path style="fill:#949494; stroke:none;" d="M1497 667L1498 668L1497 667z"/>
<path style="fill:#a3a3a3; stroke:none;" d="M1547 667L1548 668L1547 667z"/>
<path style="fill:#cccccc; stroke:none;" d="M1128 668L1129 669L1128 668z"/>
<path style="fill:#bcbcbc; stroke:none;" d="M1331 668L1332 669L1331 668z"/>
<path style="fill:#a6a6a6; stroke:none;" d="M1440 668L1441 669L1440 668z"/>
<path style="fill:#b0b0b0; stroke:none;" d="M1467 668L1468 669L1467 668z"/>
<path style="fill:#c0c0c0; stroke:none;" d="M1496 668L1497 669L1496 668z"/>
<path style="fill:#cdcdcd; stroke:none;" d="M1548 668L1549 669L1548 668z"/>
<path style="fill:#838383; stroke:none;" d="M1577 668L1578 669L1577 668z"/>
<path style="fill:#7f7f7f; stroke:none;" d="M1129 669L1130 670L1129 669z"/>
<path style="fill:#acacac; stroke:none;" d="M1412 669L1413 670L1412 669z"/>
<path style="fill:#d4d4d4; stroke:none;" d="M1577 669L1578 670L1577 669z"/>
<path style="fill:#a0a0a0; stroke:none;" d="M1330 670L1331 671L1330 670z"/>
<path style="fill:#8c8c8c; stroke:none;" d="M1466 670L1467 671L1466 670z"/>
<path style="fill:#6d6d6d; stroke:none;" d="M1549 670L1550 671L1549 670z"/>
<path style="fill:#adadad; stroke:none;" d="M1130 671L1131 672L1130 671z"/>
<path style="fill:#969696; stroke:none;" d="M1357 671L1358 672L1357 671z"/>
<path style="fill:#aeaeae; stroke:none;" d="M1413 671L1414 672L1413 671z"/>
<path style="fill:#616161; stroke:none;" d="M1441 671L1442 672L1441 671z"/>
<path style="fill:#a4a4a4; stroke:none;" d="M1494 671L1495 672L1494 671z"/>
<path style="fill:#bbbbbb; stroke:none;" d="M1550 671L1551 672L1550 671z"/>
<path style="fill:#a8a8a8; stroke:none;" d="M1578 671L1579 672L1578 671z"/>
<path style="fill:#616161; stroke:none;" d="M1131 672L1132 673L1131 672z"/>
<path style="fill:#808080; stroke:none;" d="M1329 672L1330 673L1329 672z"/>
<path style="fill:#d2d2d2; stroke:none;" d="M1356 672L1357 673L1356 672z"/>
<path style="fill:#9b9b9b; stroke:none;" d="M1437 672C1438.25 672.685 1438.55 672.749 1440 673C1438.75 672.315 1438.45 672.251 1437 672z"/>
<path style="fill:#646464; stroke:none;" d="M1465 672L1466 673L1465 672z"/>
<path style="fill:#c7c7c7; stroke:none;" d="M1329 673L1330 674L1329 673z"/>
<path style="fill:#ababab; stroke:none;" d="M1431.67 673.333C1431.22 673.778 1432.28 673.722 1432.33 673.667C1432.78 673.222 1431.72 673.278 1431.67 673.333z"/>
<path style="fill:#616161; stroke:none;" d="M1433.67 673.333C1433.22 673.778 1434.28 673.722 1434.33 673.667C1434.78 673.222 1433.72 673.278 1433.67 673.333z"/>
<path style="fill:#ababab; stroke:none;" d="M1465 673L1466 674L1465 673z"/>
<path style="fill:#797979; stroke:none;" d="M1493 673L1494 674L1493 673z"/>
<path style="fill:#939393; stroke:none;" d="M1551 673L1552 674L1551 673z"/>
<path style="fill:#6e6e6e; stroke:none;" d="M1579 673L1580 674L1579 673z"/>
<path style="fill:#909090; stroke:none;" d="M1132 674L1133 675L1132 674z"/>
<path style="fill:#bebebe; stroke:none;" d="M1355 674L1356 675L1355 674z"/>
<path style="fill:#909090; stroke:none;" d="M1414 674L1415 675L1414 674z"/>
<path style="fill:#959595; stroke:none;" d="M1426 674C1427.25 674.685 1427.55 674.749 1429 675C1427.75 674.315 1427.45 674.251 1426 674z"/>
<path style="fill:#ababab; stroke:none;" d="M1579 674L1580 675L1579 674z"/>
<path style="fill:#818181; stroke:none;" d="M1328 675L1329 676L1328 675z"/>
<path style="fill:#a5a5a5; stroke:none;" d="M1420 675C1421.25 675.685 1421.55 675.749 1423 676C1421.75 675.315 1421.45 675.251 1420 675z"/>
<path style="fill:#6a6a6a; stroke:none;" d="M1464 675L1465 676L1464 675z"/>
<path style="fill:#7a7a7a; stroke:none;" d="M1492 675L1493 676L1492 675z"/>
<path style="fill:#959595; stroke:none;" d="M1552 675L1553 676L1552 675z"/>
<path style="fill:#c0c0c0; stroke:none;" d="M1133 676L1134 677L1133 676z"/>
<path style="fill:#c6c6c6; stroke:none;" d="M1328 676L1329 677L1328 676z"/>
<path style="fill:#c0c0c0; stroke:none;" d="M1354 676L1355 677L1354 676z"/>
<path style="fill:#919191; stroke:none;" d="M1415.67 676.333C1415.22 676.777 1416.28 676.723 1416.33 676.667C1416.78 676.222 1415.72 676.278 1415.67 676.333z"/>
<path style="fill:#a4a4a4; stroke:none;" d="M1464 676L1465 677L1464 676z"/>
<path style="fill:#707070; stroke:none;" d="M1134 677L1135 678L1134 677z"/>
<path style="fill:#737373; stroke:none;" d="M1354 677L1355 678L1354 677z"/>
<path style="fill:#878787; stroke:none;" d="M1491 677L1492 678L1491 677z"/>
<path style="fill:#ababab; stroke:none;" d="M1553 677L1554 678L1553 677z"/>
<path style="fill:#8f8f8f; stroke:none;" d="M1580 677L1581 678L1580 677z"/>
<path style="fill:#666666; stroke:none;" d="M1327 678L1328 679L1327 678z"/>
<path style="fill:#5f5f5f; stroke:none;" d="M1553 678L1554 679L1553 678z"/>
<path style="fill:#cbcbcb; stroke:none;" d="M1580 678L1581 679L1580 678z"/>
<path style="fill:#a0a0a0; stroke:none;" d="M1135 679L1136 680L1135 679z"/>
<path style="fill:#9a9a9a; stroke:none;" d="M1327 679L1328 680L1327 679z"/>
<path style="fill:#b2b2b2; stroke:none;" d="M1353 679L1354 680L1353 679z"/>
<path style="fill:#7f7f7f; stroke:none;" d="M1463 679L1464 680L1463 679z"/>
<path style="fill:#bcbcbc; stroke:none;" d="M1490 679L1491 680L1490 679z"/>
<path style="fill:#cccccc; stroke:none;" d="M1327 680L1328 681L1327 680z"/>
<path style="fill:#6f6f6f; stroke:none;" d="M1353 680L1354 681L1353 680z"/>
<path style="fill:#aaaaaa; stroke:none;" d="M1463 680L1464 681L1463 680z"/>
<path style="fill:#707070; stroke:none;" d="M1490 680L1491 681L1490 680z"/>
<path style="fill:#929292; stroke:none;" d="M1554 680L1555 681L1554 680z"/>
<path style="fill:#838383; stroke:none;" d="M1581.33 680.667C1581.28 680.722 1581.22 681.778 1581.67 681.333C1581.72 681.278 1581.78 680.222 1581.33 680.667z"/>
<path style="fill:#c3c3c3; stroke:none;" d="M1107 681L1108 682L1107 681z"/>
<path style="fill:#d0d0d0; stroke:none;" d="M1136 681L1137 682L1136 681z"/>
<path style="fill:#7b7b7b; stroke:none;" d="M1107 682L1107 763C1109.5 757.049 1108 748.42 1108 742L1108 701C1108 695.113 1109.29 687.462 1107 682z"/>
<path style="fill:#c6c6c6; stroke:none;" d="M1108 682L1109 683L1108 682z"/>
<path style="fill:#818181; stroke:none;" d="M1137 682L1138 683L1137 682z"/>
<path style="fill:#c0c0c0; stroke:none;" d="M1489 682L1490 683L1489 682z"/>
<path style="fill:#d5d5d5; stroke:none;" d="M1581.33 682.667C1581.28 682.722 1581.22 683.778 1581.67 683.333C1581.72 683.278 1581.78 682.222 1581.33 682.667z"/>
<path style="fill:#9c9c9c; stroke:none;" d="M1326.33 683.667C1326.28 683.723 1326.22 684.777 1326.67 684.333C1326.72 684.278 1326.78 683.222 1326.33 683.667z"/>
<path style="fill:#adadad; stroke:none;" d="M1352 683L1353 684L1352 683z"/>
<path style="fill:#7f7f7f; stroke:none;" d="M1462.33 683.667C1462.28 683.723 1462.22 684.777 1462.67 684.333C1462.72 684.278 1462.78 683.222 1462.33 683.667z"/>
<path style="fill:#878787; stroke:none;" d="M1489 683L1490 684L1489 683z"/>
<path style="fill:#b1b1b1; stroke:none;" d="M1555 683L1556 684L1555 683z"/>
<path style="fill:#909090; stroke:none;" d="M1109 684L1110 685L1109 684z"/>
<path style="fill:#b1b1b1; stroke:none;" d="M1138 684L1139 685L1138 684z"/>
<path style="fill:#636363; stroke:none;" d="M1352.33 684.667C1352.28 684.723 1352.22 685.777 1352.67 685.333C1352.72 685.278 1352.78 684.222 1352.33 684.667z"/>
<path style="fill:#787878; stroke:none;" d="M1555 684L1556 685L1555 684z"/>
<path style="fill:#646464; stroke:none;" d="M1139 685L1140 686L1139 685z"/>
<path style="fill:#dbdbdb; stroke:none;" d="M1326.33 685.667C1326.28 685.723 1326.22 686.777 1326.67 686.333C1326.72 686.278 1326.78 685.222 1326.33 685.667z"/>
<path style="fill:#c0c0c0; stroke:none;" d="M1462.33 685.667C1462.28 685.723 1462.22 686.777 1462.67 686.333C1462.72 686.278 1462.78 685.222 1462.33 685.667z"/>
<path style="fill:#767676; stroke:none;" d="M1582 685L1582 688C1582.7 686.446 1582.7 686.554 1582 685z"/>
<path style="fill:#bbbbbb; stroke:none;" d="M1237 686C1242.71 688.395 1250.85 687 1257 687L1299 687C1293.29 684.605 1285.15 686 1279 686L1237 686z"/>
<path style="fill:#7b7b7b; stroke:none;" d="M1299 686L1299 708C1301.22 702.713 1301.22 691.287 1299 686z"/>
<path style="fill:#999999; stroke:none;" d="M1488 686L1488 689C1488.7 687.446 1488.7 687.554 1488 686z"/>
<path style="fill:#a6a6a6; stroke:none;" d="M1111 687L1112 688L1111 687z"/>
<path style="fill:#939393; stroke:none;" d="M1140 687L1141 688L1140 687z"/>
<path style="fill:#a4a4a4; stroke:none;" d="M1556.33 687.667C1556.28 687.722 1556.22 688.778 1556.67 688.333C1556.72 688.278 1556.78 687.222 1556.33 687.667z"/>
<path style="fill:#c7c7c7; stroke:none;" d="M1351 688L1351 691C1351.7 689.446 1351.7 689.554 1351 688z"/>
<path style="fill:#bcbcbc; stroke:none;" d="M1582 688L1582 691C1582.7 689.446 1582.7 689.554 1582 688z"/>
<path style="fill:#707070; stroke:none;" d="M1112 689L1113 690L1112 689z"/>
<path style="fill:#c2c2c2; stroke:none;" d="M1141 689L1142 690L1141 689z"/>
<path style="fill:#6c6c6c; stroke:none;" d="M1325 689L1325 692C1325.7 690.446 1325.7 690.554 1325 689z"/>
<path style="fill:#696969; stroke:none;" d="M1556.33 689.667C1556.28 689.722 1556.22 690.778 1556.67 690.333C1556.72 690.278 1556.78 689.222 1556.33 689.667z"/>
<path style="fill:#bbbbbb; stroke:none;" d="M1113 690L1114 691L1113 690z"/>
<path style="fill:#747474; stroke:none;" d="M1142 690L1143 691L1142 690z"/>
<path style="fill:#6a6a6a; stroke:none;" d="M1461.33 690.667C1461.28 690.723 1461.22 691.777 1461.67 691.333C1461.72 691.278 1461.78 690.222 1461.33 690.667z"/>
<path style="fill:#7b7b7b; stroke:none;" d="M1351 691L1351 705C1352.67 701.028 1352.67 694.972 1351 691z"/>
<path style="fill:#cfcfcf; stroke:none;" d="M1487 691L1487 694C1487.7 692.446 1487.7 692.554 1487 691z"/>
<path style="fill:#858585; stroke:none;" d="M1114 692L1115 693L1114 692z"/>
<path style="fill:#a4a4a4; stroke:none;" d="M1143 692L1144 693L1143 692z"/>
<path style="fill:#b7b7b7; stroke:none;" d="M1325 692L1325 705C1326.59 701.209 1326.59 695.791 1325 692z"/>
<path style="fill:#858585; stroke:none;" d="M1461 692L1461 695C1461.7 693.446 1461.7 693.554 1461 692z"/>
<path style="fill:#d0d0d0; stroke:none;" d="M1115 693L1116 694L1115 693z"/>
<path style="fill:#575757; stroke:none;" d="M1583 693L1583 697C1583.71 695.24 1583.71 694.759 1583 693z"/>
<path style="fill:#d1d1d1; stroke:none;" d="M1144 694L1145 695L1144 694z"/>
<path style="fill:#828282; stroke:none;" d="M1487 694L1487 706C1488.51 702.396 1488.51 697.604 1487 694z"/>
<path style="fill:#c8c8c8; stroke:none;" d="M1557 694L1557 705C1558.43 701.59 1558.43 697.41 1557 694z"/>
<path style="fill:#9c9c9c; stroke:none;" d="M1116 695L1117 696L1116 695z"/>
<path style="fill:#858585; stroke:none;" d="M1145 695L1146 696L1145 695z"/>
<path style="fill:#777777; stroke:none;" d="M1387 695C1392.22 697.189 1399.38 696 1405 696L1443 696C1437.78 693.811 1430.62 695 1425 695L1387 695z"/>
<path style="fill:#ababab; stroke:none;" d="M1461 695L1461 707C1462.51 703.396 1462.51 698.604 1461 695z"/>
<path style="fill:#b7b7b7; stroke:none;" d="M1387 696L1387 716C1389.09 711.027 1389.09 700.973 1387 696z"/>
<path style="fill:#7b7b7b; stroke:none;" d="M1443 696L1443 746C1444.77 741.785 1444 736.535 1444 732L1444 709C1444 704.74 1444.66 699.959 1443 696z"/>
<path style="fill:#656565; stroke:none;" d="M1117 697L1118 698L1117 697z"/>
<path style="fill:#b5b5b5; stroke:none;" d="M1146 697L1147 698L1146 697z"/>
<path style="fill:#737373; stroke:none;" d="M1583 697L1583 705C1584.16 702.23 1584.16 699.77 1583 697z"/>
<path style="fill:#b0b0b0; stroke:none;" d="M1118 698L1119 699L1118 698z"/>
<path style="fill:#676767; stroke:none;" d="M1147 698L1148 699L1147 698z"/>
<path style="fill:#7b7b7b; stroke:none;" d="M1119 700L1120 701L1119 700z"/>
<path style="fill:#959595; stroke:none;" d="M1148 700L1149 701L1148 700z"/>
<path style="fill:#c6c6c6; stroke:none;" d="M1120 701L1121 702L1120 701z"/>
<path style="fill:#c5c5c5; stroke:none;" d="M1149 702L1150 703L1149 702z"/>
<path style="fill:#909090; stroke:none;" d="M1121 703L1122 704L1121 703z"/>
<path style="fill:#787878; stroke:none;" d="M1150 703L1151 704L1150 703z"/>
<path style="fill:#a7a7a7; stroke:none;" d="M1151 705L1152 706L1151 705z"/>
<path style="fill:#898989; stroke:none;" d="M1325 705L1325 708C1325.7 706.446 1325.7 706.554 1325 705z"/>
<path style="fill:#acacac; stroke:none;" d="M1351 705L1351 708C1351.7 706.446 1351.7 706.554 1351 705z"/>
<path style="fill:#a6a6a6; stroke:none;" d="M1123 706L1124 707L1123 706z"/>
<path style="fill:#d0d0d0; stroke:none;" d="M1487.33 706.667C1487.28 706.723 1487.22 707.777 1487.67 707.333C1487.72 707.278 1487.78 706.222 1487.33 706.667z"/>
<path style="fill:#d4d4d4; stroke:none;" d="M1152 707L1153 708L1152 707z"/>
<path style="fill:#bbbbbb; stroke:none;" d="M1237 707C1242.71 709.395 1250.85 708 1257 708L1299 708C1293.29 705.605 1285.15 707 1279 707L1237 707z"/>
<path style="fill:#7d7d7d; stroke:none;" d="M1461 707L1461 710C1461.7 708.447 1461.7 708.554 1461 707z"/>
<path style="fill:#616161; stroke:none;" d="M1556 707L1556 710C1556.7 708.446 1556.7 708.554 1556 707z"/>
<path style="fill:#707070; stroke:none;" d="M1124 708L1125 709L1124 708z"/>
<path style="fill:#888888; stroke:none;" d="M1153 708L1154 709L1153 708z"/>
<path style="fill:#7b7b7b; stroke:none;" d="M1237 708L1237 742C1239.8 735.323 1238 725.215 1238 718C1238 714.581 1238.33 711.166 1237 708z"/>
<path style="fill:#595959; stroke:none;" d="M1325.33 708.667C1325.28 708.723 1325.22 709.777 1325.67 709.333C1325.72 709.278 1325.78 708.222 1325.33 708.667z"/>
<path style="fill:#d8d8d8; stroke:none;" d="M1351.33 708.667C1351.28 708.723 1351.22 709.777 1351.67 709.333C1351.72 709.278 1351.78 708.222 1351.33 708.667z"/>
<path style="fill:#bababa; stroke:none;" d="M1125 709L1126 710L1125 709z"/>
<path style="fill:#c8c8c8; stroke:none;" d="M1582 709L1582 712C1582.7 710.446 1582.7 710.554 1582 709z"/>
<path style="fill:#b8b8b8; stroke:none;" d="M1154 710L1155 711L1154 710z"/>
<path style="fill:#bcbcbc; stroke:none;" d="M1556.33 710.667C1556.28 710.722 1556.22 711.778 1556.67 711.333C1556.72 711.278 1556.78 710.222 1556.33 710.667z"/>
<path style="fill:#858585; stroke:none;" d="M1126 711L1127 712L1126 711z"/>
<path style="fill:#696969; stroke:none;" d="M1155 711L1156 712L1155 711z"/>
<path style="fill:#9c9c9c; stroke:none;" d="M1488 711L1488 714C1488.7 712.446 1488.7 712.554 1488 711z"/>
<path style="fill:#d0d0d0; stroke:none;" d="M1127 712L1128 713L1127 712z"/>
<path style="fill:#767676; stroke:none;" d="M1352 712L1352 715C1352.7 713.446 1352.7 713.554 1352 712z"/>
<path style="fill:#818181; stroke:none;" d="M1582 712L1582 715C1582.7 713.446 1582.7 713.554 1582 712z"/>
<path style="fill:#999999; stroke:none;" d="M1156 713L1157 714L1156 713z"/>
<path style="fill:#a8a8a8; stroke:none;" d="M1326.33 713.667C1326.28 713.723 1326.22 714.777 1326.67 714.333C1326.72 714.278 1326.78 713.222 1326.33 713.667z"/>
<path style="fill:#b8b8b8; stroke:none;" d="M1462 713L1462 716C1462.7 714.446 1462.7 714.554 1462 713z"/>
<path style="fill:#9c9c9c; stroke:none;" d="M1128 714L1129 715L1128 714z"/>
<path style="fill:#636363; stroke:none;" d="M1555 714L1556 715L1555 714z"/>
<path style="fill:#c9c9c9; stroke:none;" d="M1157 715L1158 716L1157 715z"/>
<path style="fill:#686868; stroke:none;" d="M1326.33 715.667C1326.28 715.723 1326.22 716.777 1326.67 716.333C1326.72 716.278 1326.78 715.222 1326.33 715.667z"/>
<path style="fill:#c4c4c4; stroke:none;" d="M1352 715L1353 716L1352 715z"/>
<path style="fill:#969696; stroke:none;" d="M1555 715L1556 716L1555 715z"/>
<path style="fill:#656565; stroke:none;" d="M1129 716L1130 717L1129 716z"/>
<path style="fill:#7a7a7a; stroke:none;" d="M1158 716L1159 717L1158 716z"/>
<path style="fill:#8b8b8b; stroke:none;" d="M1387 716L1388 717L1387 716z"/>
<path style="fill:#bbbbbb; stroke:none;" d="M1388 716C1395.89 719.31 1408.45 717 1417 717C1409.11 713.69 1396.55 716 1388 716z"/>
<path style="fill:#717171; stroke:none;" d="M1462 716L1463 717L1462 716z"/>
<path style="fill:#8c8c8c; stroke:none;" d="M1489 716L1490 717L1489 716z"/>
<path style="fill:#cecece; stroke:none;" d="M1555 716L1556 717L1555 716z"/>
<path style="fill:#b0b0b0; stroke:none;" d="M1130 717L1131 718L1130 717z"/>
<path style="fill:#b7b7b7; stroke:none;" d="M1417 717L1417 733C1418.81 728.681 1418.81 721.319 1417 717z"/>
<path style="fill:#c4c4c4; stroke:none;" d="M1489 717L1490 718L1489 717z"/>
<path style="fill:#969696; stroke:none;" d="M1581.33 717.667C1581.28 717.722 1581.22 718.778 1581.67 718.333C1581.72 718.278 1581.78 717.222 1581.33 717.667z"/>
<path style="fill:#aaaaaa; stroke:none;" d="M1159 718L1160 719L1159 718z"/>
<path style="fill:#808080; stroke:none;" d="M1353 718L1354 719L1353 718z"/>
<path style="fill:#717171; stroke:none;" d="M1554 718L1555 719L1554 718z"/>
<path style="fill:#7b7b7b; stroke:none;" d="M1131 719L1132 720L1131 719z"/>
<path style="fill:#5e5e5e; stroke:none;" d="M1160 719L1161 720L1160 719z"/>
<path style="fill:#969696; stroke:none;" d="M1327.33 719.667C1327.28 719.722 1327.22 720.778 1327.67 720.333C1327.72 720.278 1327.78 719.222 1327.33 719.667z"/>
<path style="fill:#c2c2c2; stroke:none;" d="M1353 719L1354 720L1353 719z"/>
<path style="fill:#959595; stroke:none;" d="M1463.33 719.667C1463.28 719.722 1463.22 720.778 1463.67 720.333C1463.72 720.278 1463.78 719.222 1463.33 719.667z"/>
<path style="fill:#777777; stroke:none;" d="M1490 719L1491 720L1490 719z"/>
<path style="fill:#b4b4b4; stroke:none;" d="M1554 719L1555 720L1554 719z"/>
<path style="fill:#c6c6c6; stroke:none;" d="M1132 720L1133 721L1132 720z"/>
<path style="fill:#c2c2c2; stroke:none;" d="M1490 720L1491 721L1490 720z"/>
<path style="fill:#6a6a6a; stroke:none;" d="M1327 721L1328 722L1327 721z"/>
<path style="fill:#7b7b7b; stroke:none;" d="M1354 721L1355 722L1354 721z"/>
<path style="fill:#6a6a6a; stroke:none;" d="M1463 721L1464 722L1463 721z"/>
<path style="fill:#7d7d7d; stroke:none;" d="M1553 721L1554 722L1553 721z"/>
<path style="fill:#909090; stroke:none;" d="M1133 722L1134 723L1133 722z"/>
<path style="fill:#c3c3c3; stroke:none;" d="M1354 722L1355 723L1354 722z"/>
<path style="fill:#8e8e8e; stroke:none;" d="M1491 722L1492 723L1491 722z"/>
<path style="fill:#c9c9c9; stroke:none;" d="M1553 722L1554 723L1553 722z"/>
<path style="fill:#a7a7a7; stroke:none;" d="M1580 722L1581 723L1580 722z"/>
<path style="fill:#d1d1d1; stroke:none;" d="M1328 723L1329 724L1328 723z"/>
<path style="fill:#bfbfbf; stroke:none;" d="M1464 723L1465 724L1464 723z"/>
<path style="fill:#6b6b6b; stroke:none;" d="M1580 723L1581 724L1580 723z"/>
<path style="fill:#9d9d9d; stroke:none;" d="M1328 724L1329 725L1328 724z"/>
<path style="fill:#b6b6b6; stroke:none;" d="M1355 724L1356 725L1355 724z"/>
<path style="fill:#838383; stroke:none;" d="M1464 724L1465 725L1464 724z"/>
<path style="fill:#7e7e7e; stroke:none;" d="M1492 724L1493 725L1492 724z"/>
<path style="fill:#b5b5b5; stroke:none;" d="M1552 724L1553 725L1552 724z"/>
<path style="fill:#a6a6a6; stroke:none;" d="M1135 725L1136 726L1135 725z"/>
<path style="fill:#676767; stroke:none;" d="M1328 725L1329 726L1328 725z"/>
<path style="fill:#bfbfbf; stroke:none;" d="M1579 725L1580 726L1579 725z"/>
<path style="fill:#b8b8b8; stroke:none;" d="M1356 726L1357 727L1356 726z"/>
<path style="fill:#d3d3d3; stroke:none;" d="M1465 726L1466 727L1465 726z"/>
<path style="fill:#787878; stroke:none;" d="M1493 726L1494 727L1493 726z"/>
<path style="fill:#adadad; stroke:none;" d="M1551 726L1552 727L1551 726z"/>
<path style="fill:#838383; stroke:none;" d="M1579 726L1580 727L1579 726z"/>
<path style="fill:#707070; stroke:none;" d="M1136 727L1137 728L1136 727z"/>
<path style="fill:#b8b8b8; stroke:none;" d="M1329 727L1330 728L1329 727z"/>
<path style="fill:#6a6a6a; stroke:none;" d="M1357 727L1358 728L1357 727z"/>
<path style="fill:#979797; stroke:none;" d="M1465 727L1466 728L1465 727z"/>
<path style="fill:#bababa; stroke:none;" d="M1137 728L1138 729L1137 728z"/>
<path style="fill:#7b7b7b; stroke:none;" d="M1329 728L1330 729L1329 728z"/>
<path style="fill:#9b9b9b; stroke:none;" d="M1494 728L1495 729L1494 728z"/>
<path style="fill:#d1d1d1; stroke:none;" d="M1550 728L1551 729L1550 728z"/>
<path style="fill:#c2c2c2; stroke:none;" d="M1578 728L1579 729L1578 728z"/>
<path style="fill:#c3c3c3; stroke:none;" d="M1358 729L1359 730L1358 729z"/>
<path style="fill:#c4c4c4; stroke:none;" d="M1466 729L1467 730L1466 729z"/>
<path style="fill:#808080; stroke:none;" d="M1549 729L1550 730L1549 729z"/>
<path style="fill:#6f6f6f; stroke:none;" d="M1578 729L1579 730L1578 729z"/>
<path style="fill:#858585; stroke:none;" d="M1138 730L1139 731L1138 730z"/>
<path style="fill:#bebebe; stroke:none;" d="M1330 730L1331 731L1330 730z"/>
<path style="fill:#a3a3a3; stroke:none;" d="M1359 730L1360 731L1359 730z"/>
<path style="fill:#707070; stroke:none;" d="M1466 730L1467 731L1466 730z"/>
<path style="fill:#d1d1d1; stroke:none;" d="M1495 730L1496 731L1495 730z"/>
<path style="fill:#d0d0d0; stroke:none;" d="M1139 731L1140 732L1139 731z"/>
<path style="fill:#757575; stroke:none;" d="M1330 731L1331 732L1330 731z"/>
<path style="fill:#989898; stroke:none;" d="M1360 731L1361 732L1360 731z"/>
<path style="fill:#999999; stroke:none;" d="M1496 731L1497 732L1496 731z"/>
<path style="fill:#d4d4d4; stroke:none;" d="M1548 731L1549 732L1548 731z"/>
<path style="fill:#999999; stroke:none;" d="M1577 731L1578 732L1577 731z"/>
<path style="fill:#939393; stroke:none;" d="M1361 732L1362 733L1361 732z"/>
<path style="fill:#979797; stroke:none;" d="M1467 732L1468 733L1467 732z"/>
<path style="fill:#626262; stroke:none;" d="M1497 732L1498 733L1497 732z"/>
<path style="fill:#a3a3a3; stroke:none;" d="M1547 732L1548 733L1547 732z"/>
<path style="fill:#9c9c9c; stroke:none;" d="M1140 733L1141 734L1140 733z"/>
<path style="fill:#a3a3a3; stroke:none;" d="M1331 733L1332 734L1331 733z"/>
<path style="fill:#7b7b7b; stroke:none;" d="M1362 733L1363 734L1362 733z"/>
<path style="fill:#8f8f8f; stroke:none;" d="M1416 733L1417 734L1416 733z"/>
<path style="fill:#878787; stroke:none;" d="M1546 733L1547 734L1546 733z"/>
<path style="fill:#bdbdbd; stroke:none;" d="M1576 733L1577 734L1576 733z"/>
<path style="fill:#676767; stroke:none;" d="M1363 734L1364 735L1363 734z"/>
<path style="fill:#d4d4d4; stroke:none;" d="M1415 734L1416 735L1415 734z"/>
<path style="fill:#a5a5a5; stroke:none;" d="M1468 734L1469 735L1468 734z"/>
<path style="fill:#7b7b7b; stroke:none;" d="M1545 734L1546 735L1545 734z"/>
<path style="fill:#656565; stroke:none;" d="M1141 735L1142 736L1141 735z"/>
<path style="fill:#737373; stroke:none;" d="M1332 735L1333 736L1332 735z"/>
<path style="fill:#686868; stroke:none;" d="M1364 735L1365 736L1364 735z"/>
<path style="fill:#9e9e9e; stroke:none;" d="M1413 735L1414 736L1413 735z"/>
<path style="fill:#777777; stroke:none;" d="M1544 735L1545 736L1544 735z"/>
<path style="fill:#b8b8b8; stroke:none;" d="M1575 735L1576 736L1575 735z"/>
<path style="fill:#b0b0b0; stroke:none;" d="M1142 736L1143 737L1142 736z"/>
<path style="fill:#c1c1c1; stroke:none;" d="M1333 736L1334 737L1333 736z"/>
<path style="fill:#787878; stroke:none;" d="M1365 736L1366 737L1365 736z"/>
<path style="fill:#6f6f6f; stroke:none;" d="M1411 736L1412 737L1411 736z"/>
<path style="fill:#9d9d9d; stroke:none;" d="M1469 736L1470 737L1469 736z"/>
<path style="fill:#919191; stroke:none;" d="M1543 736L1544 737L1543 736z"/>
<path style="fill:#979797; stroke:none;" d="M1366 737L1367 738L1366 737z"/>
<path style="fill:#5e5e5e; stroke:none;" d="M1409 737L1410 738L1409 737z"/>
<path style="fill:#c8c8c8; stroke:none;" d="M1410 737L1411 738L1410 737z"/>
<path style="fill:#757575; stroke:none;" d="M1502 737L1503 738L1502 737z"/>
<path style="fill:#aeaeae; stroke:none;" d="M1542 737L1543 738L1542 737z"/>
<path style="fill:#b3b3b3; stroke:none;" d="M1574 737L1575 738L1574 737z"/>
<path style="fill:#7b7b7b; stroke:none;" d="M1143 738L1144 739L1143 738z"/>
<path style="fill:#767676; stroke:none;" d="M1334 738L1335 739L1334 738z"/>
<path style="fill:#d1d1d1; stroke:none;" d="M1367 738L1368 739L1367 738z"/>
<path style="fill:#bdbdbd; stroke:none;" d="M1408 738L1409 739L1408 738z"/>
<path style="fill:#939393; stroke:none;" d="M1470 738L1471 739L1470 738z"/>
<path style="fill:#b2b2b2; stroke:none;" d="M1503 738L1504 739L1503 738z"/>
<path style="fill:#636363; stroke:none;" d="M1540 738L1541 739L1540 738z"/>
<path style="fill:#c6c6c6; stroke:none;" d="M1144 739L1145 740L1144 739z"/>
<path style="fill:#b2b2b2; stroke:none;" d="M1335 739L1336 740L1335 739z"/>
<path style="fill:#939393; stroke:none;" d="M1369 739L1370 740L1369 739z"/>
<path style="fill:#6b6b6b; stroke:none;" d="M1405 739L1406 740L1405 739z"/>
<path style="fill:#c4c4c4; stroke:none;" d="M1406 739L1407 740L1406 739z"/>
<path style="fill:#767676; stroke:none;" d="M1505 739L1506 740L1505 739z"/>
<path style="fill:#a9a9a9; stroke:none;" d="M1539 739L1540 740L1539 739z"/>
<path style="fill:#969696; stroke:none;" d="M1573 739L1574 740L1573 739z"/>
<path style="fill:#8b8b8b; stroke:none;" d="M1371 740L1372 741L1371 740z"/>
<path style="fill:#878787; stroke:none;" d="M1403 740L1404 741L1403 740z"/>
<path style="fill:#5e5e5e; stroke:none;" d="M1471 740L1472 741L1471 740z"/>
<path style="fill:#d4d4d4; stroke:none;" d="M1506 740L1507 741L1506 740z"/>
<path style="fill:#686868; stroke:none;" d="M1507 740L1508 741L1507 740z"/>
<path style="fill:#a3a3a3; stroke:none;" d="M1537 740L1538 741L1537 740z"/>
<path style="fill:#909090; stroke:none;" d="M1145 741L1146 742L1145 741z"/>
<path style="fill:#afafaf; stroke:none;" d="M1373 741L1374 742L1373 741z"/>
<path style="fill:#646464; stroke:none;" d="M1374 741L1375 742L1374 741z"/>
<path style="fill:#8d8d8d; stroke:none;" d="M1400 741L1401 742L1400 741z"/>
<path style="fill:#cdcdcd; stroke:none;" d="M1401 741L1402 742L1401 741z"/>
<path style="fill:#a3a3a3; stroke:none;" d="M1472 741L1473 742L1472 741z"/>
<path style="fill:#8d8d8d; stroke:none;" d="M1509 741L1510 742L1509 741z"/>
<path style="fill:#777777; stroke:none;" d="M1534 741L1535 742L1534 741z"/>
<path style="fill:#c0c0c0; stroke:none;" d="M1535 741L1536 742L1535 741z"/>
<path style="fill:#5d5d5d; stroke:none;" d="M1572 741L1573 742L1572 741z"/>
<path style="fill:#7b7b7b; stroke:none;" d="M1307 742L1307 763C1309.15 757.869 1309.15 747.131 1307 742z"/>
<path style="fill:#777777; stroke:none;" d="M1337 742L1338 743L1337 742z"/>
<path style="fill:#b6b6b6; stroke:none;" d="M1376 742L1377 743L1376 742z"/>
<path style="fill:#858585; stroke:none;" d="M1377 742L1378 743L1377 742z"/>
<path style="fill:#7e7e7e; stroke:none;" d="M1396 742L1397 743L1396 742z"/>
<path style="fill:#b0b0b0; stroke:none;" d="M1397 742L1398 743L1397 742z"/>
<path style="fill:#c8c8c8; stroke:none;" d="M1511 742L1512 743L1511 742z"/>
<path style="fill:#939393; stroke:none;" d="M1512 742L1513 743L1512 742z"/>
<path style="fill:#626262; stroke:none;" d="M1530 742L1531 743L1530 742z"/>
<path style="fill:#929292; stroke:none;" d="M1531 742L1532 743L1531 742z"/>
<path style="fill:#c3c3c3; stroke:none;" d="M1532 742L1533 743L1532 742z"/>
<path style="fill:#a3a3a3; stroke:none;" d="M1571 742L1572 743L1571 742z"/>
<path style="fill:#a1a1a1; stroke:none;" d="M1338 743L1339 744L1338 743z"/>
<path style="fill:#c3c3c3; stroke:none;" d="M1380.67 743.333C1380.22 743.778 1381.28 743.722 1381.33 743.667C1381.78 743.222 1380.72 743.278 1380.67 743.333z"/>
<path style="fill:#959595; stroke:none;" d="M1382 743C1383.25 743.685 1383.55 743.749 1385 744C1383.75 743.315 1383.45 743.251 1382 743z"/>
<path style="fill:#7d7d7d; stroke:none;" d="M1385 743C1387.33 743.985 1389.46 743.981 1392 744C1389.67 743.016 1387.54 743.019 1385 743z"/>
<path style="fill:#d8d8d8; stroke:none;" d="M1392.67 743.333C1392.22 743.778 1393.28 743.722 1393.33 743.667C1393.78 743.222 1392.72 743.278 1392.67 743.333z"/>
<path style="fill:#656565; stroke:none;" d="M1473 743L1474 744L1473 743z"/>
<path style="fill:#bebebe; stroke:none;" d="M1515.67 743.333C1515.22 743.777 1516.28 743.722 1516.33 743.667C1516.78 743.222 1515.72 743.278 1515.67 743.333z"/>
<path style="fill:#7f7f7f; stroke:none;" d="M1517 743C1519.33 743.984 1521.46 743.981 1524 744C1521.67 743.016 1519.54 743.019 1517 743z"/>
<path style="fill:#999999; stroke:none;" d="M1524 743C1525.25 743.685 1525.55 743.749 1527 744C1525.75 743.315 1525.45 743.251 1524 743z"/>
<path style="fill:#e6e6e6; stroke:none;" d="M1527.67 743.333C1527.22 743.778 1528.28 743.722 1528.33 743.667C1528.78 743.222 1527.72 743.278 1527.67 743.333z"/>
<path style="fill:#a6a6a6; stroke:none;" d="M1147 744L1148 745L1147 744z"/>
<path style="fill:#c0c0c0; stroke:none;" d="M1339 744L1340 745L1339 744z"/>
<path style="fill:#909090; stroke:none;" d="M1474 744L1475 745L1474 744z"/>
<path style="fill:#cccccc; stroke:none;" d="M1340 745L1341 746L1340 745z"/>
<path style="fill:#bababa; stroke:none;" d="M1475 745L1476 746L1475 745z"/>
<path style="fill:#757575; stroke:none;" d="M1569 745L1570 746L1569 745z"/>
<path style="fill:#707070; stroke:none;" d="M1148 746L1149 747L1148 746z"/>
<path style="fill:#b2b2b2; stroke:none;" d="M1442 746L1443 747L1442 746z"/>
<path style="fill:#9e9e9e; stroke:none;" d="M1568 746L1569 747L1568 746z"/>
<path style="fill:#bababa; stroke:none;" d="M1149 747L1150 748L1149 747z"/>
<path style="fill:#808080; stroke:none;" d="M1441 747L1442 748L1441 747z"/>
<path style="fill:#c6c6c6; stroke:none;" d="M1567 747L1568 748L1567 747M1566 748L1567 749L1566 748z"/>
<path style="fill:#858585; stroke:none;" d="M1150 749L1151 750L1150 749z"/>
<path style="fill:#b3b3b3; stroke:none;" d="M1438 749L1439 750L1438 749M1565 749L1566 750L1565 749z"/>
<path style="fill:#d0d0d0; stroke:none;" d="M1151 750L1152 751L1151 750z"/>
<path style="fill:#d4d4d4; stroke:none;" d="M1345 750L1346 751L1345 750z"/>
<path style="fill:#6c6c6c; stroke:none;" d="M1437 750L1438 751L1437 750z"/>
<path style="fill:#d2d2d2; stroke:none;" d="M1480 750L1481 751L1480 750z"/>
<path style="fill:#9c9c9c; stroke:none;" d="M1564 750L1565 751L1564 750z"/>
<path style="fill:#c4c4c4; stroke:none;" d="M1346 751L1347 752L1346 751z"/>
<path style="fill:#a0a0a0; stroke:none;" d="M1435 751L1436 752L1435 751z"/>
<path style="fill:#c0c0c0; stroke:none;" d="M1481 751L1482 752L1481 751z"/>
<path style="fill:#868686; stroke:none;" d="M1563 751L1564 752L1563 751z"/>
<path style="fill:#9c9c9c; stroke:none;" d="M1152 752L1153 753L1152 752z"/>
<path style="fill:#aeaeae; stroke:none;" d="M1347 752L1348 753L1347 752z"/>
<path style="fill:#d2d2d2; stroke:none;" d="M1433 752L1434 753L1433 752z"/>
<path style="fill:#9e9e9e; stroke:none;" d="M1482 752L1483 753L1482 752z"/>
<path style="fill:#6a6a6a; stroke:none;" d="M1562 752L1563 753L1562 752z"/>
<path style="fill:#868686; stroke:none;" d="M1348 753L1349 754L1348 753z"/>
<path style="fill:#808080; stroke:none;" d="M1432 753L1433 754L1432 753z"/>
<path style="fill:#6f6f6f; stroke:none;" d="M1483 753L1484 754L1483 753z"/>
<path style="fill:#c7c7c7; stroke:none;" d="M1560 753L1561 754L1560 753z"/>
<path style="fill:#656565; stroke:none;" d="M1153 754L1154 755L1153 754z"/>
<path style="fill:#616161; stroke:none;" d="M1349 754L1350 755L1349 754z"/>
<path style="fill:#8a8a8a; stroke:none;" d="M1430 754L1431 755L1430 754z"/>
<path style="fill:#cacaca; stroke:none;" d="M1485 754L1486 755L1485 754z"/>
<path style="fill:#929292; stroke:none;" d="M1559 754L1560 755L1559 754z"/>
<path style="fill:#b0b0b0; stroke:none;" d="M1154 755L1155 756L1154 755z"/>
<path style="fill:#c0c0c0; stroke:none;" d="M1351 755L1352 756L1351 755z"/>
<path style="fill:#939393; stroke:none;" d="M1428 755L1429 756L1428 755z"/>
<path style="fill:#8c8c8c; stroke:none;" d="M1486 755L1487 756L1486 755z"/>
<path style="fill:#5f5f5f; stroke:none;" d="M1558 755L1559 756L1558 755z"/>
<path style="fill:#878787; stroke:none;" d="M1352 756L1353 757L1352 756z"/>
<path style="fill:#9b9b9b; stroke:none;" d="M1426 756L1427 757L1426 756z"/>
<path style="fill:#c1c1c1; stroke:none;" d="M1488 756L1489 757L1488 756z"/>
<path style="fill:#9c9c9c; stroke:none;" d="M1556 756L1557 757L1556 756z"/>
<path style="fill:#7b7b7b; stroke:none;" d="M1155 757L1156 758L1155 757z"/>
<path style="fill:#adadad; stroke:none;" d="M1354 757L1355 758L1354 757z"/>
<path style="fill:#848484; stroke:none;" d="M1424 757L1425 758L1424 757z"/>
<path style="fill:#6e6e6e; stroke:none;" d="M1489 757L1490 758L1489 757z"/>
<path style="fill:#c4c4c4; stroke:none;" d="M1554 757L1555 758L1554 757z"/>
<path style="fill:#c6c6c6; stroke:none;" d="M1156 758L1157 759L1156 758z"/>
<path style="fill:#b3b3b3; stroke:none;" d="M1356 758L1357 759L1356 758z"/>
<path style="fill:#c5c5c5; stroke:none;" d="M1421 758L1422 759L1421 758z"/>
<path style="fill:#6b6b6b; stroke:none;" d="M1422 758L1423 759L1422 758z"/>
<path style="fill:#828282; stroke:none;" d="M1491 758L1492 759L1491 758z"/>
<path style="fill:#d4d4d4; stroke:none;" d="M1552 758L1553 759L1552 758z"/>
<path style="fill:#666666; stroke:none;" d="M1553 758L1554 759L1553 758z"/>
<path style="fill:#a1a1a1; stroke:none;" d="M1358 759L1359 760L1358 759z"/>
<path style="fill:#acacac; stroke:none;" d="M1419 759L1420 760L1419 759z"/>
<path style="fill:#808080; stroke:none;" d="M1493 759L1494 760L1493 759z"/>
<path style="fill:#d0d0d0; stroke:none;" d="M1550 759L1551 760L1550 759z"/>
<path style="fill:#6d6d6d; stroke:none;" d="M1551 759L1552 760L1551 759z"/>
<path style="fill:#909090; stroke:none;" d="M1157 760L1158 761L1157 760z"/>
<path style="fill:#828282; stroke:none;" d="M1360 760L1361 761L1360 760z"/>
<path style="fill:#d4d4d4; stroke:none;" d="M1361 760L1362 761L1361 760z"/>
<path style="fill:#b5b5b5; stroke:none;" d="M1416 760L1417 761L1416 760z"/>
<path style="fill:#6f6f6f; stroke:none;" d="M1417 760L1418 761L1417 760z"/>
<path style="fill:#6b6b6b; stroke:none;" d="M1495 760L1496 761L1495 760z"/>
<path style="fill:#c0c0c0; stroke:none;" d="M1496 760L1497 761L1496 760z"/>
<path style="fill:#b7b7b7; stroke:none;" d="M1548 760L1549 761L1548 760z"/>
<path style="fill:#5f5f5f; stroke:none;" d="M1549 760L1550 761L1549 760z"/>
<path style="fill:#929292; stroke:none;" d="M1363 761L1364 762L1363 761z"/>
<path style="fill:#ababab; stroke:none;" d="M1413 761L1414 762L1413 761z"/>
<path style="fill:#6c6c6c; stroke:none;" d="M1414 761L1415 762L1414 761z"/>
<path style="fill:#8f8f8f; stroke:none;" d="M1498 761L1499 762L1498 761z"/>
<path style="fill:#8c8c8c; stroke:none;" d="M1546 761L1547 762L1546 761z"/>
<path style="fill:#858585; stroke:none;" d="M1366 762L1367 763L1366 762z"/>
<path style="fill:#bcbcbc; stroke:none;" d="M1367 762L1368 763L1367 762z"/>
<path style="fill:#c1c1c1; stroke:none;" d="M1409 762L1410 763L1409 762z"/>
<path style="fill:#8c8c8c; stroke:none;" d="M1410 762L1411 763L1410 762z"/>
<path style="fill:#8b8b8b; stroke:none;" d="M1501 762L1502 763L1501 762z"/>
<path style="fill:#c7c7c7; stroke:none;" d="M1502 762L1503 763L1502 762z"/>
<path style="fill:#cfcfcf; stroke:none;" d="M1542 762L1543 763L1542 762z"/>
<path style="fill:#909090; stroke:none;" d="M1543 762L1544 763L1543 762z"/>
<path style="fill:#777777; stroke:none;" d="M1083 763C1089.69 765.806 1099.77 764 1107 764C1100.31 761.194 1090.23 763 1083 763M1159 763C1165.69 765.806 1175.77 764 1183 764C1176.31 761.194 1166.23 763 1159 763M1211 763C1218.88 766.306 1231.47 764 1240 764L1307 764C1299.12 760.694 1286.53 763 1278 763L1211 763z"/>
<path style="fill:#b0b0b0; stroke:none;" d="M1370.67 763.333C1370.22 763.778 1371.28 763.722 1371.33 763.667C1371.78 763.222 1370.72 763.278 1370.67 763.333z"/>
<path style="fill:#b1b1b1; stroke:none;" d="M1405 763L1406 764L1405 763z"/>
<path style="fill:#858585; stroke:none;" d="M1406 763L1407 764L1406 763z"/>
<path style="fill:#636363; stroke:none;" d="M1504 763L1505 764L1504 763z"/>
<path style="fill:#969696; stroke:none;" d="M1505 763L1506 764L1505 763z"/>
<path style="fill:#d1d1d1; stroke:none;" d="M1538 763L1539 764L1538 763z"/>
<path style="fill:#a4a4a4; stroke:none;" d="M1539 763L1540 764L1539 763z"/>
<path style="fill:#6f6f6f; stroke:none;" d="M1540 763L1541 764L1540 763z"/>
<path style="fill:#767676; stroke:none;" d="M1374 764C1375.25 764.685 1375.55 764.749 1377 765C1375.75 764.315 1375.45 764.251 1374 764z"/>
<path style="fill:#c8c8c8; stroke:none;" d="M1377.67 764.333C1377.22 764.777 1378.28 764.722 1378.33 764.667C1378.78 764.222 1377.72 764.278 1377.67 764.333z"/>
<path style="fill:#b3b3b3; stroke:none;" d="M1398 764C1399.25 764.685 1399.55 764.749 1401 765C1399.75 764.315 1399.45 764.251 1398 764z"/>
<path style="fill:#575757; stroke:none;" d="M1401.67 764.333C1401.22 764.777 1402.28 764.723 1402.33 764.667C1402.78 764.222 1401.72 764.278 1401.67 764.333z"/>
<path style="fill:#838383; stroke:none;" d="M1509 764C1510.25 764.685 1510.55 764.749 1512 765C1510.75 764.315 1510.45 764.251 1509 764z"/>
<path style="fill:#cccccc; stroke:none;" d="M1512.67 764.333C1512.22 764.777 1513.28 764.723 1513.33 764.667C1513.78 764.222 1512.72 764.278 1512.67 764.333z"/>
<path style="fill:#c7c7c7; stroke:none;" d="M1531 764C1532.25 764.685 1532.55 764.749 1534 765C1532.75 764.315 1532.45 764.251 1531 764z"/>
<path style="fill:#787878; stroke:none;" d="M1534 764C1535.25 764.685 1535.55 764.749 1537 765C1535.75 764.315 1535.45 764.251 1534 764z"/>
<path style="fill:#696969; stroke:none;" d="M1383 765C1386.43 766.44 1390.3 766 1394 766C1390.57 764.56 1386.7 765 1383 765z"/>
<path style="fill:#5f5f5f; stroke:none;" d="M1516 765C1517.77 765.779 1519.04 765.912 1521 766C1519.23 765.221 1517.96 765.088 1516 765z"/>
<path style="fill:#707070; stroke:none;" d="M1521 765C1522.77 765.779 1524.04 765.912 1526 766C1524.23 765.221 1522.96 765.088 1521 765z"/>
<path style="fill:#525252; stroke:none;" d="M1526 765C1527.25 765.685 1527.55 765.749 1529 766C1527.75 765.315 1527.45 765.251 1526 765z"/>
</svg>
