<?xml version="1.0" standalone="yes"?>
<svg xmlns="http://www.w3.org/2000/svg" width="1280" height="853">
<path style="fill:#8a8a8a; stroke:none;" d="M0 0L0 639C5.80653 636.799 10.8503 632.766 16 629.333L43 611.333L129 554C218.995 494.003 309.335 434.489 399 374C394.504 369.081 388.396 365.471 383 361.576C372.32 353.864 361.591 346.205 351 338.371C346.019 334.687 340.289 331.461 336 327L427 327L455 327C459.45 327 464.685 327.733 469 326.49C477.382 324.077 485.784 316.144 493 311.333L544 277.333L580 253.333C584.913 250.058 592.468 246.74 595.722 241.674C597.881 238.314 598.746 233.762 600 230C602.768 221.695 605.259 213.308 608.001 205C614.927 184.016 621.931 163.049 628.656 142C632.269 130.691 635.181 118.871 640 108C645.249 119.841 648.258 132.728 652.333 145C657.697 161.149 664.163 177.417 668 194C680.69 187.997 692.305 178.426 704 170.667C725.311 156.53 746.717 142.522 768 128.333C831.663 85.8912 895.571 43.7908 959 1C952.081 -1.90326 941.48 0 934 0L877 0L681 0L0 0z"/>
<path style="fill:#ffffff; stroke:none;" d="M944 327C937.81 333.439 929.245 338.194 922 343.424L882 372.424C839.908 402.819 798.209 433.768 756 464L782 544C795.378 539.737 808.341 527.773 820 520L898 468L1151 299.333L1243 238L1268 221.333C1271.52 218.989 1276.82 216.605 1278.97 212.816C1281.55 208.289 1280 200.06 1280 195L1280 154L1280 0L1051 0L986 0C977.771 0 965.574 -2.24133 958 1.27777C949.566 5.19672 941.734 11.8442 934 17L888 47.6667L746 142.333L691 179L677 188.333C674.663 189.899 671.39 191.525 670.121 194.184C668.799 196.955 670.451 200.338 671.333 203C673.644 209.976 675.677 217.03 678 224C686.311 248.938 694.345 273.964 702.344 299C704.375 305.357 706.553 311.67 708.667 318C709.519 320.551 710.159 324.322 712.51 325.972C716.412 328.712 725.414 327 730 327L774 327L944 327z"/>
<path style="fill:#c1c1c1; stroke:none;" d="M639 108C634.462 127.614 626.494 146.826 620.344 166C609.109 201.031 597.966 236.101 586.333 271C581.787 284.638 577.546 298.361 573 312C571.601 316.197 570.489 324.376 566.581 326.972C562.511 329.677 553.714 328 549 328L505 328L337 328C342.202 333.856 349.642 338.156 356 342.71C365.703 349.659 375.297 356.761 385 363.71C415.143 385.298 445.138 407.141 475 429.116C486.263 437.404 497.631 445.568 509 453.71C512.657 456.329 520.854 460.289 522.454 464.669C523.943 468.743 519.312 477.063 518 481C513.345 494.966 508.99 509.029 504.333 523C492.812 557.563 482.188 592.436 470.667 627C466.788 638.637 463.207 650.368 459.333 662C456.956 669.138 453.658 676.468 453 684C469.36 675.862 484.188 662.119 499 651.424C529.045 629.731 559.152 608.08 589 586.116C600.962 577.313 612.927 568.51 625 559.86C628.81 557.129 635.107 550.461 640 550.455C644.999 550.449 651.175 557.06 655 559.849C666.966 568.574 679.072 577.107 691 585.884C721.522 608.344 752.191 630.645 783 652.71C797.234 662.904 811.333 676.197 827 684C826.109 673.798 821.1 663.585 817.692 654C812.57 639.591 807.926 624.614 803.347 610C792.781 576.279 782.184 542.553 771 509C766.04 494.12 762.359 478.347 756 464C765.27 459.388 773.719 452.071 782 445.873C793.545 437.232 805.308 428.866 817 420.424C859.071 390.048 900.855 359.274 943 329C938.031 326.915 931.35 328 926 328L891 328L769 328L729 328C724.721 328 717.132 329.439 713.419 326.972C709.878 324.62 708.927 317.782 707.667 314C703.787 302.361 700.212 290.637 696.333 279C682.366 237.098 669.301 194.902 655.333 153C651.787 142.361 648.546 131.638 645 121C643.563 116.689 642.734 110.804 639 108z"/>
<path style="fill:#b5b5b5; stroke:none;" d="M708 167L709 168L708 167z"/>
<path style="fill:#b9b9b9; stroke:none;" d="M705 169L706 170L705 169M702 171L703 172L702 171M699 173L700 174L699 173M696 175L697 176L696 175M693 177L694 178L693 177M690 179L691 180L690 179M687 181L688 182L687 181M684 183L685 184L684 183M681 185L682 186L681 185M678 187L679 188L678 187M675 189L676 190L675 189M672 191L673 192L672 191M669 193L670 194L669 193z"/>
<path style="fill:#bdbdbd; stroke:none;" d="M1279 213L1280 214L1279 213z"/>
<path style="fill:#5e5e5e; stroke:none;" d="M1280 685L1280 214C1266.24 219.215 1253.24 230.84 1241 239L1163 291L915 456.333L821 519L795 536.333C791.685 538.543 786.106 540.96 784.068 544.518C782.447 547.348 784.416 551.234 785.333 554C787.761 561.32 790.408 568.598 792.576 576C800.257 602.232 809.863 627.899 817.974 654C820.156 661.021 822.34 668.022 824.667 675C825.58 677.738 826.253 682.135 828.702 683.972C831.046 685.73 835.26 685 838 685L860 685L947 685L1280 685z"/>
<path style="fill:#bfbfbf; stroke:none;" d="M1276 215L1277 216L1276 215M1273 217L1274 218L1273 217M1270 219L1271 220L1270 219M1267 221L1268 222L1267 221M1264 223L1265 224L1264 223M1261 225L1262 226L1261 225M1258 227L1259 228L1258 227M1255 229L1256 230L1255 229M1252 231L1253 232L1252 231M1249 233L1250 234L1249 233M1246 235L1247 236L1246 235M1243 237L1244 238L1243 237M1240 239L1241 240L1240 239M1237 241L1238 242L1237 241z"/>
<path style="fill:#e2e2e2; stroke:none;" d="M594.667 243.333C594.222 243.778 595.278 243.722 595.333 243.667C595.778 243.222 594.722 243.278 594.667 243.333z"/>
<path style="fill:#bfbfbf; stroke:none;" d="M1234 243L1235 244L1234 243z"/>
<path style="fill:#ffffff; stroke:none;" d="M471 327L541 327L559 327C561.598 326.999 565.231 327.558 567.49 325.972C572.207 322.66 573.901 310.297 575.667 305C582.343 284.972 590.282 264.58 595 244C584.681 247.911 575.168 256.221 566 262.333L511 299L486 315.667C480.83 319.114 474.98 322.184 471 327z"/>
<path style="fill:#b9b9b9; stroke:none;" d="M591 245L592 246L591 245z"/>
<path style="fill:#bfbfbf; stroke:none;" d="M1231 245L1232 246L1231 245z"/>
<path style="fill:#b9b9b9; stroke:none;" d="M588 247L589 248L588 247z"/>
<path style="fill:#bfbfbf; stroke:none;" d="M1228 247L1229 248L1228 247z"/>
<path style="fill:#b9b9b9; stroke:none;" d="M585 249L586 250L585 249z"/>
<path style="fill:#bfbfbf; stroke:none;" d="M1225 249L1226 250L1225 249z"/>
<path style="fill:#b9b9b9; stroke:none;" d="M582 251L583 252L582 251z"/>
<path style="fill:#bfbfbf; stroke:none;" d="M1222 251L1223 252L1222 251z"/>
<path style="fill:#b9b9b9; stroke:none;" d="M579 253L580 254L579 253z"/>
<path style="fill:#bfbfbf; stroke:none;" d="M1219 253L1220 254L1219 253z"/>
<path style="fill:#b9b9b9; stroke:none;" d="M576 255L577 256L576 255z"/>
<path style="fill:#bfbfbf; stroke:none;" d="M1216 255L1217 256L1216 255z"/>
<path style="fill:#b9b9b9; stroke:none;" d="M573 257L574 258L573 257z"/>
<path style="fill:#bfbfbf; stroke:none;" d="M1213 257L1214 258L1213 257z"/>
<path style="fill:#b9b9b9; stroke:none;" d="M570 259L571 260L570 259z"/>
<path style="fill:#bfbfbf; stroke:none;" d="M1210 259L1211 260L1210 259z"/>
<path style="fill:#b9b9b9; stroke:none;" d="M567 261L568 262L567 261z"/>
<path style="fill:#bfbfbf; stroke:none;" d="M1207 261L1208 262L1207 261z"/>
<path style="fill:#b9b9b9; stroke:none;" d="M564 263L565 264L564 263z"/>
<path style="fill:#bfbfbf; stroke:none;" d="M1204 263L1205 264L1204 263z"/>
<path style="fill:#b9b9b9; stroke:none;" d="M561 265L562 266L561 265z"/>
<path style="fill:#bfbfbf; stroke:none;" d="M1201 265L1202 266L1201 265z"/>
<path style="fill:#b9b9b9; stroke:none;" d="M558 267L559 268L558 267z"/>
<path style="fill:#bfbfbf; stroke:none;" d="M1198 267L1199 268L1198 267z"/>
<path style="fill:#b9b9b9; stroke:none;" d="M555 269L556 270L555 269z"/>
<path style="fill:#bfbfbf; stroke:none;" d="M1195 269L1196 270L1195 269z"/>
<path style="fill:#b9b9b9; stroke:none;" d="M552 271L553 272L552 271z"/>
<path style="fill:#bfbfbf; stroke:none;" d="M1192 271L1193 272L1192 271z"/>
<path style="fill:#b9b9b9; stroke:none;" d="M549 273L550 274L549 273z"/>
<path style="fill:#bfbfbf; stroke:none;" d="M1189 273L1190 274L1189 273z"/>
<path style="fill:#b9b9b9; stroke:none;" d="M546 275L547 276L546 275z"/>
<path style="fill:#bfbfbf; stroke:none;" d="M1186 275L1187 276L1186 275z"/>
<path style="fill:#b9b9b9; stroke:none;" d="M543 277L544 278L543 277z"/>
<path style="fill:#bfbfbf; stroke:none;" d="M1183 277L1184 278L1183 277z"/>
<path style="fill:#b9b9b9; stroke:none;" d="M540 279L541 280L540 279z"/>
<path style="fill:#bfbfbf; stroke:none;" d="M1180 279L1181 280L1180 279z"/>
<path style="fill:#b9b9b9; stroke:none;" d="M537 281L538 282L537 281z"/>
<path style="fill:#bfbfbf; stroke:none;" d="M1177 281L1178 282L1177 281z"/>
<path style="fill:#b9b9b9; stroke:none;" d="M534 283L535 284L534 283z"/>
<path style="fill:#bfbfbf; stroke:none;" d="M1174 283L1175 284L1174 283z"/>
<path style="fill:#b9b9b9; stroke:none;" d="M531 285L532 286L531 285z"/>
<path style="fill:#bfbfbf; stroke:none;" d="M1171 285L1172 286L1171 285z"/>
<path style="fill:#b9b9b9; stroke:none;" d="M528 287L529 288L528 287z"/>
<path style="fill:#bfbfbf; stroke:none;" d="M1168 287L1169 288L1168 287z"/>
<path style="fill:#b9b9b9; stroke:none;" d="M525 289L526 290L525 289z"/>
<path style="fill:#bfbfbf; stroke:none;" d="M1165 289L1166 290L1165 289z"/>
<path style="fill:#b9b9b9; stroke:none;" d="M522 291L523 292L522 291z"/>
<path style="fill:#bfbfbf; stroke:none;" d="M1162 291L1163 292L1162 291z"/>
<path style="fill:#b9b9b9; stroke:none;" d="M519 293L520 294L519 293z"/>
<path style="fill:#bfbfbf; stroke:none;" d="M1159 293L1160 294L1159 293z"/>
<path style="fill:#b9b9b9; stroke:none;" d="M516 295L517 296L516 295z"/>
<path style="fill:#bfbfbf; stroke:none;" d="M1156 295L1157 296L1156 295z"/>
<path style="fill:#b9b9b9; stroke:none;" d="M513 297L514 298L513 297z"/>
<path style="fill:#bfbfbf; stroke:none;" d="M1153 297L1154 298L1153 297z"/>
<path style="fill:#b9b9b9; stroke:none;" d="M510 299L511 300L510 299z"/>
<path style="fill:#bfbfbf; stroke:none;" d="M1150 299L1151 300L1150 299z"/>
<path style="fill:#b9b9b9; stroke:none;" d="M507 301L508 302L507 301z"/>
<path style="fill:#bfbfbf; stroke:none;" d="M1147 301L1148 302L1147 301z"/>
<path style="fill:#b9b9b9; stroke:none;" d="M504 303L505 304L504 303z"/>
<path style="fill:#bfbfbf; stroke:none;" d="M1144 303L1145 304L1144 303z"/>
<path style="fill:#b9b9b9; stroke:none;" d="M501 305L502 306L501 305z"/>
<path style="fill:#bfbfbf; stroke:none;" d="M1141 305L1142 306L1141 305z"/>
<path style="fill:#b9b9b9; stroke:none;" d="M498 307L499 308L498 307z"/>
<path style="fill:#bfbfbf; stroke:none;" d="M1138 307L1139 308L1138 307z"/>
<path style="fill:#b9b9b9; stroke:none;" d="M495 309L496 310L495 309z"/>
<path style="fill:#bfbfbf; stroke:none;" d="M1135 309L1136 310L1135 309z"/>
<path style="fill:#b9b9b9; stroke:none;" d="M492 311L493 312L492 311z"/>
<path style="fill:#bfbfbf; stroke:none;" d="M1132 311L1133 312L1132 311z"/>
<path style="fill:#b9b9b9; stroke:none;" d="M489 313L490 314L489 313z"/>
<path style="fill:#bfbfbf; stroke:none;" d="M1129 313L1130 314L1129 313z"/>
<path style="fill:#b9b9b9; stroke:none;" d="M486 315L487 316L486 315z"/>
<path style="fill:#bfbfbf; stroke:none;" d="M1126 315L1127 316L1126 315z"/>
<path style="fill:#b9b9b9; stroke:none;" d="M483 317L484 318L483 317z"/>
<path style="fill:#bfbfbf; stroke:none;" d="M1123 317L1124 318L1123 317z"/>
<path style="fill:#b9b9b9; stroke:none;" d="M480 319L481 320L480 319z"/>
<path style="fill:#bfbfbf; stroke:none;" d="M1120 319L1121 320L1120 319z"/>
<path style="fill:#b9b9b9; stroke:none;" d="M477 321L478 322L477 321z"/>
<path style="fill:#bfbfbf; stroke:none;" d="M1117 321L1118 322L1117 321z"/>
<path style="fill:#b9b9b9; stroke:none;" d="M474 323L475 324L474 323z"/>
<path style="fill:#bfbfbf; stroke:none;" d="M1114 323L1115 324L1114 323z"/>
<path style="fill:#b9b9b9; stroke:none;" d="M471 325L472 326L471 325z"/>
<path style="fill:#bfbfbf; stroke:none;" d="M1111 325L1112 326L1111 325z"/>
<path style="fill:#efefef; stroke:none;" d="M469 327C477.118 330.407 490.203 328 499 328L568 328C559.882 324.593 546.797 327 538 327L492 327C484.457 327 476.456 326.18 469 327z"/>
<path style="fill:#999999; stroke:none;" d="M336 329C349.976 325.673 366.66 328 381 328L468 328C459.643 324.493 446.06 327 437 327L367 327L345 327C341.683 327.002 338.276 326.396 336 329z"/>
<path style="fill:#efefef; stroke:none;" d="M712 327C717.462 329.292 725.113 328 731 328L772 328L887 328L922 328C929.281 328 936.88 327.305 944 329C940.914 325.469 933.411 327 929 327L886 327L712 327z"/>
<path style="fill:#bfbfbf; stroke:none;" d="M1108 327L1109 328L1108 327M1105 329L1106 330L1105 329M1102 331L1103 332L1102 331M1099 333L1100 334L1099 333M1096 335L1097 336L1096 335M1093 337L1094 338L1093 337z"/>
<path style="fill:#b5b5b5; stroke:none;" d="M1090 339L1091 340L1090 339M1087 341L1088 342L1087 341M1084 343L1085 344L1084 343M1081 345L1082 346L1081 345M1078 347L1079 348L1078 347M1075 349L1076 350L1075 349M1072 351L1073 352L1072 351M1069 353L1070 354L1069 353M1066 355L1067 356L1066 355M1063 357L1064 358L1063 357M1060 359L1061 360L1060 359M1057 361L1058 362L1057 361M1054 363L1055 364L1054 363M1051 365L1052 366L1051 365M1048 367L1049 368L1048 367M1045 369L1046 370L1045 369M1042 371L1043 372L1042 371M1039 373L1040 374L1039 373z"/>
<path style="fill:#ffffff; stroke:none;" d="M0 685L323 685L414 685L439 685C442.381 685 447.464 685.924 450.581 684.397C452.919 683.251 453.566 680.249 454.333 677.999C456.147 672.679 457.895 667.335 459.667 662C467.063 639.729 473.911 617.266 481.333 595C491.534 564.399 501.141 533.607 511.333 503C514.209 494.365 516.787 485.638 519.667 477C520.791 473.626 523.495 468.71 522.879 465.093C522.323 461.831 518.415 459.898 516 458.116C508.708 452.734 501.367 447.419 494 442.14C473.241 427.266 452.569 412.251 432 397.116C425.031 391.988 418.033 386.899 411 381.86C407.966 379.686 404.596 376.43 401 375.272C397.6 374.178 394.689 376.564 392 378.334C385.978 382.3 380 386.334 374 390.333L299 440.333L84 583.667L25 623L9 633.667C6.28786 635.477 2.69553 637.253 1.02778 640.184C-1.07631 643.882 0 649.896 0 654L0 685z"/>
<path style="fill:#c1c1c1; stroke:none;" d="M396 375L397 376L396 375z"/>
<path style="fill:#b5b5b5; stroke:none;" d="M1036 375L1037 376L1036 375z"/>
<path style="fill:#c1c1c1; stroke:none;" d="M393 377L394 378L393 377z"/>
<path style="fill:#b5b5b5; stroke:none;" d="M1033 377L1034 378L1033 377z"/>
<path style="fill:#c1c1c1; stroke:none;" d="M390 379L391 380L390 379z"/>
<path style="fill:#b5b5b5; stroke:none;" d="M1030 379L1031 380L1030 379z"/>
<path style="fill:#c1c1c1; stroke:none;" d="M387 381L388 382L387 381z"/>
<path style="fill:#b5b5b5; stroke:none;" d="M1027 381L1028 382L1027 381z"/>
<path style="fill:#c1c1c1; stroke:none;" d="M384 383L385 384L384 383z"/>
<path style="fill:#b5b5b5; stroke:none;" d="M1024 383L1025 384L1024 383z"/>
<path style="fill:#c1c1c1; stroke:none;" d="M381 385L382 386L381 385z"/>
<path style="fill:#b5b5b5; stroke:none;" d="M1021 385L1022 386L1021 385z"/>
<path style="fill:#c1c1c1; stroke:none;" d="M378 387L379 388L378 387z"/>
<path style="fill:#b5b5b5; stroke:none;" d="M1018 387L1019 388L1018 387z"/>
<path style="fill:#c1c1c1; stroke:none;" d="M375 389L376 390L375 389z"/>
<path style="fill:#b5b5b5; stroke:none;" d="M1015 389L1016 390L1015 389z"/>
<path style="fill:#c1c1c1; stroke:none;" d="M372 391L373 392L372 391z"/>
<path style="fill:#b5b5b5; stroke:none;" d="M1012 391L1013 392L1012 391z"/>
<path style="fill:#c1c1c1; stroke:none;" d="M369 393L370 394L369 393z"/>
<path style="fill:#b5b5b5; stroke:none;" d="M1009 393L1010 394L1009 393z"/>
<path style="fill:#c1c1c1; stroke:none;" d="M366 395L367 396L366 395z"/>
<path style="fill:#b5b5b5; stroke:none;" d="M1006 395L1007 396L1006 395z"/>
<path style="fill:#c1c1c1; stroke:none;" d="M363 397L364 398L363 397z"/>
<path style="fill:#b5b5b5; stroke:none;" d="M1003 397L1004 398L1003 397z"/>
<path style="fill:#c1c1c1; stroke:none;" d="M360 399L361 400L360 399z"/>
<path style="fill:#b5b5b5; stroke:none;" d="M1000 399L1001 400L1000 399z"/>
<path style="fill:#c1c1c1; stroke:none;" d="M357 401L358 402L357 401z"/>
<path style="fill:#b5b5b5; stroke:none;" d="M997 401L998 402L997 401z"/>
<path style="fill:#c1c1c1; stroke:none;" d="M354 403L355 404L354 403z"/>
<path style="fill:#b5b5b5; stroke:none;" d="M994 403L995 404L994 403z"/>
<path style="fill:#c1c1c1; stroke:none;" d="M351 405L352 406L351 405z"/>
<path style="fill:#b5b5b5; stroke:none;" d="M991 405L992 406L991 405z"/>
<path style="fill:#c1c1c1; stroke:none;" d="M348 407L349 408L348 407z"/>
<path style="fill:#b5b5b5; stroke:none;" d="M988 407L989 408L988 407z"/>
<path style="fill:#c1c1c1; stroke:none;" d="M345 409L346 410L345 409z"/>
<path style="fill:#b5b5b5; stroke:none;" d="M985 409L986 410L985 409z"/>
<path style="fill:#c1c1c1; stroke:none;" d="M342 411L343 412L342 411z"/>
<path style="fill:#b5b5b5; stroke:none;" d="M982 411L983 412L982 411z"/>
<path style="fill:#c1c1c1; stroke:none;" d="M339 413L340 414L339 413z"/>
<path style="fill:#b5b5b5; stroke:none;" d="M979 413L980 414L979 413z"/>
<path style="fill:#c1c1c1; stroke:none;" d="M336 415L337 416L336 415z"/>
<path style="fill:#b5b5b5; stroke:none;" d="M976 415L977 416L976 415z"/>
<path style="fill:#c1c1c1; stroke:none;" d="M333 417L334 418L333 417z"/>
<path style="fill:#b5b5b5; stroke:none;" d="M973 417L974 418L973 417z"/>
<path style="fill:#c1c1c1; stroke:none;" d="M330 419L331 420L330 419z"/>
<path style="fill:#b5b5b5; stroke:none;" d="M970 419L971 420L970 419z"/>
<path style="fill:#c1c1c1; stroke:none;" d="M327 421L328 422L327 421z"/>
<path style="fill:#b5b5b5; stroke:none;" d="M967 421L968 422L967 421z"/>
<path style="fill:#c1c1c1; stroke:none;" d="M324 423L325 424L324 423z"/>
<path style="fill:#b5b5b5; stroke:none;" d="M964 423L965 424L964 423z"/>
<path style="fill:#c1c1c1; stroke:none;" d="M321 425L322 426L321 425z"/>
<path style="fill:#b5b5b5; stroke:none;" d="M961 425L962 426L961 425z"/>
<path style="fill:#c1c1c1; stroke:none;" d="M318 427L319 428L318 427z"/>
<path style="fill:#b5b5b5; stroke:none;" d="M958 427L959 428L958 427z"/>
<path style="fill:#c1c1c1; stroke:none;" d="M315 429L316 430L315 429z"/>
<path style="fill:#b5b5b5; stroke:none;" d="M955 429L956 430L955 429z"/>
<path style="fill:#c1c1c1; stroke:none;" d="M312 431L313 432L312 431z"/>
<path style="fill:#b5b5b5; stroke:none;" d="M952 431L953 432L952 431z"/>
<path style="fill:#c1c1c1; stroke:none;" d="M309 433L310 434L309 433z"/>
<path style="fill:#b5b5b5; stroke:none;" d="M949 433L950 434L949 433z"/>
<path style="fill:#c1c1c1; stroke:none;" d="M306 435L307 436L306 435z"/>
<path style="fill:#b5b5b5; stroke:none;" d="M946 435L947 436L946 435z"/>
<path style="fill:#c1c1c1; stroke:none;" d="M303 437L304 438L303 437z"/>
<path style="fill:#b5b5b5; stroke:none;" d="M943 437L944 438L943 437z"/>
<path style="fill:#c1c1c1; stroke:none;" d="M300 439L301 440L300 439z"/>
<path style="fill:#b5b5b5; stroke:none;" d="M940 439L941 440L940 439z"/>
<path style="fill:#c1c1c1; stroke:none;" d="M297 441L298 442L297 441z"/>
<path style="fill:#b5b5b5; stroke:none;" d="M937 441L938 442L937 441z"/>
<path style="fill:#c1c1c1; stroke:none;" d="M294 443L295 444L294 443z"/>
<path style="fill:#b5b5b5; stroke:none;" d="M934 443L935 444L934 443z"/>
<path style="fill:#c1c1c1; stroke:none;" d="M291 445L292 446L291 445z"/>
<path style="fill:#b5b5b5; stroke:none;" d="M931 445L932 446L931 445z"/>
<path style="fill:#c1c1c1; stroke:none;" d="M288 447L289 448L288 447z"/>
<path style="fill:#b5b5b5; stroke:none;" d="M928 447L929 448L928 447z"/>
<path style="fill:#c1c1c1; stroke:none;" d="M285 449L286 450L285 449z"/>
<path style="fill:#b5b5b5; stroke:none;" d="M925 449L926 450L925 449z"/>
<path style="fill:#c1c1c1; stroke:none;" d="M282 451L283 452L282 451z"/>
<path style="fill:#b5b5b5; stroke:none;" d="M922 451L923 452L922 451z"/>
<path style="fill:#c1c1c1; stroke:none;" d="M279 453L280 454L279 453z"/>
<path style="fill:#b5b5b5; stroke:none;" d="M919 453L920 454L919 453z"/>
<path style="fill:#c1c1c1; stroke:none;" d="M276 455L277 456L276 455z"/>
<path style="fill:#b5b5b5; stroke:none;" d="M916 455L917 456L916 455z"/>
<path style="fill:#c1c1c1; stroke:none;" d="M273 457L274 458L273 457z"/>
<path style="fill:#b5b5b5; stroke:none;" d="M913 457L914 458L913 457z"/>
<path style="fill:#c1c1c1; stroke:none;" d="M270 459L271 460L270 459z"/>
<path style="fill:#b5b5b5; stroke:none;" d="M910 459L911 460L910 459z"/>
<path style="fill:#c1c1c1; stroke:none;" d="M267 461L268 462L267 461z"/>
<path style="fill:#b5b5b5; stroke:none;" d="M907 461L908 462L907 461z"/>
<path style="fill:#c1c1c1; stroke:none;" d="M264 463L265 464L264 463z"/>
<path style="fill:#b5b5b5; stroke:none;" d="M904 463L905 464L904 463z"/>
<path style="fill:#c1c1c1; stroke:none;" d="M261 465L262 466L261 465z"/>
<path style="fill:#b5b5b5; stroke:none;" d="M901 465L902 466L901 465z"/>
<path style="fill:#c1c1c1; stroke:none;" d="M258 467L259 468L258 467z"/>
<path style="fill:#b5b5b5; stroke:none;" d="M898 467L899 468L898 467z"/>
<path style="fill:#c1c1c1; stroke:none;" d="M255 469L256 470L255 469z"/>
<path style="fill:#b5b5b5; stroke:none;" d="M895 469L896 470L895 469z"/>
<path style="fill:#c1c1c1; stroke:none;" d="M252 471L253 472L252 471z"/>
<path style="fill:#b5b5b5; stroke:none;" d="M892 471L893 472L892 471z"/>
<path style="fill:#c1c1c1; stroke:none;" d="M249 473L250 474L249 473z"/>
<path style="fill:#b5b5b5; stroke:none;" d="M889 473L890 474L889 473z"/>
<path style="fill:#c1c1c1; stroke:none;" d="M246 475L247 476L246 475z"/>
<path style="fill:#b5b5b5; stroke:none;" d="M886 475L887 476L886 475z"/>
<path style="fill:#c1c1c1; stroke:none;" d="M243 477L244 478L243 477z"/>
<path style="fill:#b5b5b5; stroke:none;" d="M883 477L884 478L883 477z"/>
<path style="fill:#c1c1c1; stroke:none;" d="M240 479L241 480L240 479z"/>
<path style="fill:#b5b5b5; stroke:none;" d="M880 479L881 480L880 479z"/>
<path style="fill:#c1c1c1; stroke:none;" d="M237 481L238 482L237 481z"/>
<path style="fill:#b5b5b5; stroke:none;" d="M877 481L878 482L877 481z"/>
<path style="fill:#c1c1c1; stroke:none;" d="M234 483L235 484L234 483z"/>
<path style="fill:#b5b5b5; stroke:none;" d="M874 483L875 484L874 483z"/>
<path style="fill:#c1c1c1; stroke:none;" d="M231 485L232 486L231 485z"/>
<path style="fill:#b5b5b5; stroke:none;" d="M871 485L872 486L871 485z"/>
<path style="fill:#c1c1c1; stroke:none;" d="M228 487L229 488L228 487z"/>
<path style="fill:#b5b5b5; stroke:none;" d="M868 487L869 488L868 487z"/>
<path style="fill:#c1c1c1; stroke:none;" d="M225 489L226 490L225 489z"/>
<path style="fill:#b5b5b5; stroke:none;" d="M865 489L866 490L865 489z"/>
<path style="fill:#c1c1c1; stroke:none;" d="M222 491L223 492L222 491z"/>
<path style="fill:#b5b5b5; stroke:none;" d="M862 491L863 492L862 491z"/>
<path style="fill:#c1c1c1; stroke:none;" d="M219 493L220 494L219 493z"/>
<path style="fill:#b5b5b5; stroke:none;" d="M859 493L860 494L859 493z"/>
<path style="fill:#c1c1c1; stroke:none;" d="M216 495L217 496L216 495z"/>
<path style="fill:#b5b5b5; stroke:none;" d="M856 495L857 496L856 495z"/>
<path style="fill:#c1c1c1; stroke:none;" d="M213 497L214 498L213 497z"/>
<path style="fill:#b5b5b5; stroke:none;" d="M853 497L854 498L853 497z"/>
<path style="fill:#c1c1c1; stroke:none;" d="M210 499L211 500L210 499z"/>
<path style="fill:#b5b5b5; stroke:none;" d="M850 499L851 500L850 499z"/>
<path style="fill:#c1c1c1; stroke:none;" d="M207 501L208 502L207 501z"/>
<path style="fill:#b5b5b5; stroke:none;" d="M847 501L848 502L847 501z"/>
<path style="fill:#c1c1c1; stroke:none;" d="M204 503L205 504L204 503z"/>
<path style="fill:#b5b5b5; stroke:none;" d="M844 503L845 504L844 503z"/>
<path style="fill:#c1c1c1; stroke:none;" d="M201 505L202 506L201 505z"/>
<path style="fill:#b5b5b5; stroke:none;" d="M841 505L842 506L841 505z"/>
<path style="fill:#c1c1c1; stroke:none;" d="M198 507L199 508L198 507z"/>
<path style="fill:#b5b5b5; stroke:none;" d="M838 507L839 508L838 507z"/>
<path style="fill:#c9c9c9; stroke:none;" d="M195 509L196 510L195 509z"/>
<path style="fill:#aaaaaa; stroke:none;" d="M835 509L836 510L835 509z"/>
<path style="fill:#c9c9c9; stroke:none;" d="M192 511L193 512L192 511z"/>
<path style="fill:#aaaaaa; stroke:none;" d="M832 511L833 512L832 511z"/>
<path style="fill:#c9c9c9; stroke:none;" d="M189 513L190 514L189 513z"/>
<path style="fill:#aaaaaa; stroke:none;" d="M829 513L830 514L829 513z"/>
<path style="fill:#c9c9c9; stroke:none;" d="M186 515L187 516L186 515z"/>
<path style="fill:#aaaaaa; stroke:none;" d="M826 515L827 516L826 515z"/>
<path style="fill:#c9c9c9; stroke:none;" d="M183 517L184 518L183 517z"/>
<path style="fill:#aaaaaa; stroke:none;" d="M823 517L824 518L823 517z"/>
<path style="fill:#c9c9c9; stroke:none;" d="M180 519L181 520L180 519z"/>
<path style="fill:#aaaaaa; stroke:none;" d="M820 519L821 520L820 519z"/>
<path style="fill:#c9c9c9; stroke:none;" d="M177 521L178 522L177 521z"/>
<path style="fill:#aaaaaa; stroke:none;" d="M817 521L818 522L817 521z"/>
<path style="fill:#c9c9c9; stroke:none;" d="M174 523L175 524L174 523z"/>
<path style="fill:#aaaaaa; stroke:none;" d="M814 523L815 524L814 523z"/>
<path style="fill:#c9c9c9; stroke:none;" d="M171 525L172 526L171 525z"/>
<path style="fill:#aaaaaa; stroke:none;" d="M811 525L812 526L811 525z"/>
<path style="fill:#c9c9c9; stroke:none;" d="M168 527L169 528L168 527z"/>
<path style="fill:#aaaaaa; stroke:none;" d="M808 527L809 528L808 527z"/>
<path style="fill:#c9c9c9; stroke:none;" d="M165 529L166 530L165 529z"/>
<path style="fill:#aaaaaa; stroke:none;" d="M805 529L806 530L805 529z"/>
<path style="fill:#c9c9c9; stroke:none;" d="M162 531L163 532L162 531z"/>
<path style="fill:#aaaaaa; stroke:none;" d="M802 531L803 532L802 531z"/>
<path style="fill:#c9c9c9; stroke:none;" d="M159 533L160 534L159 533z"/>
<path style="fill:#aaaaaa; stroke:none;" d="M799 533L800 534L799 533z"/>
<path style="fill:#c9c9c9; stroke:none;" d="M156 535L157 536L156 535z"/>
<path style="fill:#aaaaaa; stroke:none;" d="M796 535L797 536L796 535z"/>
<path style="fill:#c9c9c9; stroke:none;" d="M153 537L154 538L153 537z"/>
<path style="fill:#aaaaaa; stroke:none;" d="M793 537L794 538L793 537z"/>
<path style="fill:#c9c9c9; stroke:none;" d="M150 539L151 540L150 539z"/>
<path style="fill:#aaaaaa; stroke:none;" d="M790 539L791 540L790 539z"/>
<path style="fill:#c9c9c9; stroke:none;" d="M147 541L148 542L147 541z"/>
<path style="fill:#aaaaaa; stroke:none;" d="M787 541L788 542L787 541z"/>
<path style="fill:#c9c9c9; stroke:none;" d="M144 543L145 544L144 543z"/>
<path style="fill:#aaaaaa; stroke:none;" d="M784 543L785 544L784 543z"/>
<path style="fill:#c9c9c9; stroke:none;" d="M141 545L142 546L141 545M138 547L139 548L138 547M135 549L136 550L135 549z"/>
<path style="fill:#ffffff; stroke:none;" d="M453 684C457.72 685.981 463.92 685 469 685L501 685L549 685C556.053 685 565.255 686.544 572 684.298C581.163 681.247 590.016 673.323 598 668L649 634L690 606.667C693.12 604.587 702.793 600.294 702.793 595.947C702.793 591.535 693.146 586.696 690 584.424C677.656 575.511 665.242 566.683 653 557.629C649.21 554.825 643.145 548.476 638 550.248C631.396 552.523 624.656 559.341 619 563.424C605.282 573.328 591.603 583.31 578 593.371C536.638 623.964 494.825 654.044 453 684z"/>
<path style="fill:#c9c9c9; stroke:none;" d="M132 551L133 552L132 551M129 553L130 554L129 553M126 555L127 556L126 555M123 557L124 558L123 557M120 559L121 560L120 559M117 561L118 562L117 561M114 563L115 564L114 563M111 565L112 566L111 565z"/>
<path style="fill:#a8a8a8; stroke:none;" d="M789.333 566.667C789.278 566.722 789.222 567.778 789.667 567.333C789.722 567.278 789.778 566.222 789.333 566.667z"/>
<path style="fill:#c9c9c9; stroke:none;" d="M108 567L109 568L108 567M105 569L106 570L105 569z"/>
<path style="fill:#a5a5a5; stroke:none;" d="M790.333 569.667C790.278 569.722 790.222 570.778 790.667 570.333C790.722 570.278 790.778 569.222 790.333 569.667z"/>
<path style="fill:#c9c9c9; stroke:none;" d="M102 571L103 572L102 571z"/>
<path style="fill:#a3a3a3; stroke:none;" d="M791.333 572.667C791.278 572.722 791.222 573.778 791.667 573.333C791.722 573.278 791.778 572.222 791.333 572.667z"/>
<path style="fill:#c9c9c9; stroke:none;" d="M99 573L100 574L99 573M96 575L97 576L96 575z"/>
<path style="fill:#a1a1a1; stroke:none;" d="M792.333 575.667C792.278 575.722 792.222 576.778 792.667 576.333C792.722 576.278 792.778 575.222 792.333 575.667z"/>
<path style="fill:#c9c9c9; stroke:none;" d="M93 577L94 578L93 577M90 579L91 580L90 579M87 581L88 582L87 581M84 583L85 584L84 583M81 585L82 586L81 585M78 587L79 588L78 587M75 589L76 590L75 589M72 591L73 592L72 591M69 593L70 594L69 593M66 595L67 596L66 595z"/>
<path style="fill:#dcdcdc; stroke:none;" d="M704.333 595.667C704.278 595.722 704.222 596.778 704.667 596.333C704.722 596.278 704.778 595.222 704.333 595.667z"/>
<path style="fill:#5e5e5e; stroke:none;" d="M705 596C683.163 612.785 658.919 627.054 636 642.333C615.224 656.184 594.811 671.857 573 684C579.436 686.701 589.049 685 596 685L648 685L827 685C821.803 679.149 814.362 674.827 808 670.291C797.948 663.124 788.009 655.802 778 648.576C762.63 637.478 747.269 626.351 732 615.116C723.2 608.641 714.497 601.41 705 596z"/>
<path style="fill:#c9c9c9; stroke:none;" d="M63 597L64 598L63 597z"/>
<path style="fill:#aaaaaa; stroke:none;" d="M703 597L704 598L703 597z"/>
<path style="fill:#c9c9c9; stroke:none;" d="M60 599L61 600L60 599z"/>
<path style="fill:#aaaaaa; stroke:none;" d="M700 599L701 600L700 599z"/>
<path style="fill:#909090; stroke:none;" d="M711 600L712 601L711 600z"/>
<path style="fill:#c9c9c9; stroke:none;" d="M57 601L58 602L57 601z"/>
<path style="fill:#aaaaaa; stroke:none;" d="M697 601L698 602L697 601z"/>
<path style="fill:#c9c9c9; stroke:none;" d="M54 603L55 604L54 603z"/>
<path style="fill:#aaaaaa; stroke:none;" d="M694 603L695 604L694 603z"/>
<path style="fill:#c9c9c9; stroke:none;" d="M51 605L52 606L51 605z"/>
<path style="fill:#aaaaaa; stroke:none;" d="M691 605L692 606L691 605z"/>
<path style="fill:#a8a8a8; stroke:none;" d="M802.333 606.667C802.278 606.722 802.222 607.778 802.667 607.333C802.722 607.278 802.778 606.222 802.333 606.667z"/>
<path style="fill:#c9c9c9; stroke:none;" d="M48 607L49 608L48 607z"/>
<path style="fill:#aaaaaa; stroke:none;" d="M688 607L689 608L688 607z"/>
<path style="fill:#909090; stroke:none;" d="M722 608L723 609L722 608z"/>
<path style="fill:#c9c9c9; stroke:none;" d="M45 609L46 610L45 609z"/>
<path style="fill:#aaaaaa; stroke:none;" d="M685 609L686 610L685 609z"/>
<path style="fill:#a6a6a6; stroke:none;" d="M803.333 609.667C803.278 609.722 803.222 610.778 803.667 610.333C803.722 610.278 803.778 609.222 803.333 609.667z"/>
<path style="fill:#c9c9c9; stroke:none;" d="M42 611L43 612L42 611z"/>
<path style="fill:#aaaaaa; stroke:none;" d="M682 611L683 612L682 611z"/>
<path style="fill:#a3a3a3; stroke:none;" d="M804.333 612.667C804.278 612.722 804.222 613.778 804.667 613.333C804.722 613.278 804.778 612.222 804.333 612.667z"/>
<path style="fill:#c9c9c9; stroke:none;" d="M39 613L40 614L39 613z"/>
<path style="fill:#aaaaaa; stroke:none;" d="M679 613L680 614L679 613z"/>
<path style="fill:#c9c9c9; stroke:none;" d="M36 615L37 616L36 615z"/>
<path style="fill:#aaaaaa; stroke:none;" d="M676 615L677 616L676 615z"/>
<path style="fill:#a1a1a1; stroke:none;" d="M805.333 615.667C805.278 615.722 805.222 616.778 805.667 616.333C805.722 616.278 805.778 615.222 805.333 615.667z"/>
<path style="fill:#909090; stroke:none;" d="M733 616L734 617L733 616z"/>
<path style="fill:#c9c9c9; stroke:none;" d="M33 617L34 618L33 617z"/>
<path style="fill:#aaaaaa; stroke:none;" d="M673 617L674 618L673 617z"/>
<path style="fill:#c9c9c9; stroke:none;" d="M30 619L31 620L30 619z"/>
<path style="fill:#aaaaaa; stroke:none;" d="M670 619L671 620L670 619z"/>
<path style="fill:#c9c9c9; stroke:none;" d="M27 621L28 622L27 621z"/>
<path style="fill:#aaaaaa; stroke:none;" d="M667 621L668 622L667 621z"/>
<path style="fill:#c9c9c9; stroke:none;" d="M24 623L25 624L24 623z"/>
<path style="fill:#aaaaaa; stroke:none;" d="M664 623L665 624L664 623z"/>
<path style="fill:#898989; stroke:none;" d="M744 624L745 625L744 624z"/>
<path style="fill:#c9c9c9; stroke:none;" d="M21 625L22 626L21 625z"/>
<path style="fill:#aaaaaa; stroke:none;" d="M661 625L662 626L661 625z"/>
<path style="fill:#c9c9c9; stroke:none;" d="M18 627L19 628L18 627z"/>
<path style="fill:#aaaaaa; stroke:none;" d="M658 627L659 628L658 627z"/>
<path style="fill:#c9c9c9; stroke:none;" d="M15 629L16 630L15 629z"/>
<path style="fill:#aaaaaa; stroke:none;" d="M655 629L656 630L655 629z"/>
<path style="fill:#c9c9c9; stroke:none;" d="M12 631L13 632L12 631z"/>
<path style="fill:#aaaaaa; stroke:none;" d="M652 631L653 632L652 631z"/>
<path style="fill:#898989; stroke:none;" d="M755 632L756 633L755 632z"/>
<path style="fill:#c9c9c9; stroke:none;" d="M9 633L10 634L9 633z"/>
<path style="fill:#aaaaaa; stroke:none;" d="M649 633L650 634L649 633z"/>
<path style="fill:#c9c9c9; stroke:none;" d="M6 635L7 636L6 635z"/>
<path style="fill:#aaaaaa; stroke:none;" d="M646 635L647 636L646 635z"/>
<path style="fill:#c9c9c9; stroke:none;" d="M3 637L4 638L3 637z"/>
<path style="fill:#aaaaaa; stroke:none;" d="M643 637L644 638L643 637z"/>
<path style="fill:#949494; stroke:none;" d="M762 637L763 638L762 637z"/>
<path style="fill:#cfcfcf; stroke:none;" d="M0 639L1 640L0 639z"/>
<path style="fill:#aaaaaa; stroke:none;" d="M640 639L641 640L640 639z"/>
<path style="fill:#898989; stroke:none;" d="M766 640L767 641L766 640z"/>
<path style="fill:#aaaaaa; stroke:none;" d="M637 641L638 642L637 641M634 643L635 644L634 643M631 645L632 646L631 645z"/>
<path style="fill:#909090; stroke:none;" d="M773 645L774 646L773 645z"/>
<path style="fill:#a8a8a8; stroke:none;" d="M815.333 646.667C815.278 646.722 815.222 647.778 815.667 647.333C815.722 647.278 815.778 646.222 815.333 646.667z"/>
<path style="fill:#aaaaaa; stroke:none;" d="M628 647L629 648L628 647z"/>
<path style="fill:#898989; stroke:none;" d="M777 648L778 649L777 648z"/>
<path style="fill:#aaaaaa; stroke:none;" d="M625 649L626 650L625 649z"/>
<path style="fill:#a6a6a6; stroke:none;" d="M816.333 649.667C816.278 649.722 816.222 650.778 816.667 650.333C816.722 650.278 816.778 649.222 816.333 649.667z"/>
<path style="fill:#aaaaaa; stroke:none;" d="M622 651L623 652L622 651z"/>
<path style="fill:#a4a4a4; stroke:none;" d="M817.333 652.667C817.278 652.722 817.222 653.778 817.667 653.333C817.722 653.278 817.778 652.222 817.333 652.667z"/>
<path style="fill:#aaaaaa; stroke:none;" d="M619 653L620 654L619 653z"/>
<path style="fill:#909090; stroke:none;" d="M784 653L785 654L784 653z"/>
<path style="fill:#aaaaaa; stroke:none;" d="M616 655L617 656L616 655z"/>
<path style="fill:#a1a1a1; stroke:none;" d="M818.333 655.667C818.278 655.722 818.222 656.778 818.667 656.333C818.722 656.278 818.778 655.222 818.333 655.667z"/>
<path style="fill:#898989; stroke:none;" d="M788 656L789 657L788 656z"/>
<path style="fill:#aaaaaa; stroke:none;" d="M613 657L614 658L613 657M610 659L611 660L610 659M607 661L608 662L607 661z"/>
<path style="fill:#909090; stroke:none;" d="M795 661L796 662L795 661z"/>
<path style="fill:#aaaaaa; stroke:none;" d="M604 663L605 664L604 663z"/>
<path style="fill:#898989; stroke:none;" d="M799 664L800 665L799 664z"/>
<path style="fill:#aaaaaa; stroke:none;" d="M601 665L602 666L601 665M598 667L599 668L598 667M595 669L596 670L595 669z"/>
<path style="fill:#909090; stroke:none;" d="M806 669L807 670L806 669z"/>
<path style="fill:#aaaaaa; stroke:none;" d="M592 671L593 672L592 671M589 673L590 674L589 673M586 675L587 676L586 675M583 677L584 678L583 677z"/>
<path style="fill:#909090; stroke:none;" d="M817 677L818 678L817 677z"/>
<path style="fill:#a4a4a4; stroke:none;" d="M580 679L581 680L580 679z"/>
<path style="fill:#d4d4d4; stroke:none;" d="M578 680L579 681L578 680z"/>
<path style="fill:#9f9f9f; stroke:none;" d="M577 681L578 682L577 681z"/>
<path style="fill:#d4d4d4; stroke:none;" d="M575 682L576 683L575 682z"/>
<path style="fill:#dddddd; stroke:none;" d="M452.333 683.667C452.278 683.722 452.222 684.778 452.667 684.333C452.722 684.278 452.778 683.222 452.333 683.667z"/>
<path style="fill:#9f9f9f; stroke:none;" d="M574 683L575 684L574 683z"/>
<path style="fill:#929292; stroke:none;" d="M827.333 683.667C827.278 683.722 827.222 684.778 827.667 684.333C827.722 684.278 827.778 683.222 827.333 683.667z"/>
<path style="fill:#d4d4d4; stroke:none;" d="M572 684L573 685L572 684z"/>
<path style="fill:#414141; stroke:none;" d="M0 685C4.71993 686.981 10.9198 686 16 686L50 686L166 686L571 686C566.28 684.019 560.08 685 555 685L521 685L405 685L0 685z"/>
<path style="fill:#2e2e2e; stroke:none;" d="M0 686L0 727L1280 727L1280 685L0 686z"/>
<path style="fill:#5e5e5e; stroke:none;" d="M0 727C4.46874 728.875 10.1913 728 15 728L44 728L148 728L507 728C476.026 751.808 441.512 771.992 409 793.667L352 831.667C341.776 838.483 331.736 846.023 321 852C327.919 854.903 338.52 853 346 853L403 853L599 853L1280 853L1280 728L0 727z"/>
<path style="fill:#353535; stroke:none;" d="M508 727C513.951 729.497 522.58 728 529 728L574 728L732 728L1280 728C1274.05 725.503 1265.42 727 1259 727L1214 727L1056 727L508 727z"/>
<path style="fill:#ffffff; stroke:none;" d="M0 728L0 853L222 853L289 853C298.328 853 311.112 855.261 320 852.298C327.08 849.938 333.825 843.783 340 839.667L379 813.667C421.331 785.446 463.824 757.452 506 729C501.531 727.125 495.809 728 491 728L462 728L358 728L0 728z"/>
<path style="fill:#d3d3d3; stroke:none;" d="M506 728L507 729L506 728z"/>
<path style="fill:#9f9f9f; stroke:none;" d="M505 729L506 730L505 729z"/>
<path style="fill:#d3d3d3; stroke:none;" d="M503 730L504 731L503 730z"/>
<path style="fill:#9f9f9f; stroke:none;" d="M502 731L503 732L502 731z"/>
<path style="fill:#d3d3d3; stroke:none;" d="M500 732L501 733L500 732z"/>
<path style="fill:#9f9f9f; stroke:none;" d="M499 733L500 734L499 733z"/>
<path style="fill:#d3d3d3; stroke:none;" d="M497 734L498 735L497 734z"/>
<path style="fill:#9f9f9f; stroke:none;" d="M496 735L497 736L496 735z"/>
<path style="fill:#d3d3d3; stroke:none;" d="M494 736L495 737L494 736z"/>
<path style="fill:#9f9f9f; stroke:none;" d="M493 737L494 738L493 737z"/>
<path style="fill:#d3d3d3; stroke:none;" d="M491 738L492 739L491 738z"/>
<path style="fill:#9f9f9f; stroke:none;" d="M490 739L491 740L490 739z"/>
<path style="fill:#d3d3d3; stroke:none;" d="M488 740L489 741L488 740z"/>
<path style="fill:#9f9f9f; stroke:none;" d="M487 741L488 742L487 741z"/>
<path style="fill:#d3d3d3; stroke:none;" d="M485 742L486 743L485 742z"/>
<path style="fill:#9f9f9f; stroke:none;" d="M484 743L485 744L484 743z"/>
<path style="fill:#d3d3d3; stroke:none;" d="M482 744L483 745L482 744z"/>
<path style="fill:#9f9f9f; stroke:none;" d="M481 745L482 746L481 745z"/>
<path style="fill:#d3d3d3; stroke:none;" d="M479 746L480 747L479 746z"/>
<path style="fill:#9f9f9f; stroke:none;" d="M478 747L479 748L478 747z"/>
<path style="fill:#d3d3d3; stroke:none;" d="M476 748L477 749L476 748z"/>
<path style="fill:#9f9f9f; stroke:none;" d="M475 749L476 750L475 749z"/>
<path style="fill:#d3d3d3; stroke:none;" d="M473 750L474 751L473 750z"/>
<path style="fill:#9f9f9f; stroke:none;" d="M472 751L473 752L472 751z"/>
<path style="fill:#d3d3d3; stroke:none;" d="M470 752L471 753L470 752z"/>
<path style="fill:#9f9f9f; stroke:none;" d="M469 753L470 754L469 753z"/>
<path style="fill:#d3d3d3; stroke:none;" d="M467 754L468 755L467 754z"/>
<path style="fill:#9f9f9f; stroke:none;" d="M466 755L467 756L466 755z"/>
<path style="fill:#d2d2d2; stroke:none;" d="M464 756L465 757L464 756z"/>
<path style="fill:#9f9f9f; stroke:none;" d="M463 757L464 758L463 757z"/>
<path style="fill:#d2d2d2; stroke:none;" d="M461 758L462 759L461 758z"/>
<path style="fill:#9f9f9f; stroke:none;" d="M460 759L461 760L460 759z"/>
<path style="fill:#d2d2d2; stroke:none;" d="M458 760L459 761L458 760z"/>
<path style="fill:#9f9f9f; stroke:none;" d="M457 761L458 762L457 761z"/>
<path style="fill:#d2d2d2; stroke:none;" d="M455 762L456 763L455 762z"/>
<path style="fill:#9f9f9f; stroke:none;" d="M454 763L455 764L454 763z"/>
<path style="fill:#d2d2d2; stroke:none;" d="M452 764L453 765L452 764z"/>
<path style="fill:#9f9f9f; stroke:none;" d="M451 765L452 766L451 765z"/>
<path style="fill:#d2d2d2; stroke:none;" d="M449 766L450 767L449 766z"/>
<path style="fill:#9f9f9f; stroke:none;" d="M448 767L449 768L448 767z"/>
<path style="fill:#d2d2d2; stroke:none;" d="M446 768L447 769L446 768z"/>
<path style="fill:#9f9f9f; stroke:none;" d="M445 769L446 770L445 769z"/>
<path style="fill:#d2d2d2; stroke:none;" d="M443 770L444 771L443 770z"/>
<path style="fill:#9f9f9f; stroke:none;" d="M442 771L443 772L442 771z"/>
<path style="fill:#d2d2d2; stroke:none;" d="M440 772L441 773L440 772z"/>
<path style="fill:#9f9f9f; stroke:none;" d="M439 773L440 774L439 773z"/>
<path style="fill:#d2d2d2; stroke:none;" d="M437 774L438 775L437 774z"/>
<path style="fill:#9f9f9f; stroke:none;" d="M436 775L437 776L436 775z"/>
<path style="fill:#d1d1d1; stroke:none;" d="M434 776L435 777L434 776z"/>
<path style="fill:#9f9f9f; stroke:none;" d="M433 777L434 778L433 777z"/>
<path style="fill:#d1d1d1; stroke:none;" d="M431 778L432 779L431 778z"/>
<path style="fill:#9f9f9f; stroke:none;" d="M430 779L431 780L430 779z"/>
<path style="fill:#d1d1d1; stroke:none;" d="M428 780L429 781L428 780z"/>
<path style="fill:#9f9f9f; stroke:none;" d="M427 781L428 782L427 781z"/>
<path style="fill:#d1d1d1; stroke:none;" d="M425 782L426 783L425 782z"/>
<path style="fill:#9f9f9f; stroke:none;" d="M424 783L425 784L424 783z"/>
<path style="fill:#d1d1d1; stroke:none;" d="M422 784L423 785L422 784z"/>
<path style="fill:#9f9f9f; stroke:none;" d="M421 785L422 786L421 785z"/>
<path style="fill:#d1d1d1; stroke:none;" d="M419 786L420 787L419 786z"/>
<path style="fill:#9f9f9f; stroke:none;" d="M418 787L419 788L418 787z"/>
<path style="fill:#d1d1d1; stroke:none;" d="M416 788L417 789L416 788z"/>
<path style="fill:#9f9f9f; stroke:none;" d="M415 789L416 790L415 789z"/>
<path style="fill:#d1d1d1; stroke:none;" d="M413 790L414 791L413 790z"/>
<path style="fill:#9f9f9f; stroke:none;" d="M412 791L413 792L412 791z"/>
<path style="fill:#d1d1d1; stroke:none;" d="M410 792L411 793L410 792z"/>
<path style="fill:#9f9f9f; stroke:none;" d="M409 793L410 794L409 793z"/>
<path style="fill:#d1d1d1; stroke:none;" d="M407 794L408 795L407 794z"/>
<path style="fill:#9f9f9f; stroke:none;" d="M406 795L407 796L406 795z"/>
<path style="fill:#d1d1d1; stroke:none;" d="M404 796L405 797L404 796z"/>
<path style="fill:#9f9f9f; stroke:none;" d="M403 797L404 798L403 797z"/>
<path style="fill:#d1d1d1; stroke:none;" d="M401 798L402 799L401 798z"/>
<path style="fill:#9f9f9f; stroke:none;" d="M400 799L401 800L400 799z"/>
<path style="fill:#d1d1d1; stroke:none;" d="M398 800L399 801L398 800z"/>
<path style="fill:#9f9f9f; stroke:none;" d="M397 801L398 802L397 801z"/>
<path style="fill:#d1d1d1; stroke:none;" d="M395 802L396 803L395 802z"/>
<path style="fill:#9f9f9f; stroke:none;" d="M394 803L395 804L394 803z"/>
<path style="fill:#d0d0d0; stroke:none;" d="M392 804L393 805L392 804z"/>
<path style="fill:#9f9f9f; stroke:none;" d="M391 805L392 806L391 805z"/>
<path style="fill:#d0d0d0; stroke:none;" d="M389 806L390 807L389 806z"/>
<path style="fill:#9f9f9f; stroke:none;" d="M388 807L389 808L388 807z"/>
<path style="fill:#d0d0d0; stroke:none;" d="M386 808L387 809L386 808z"/>
<path style="fill:#9f9f9f; stroke:none;" d="M385 809L386 810L385 809z"/>
<path style="fill:#d0d0d0; stroke:none;" d="M383 810L384 811L383 810z"/>
<path style="fill:#9f9f9f; stroke:none;" d="M382 811L383 812L382 811z"/>
<path style="fill:#d0d0d0; stroke:none;" d="M380 812L381 813L380 812z"/>
<path style="fill:#9f9f9f; stroke:none;" d="M379 813L380 814L379 813z"/>
<path style="fill:#d0d0d0; stroke:none;" d="M377 814L378 815L377 814z"/>
<path style="fill:#9f9f9f; stroke:none;" d="M376 815L377 816L376 815z"/>
<path style="fill:#d0d0d0; stroke:none;" d="M374 816L375 817L374 816z"/>
<path style="fill:#9f9f9f; stroke:none;" d="M373 817L374 818L373 817z"/>
<path style="fill:#d0d0d0; stroke:none;" d="M371 818L372 819L371 818z"/>
<path style="fill:#9f9f9f; stroke:none;" d="M370 819L371 820L370 819z"/>
<path style="fill:#d0d0d0; stroke:none;" d="M368 820L369 821L368 820z"/>
<path style="fill:#9f9f9f; stroke:none;" d="M367 821L368 822L367 821z"/>
<path style="fill:#d0d0d0; stroke:none;" d="M365 822L366 823L365 822z"/>
<path style="fill:#9f9f9f; stroke:none;" d="M364 823L365 824L364 823z"/>
<path style="fill:#d0d0d0; stroke:none;" d="M362 824L363 825L362 824z"/>
<path style="fill:#9f9f9f; stroke:none;" d="M361 825L362 826L361 825z"/>
<path style="fill:#d0d0d0; stroke:none;" d="M359 826L360 827L359 826z"/>
<path style="fill:#9f9f9f; stroke:none;" d="M358 827L359 828L358 827z"/>
<path style="fill:#d0d0d0; stroke:none;" d="M356 828L357 829L356 828z"/>
<path style="fill:#9f9f9f; stroke:none;" d="M355 829L356 830L355 829z"/>
<path style="fill:#d0d0d0; stroke:none;" d="M353 830L354 831L353 830z"/>
<path style="fill:#9f9f9f; stroke:none;" d="M352 831L353 832L352 831z"/>
<path style="fill:#d0d0d0; stroke:none;" d="M350 832L351 833L350 832z"/>
<path style="fill:#9f9f9f; stroke:none;" d="M349 833L350 834L349 833z"/>
<path style="fill:#d0d0d0; stroke:none;" d="M347 834L348 835L347 834z"/>
<path style="fill:#9f9f9f; stroke:none;" d="M346 835L347 836L346 835z"/>
<path style="fill:#d0d0d0; stroke:none;" d="M344 836L345 837L344 836z"/>
<path style="fill:#9f9f9f; stroke:none;" d="M343 837L344 838L343 837z"/>
<path style="fill:#d0d0d0; stroke:none;" d="M341 838L342 839L341 838z"/>
<path style="fill:#9f9f9f; stroke:none;" d="M340 839L341 840L340 839z"/>
<path style="fill:#d0d0d0; stroke:none;" d="M338 840L339 841L338 840z"/>
<path style="fill:#9f9f9f; stroke:none;" d="M337 841L338 842L337 841z"/>
<path style="fill:#d0d0d0; stroke:none;" d="M335 842L336 843L335 842z"/>
<path style="fill:#9f9f9f; stroke:none;" d="M334 843L335 844L334 843z"/>
<path style="fill:#cfcfcf; stroke:none;" d="M332 844L333 845L332 844z"/>
<path style="fill:#9f9f9f; stroke:none;" d="M331 845L332 846L331 845z"/>
<path style="fill:#cfcfcf; stroke:none;" d="M329 846L330 847L329 846z"/>
<path style="fill:#9f9f9f; stroke:none;" d="M328 847L329 848L328 847z"/>
<path style="fill:#cfcfcf; stroke:none;" d="M326 848L327 849L326 848z"/>
<path style="fill:#9f9f9f; stroke:none;" d="M325 849L326 850L325 849z"/>
<path style="fill:#cacaca; stroke:none;" d="M323 850L324 851L323 850z"/>
<path style="fill:#959595; stroke:none;" d="M322 851L323 852L322 851z"/>
<path style="fill:#cacaca; stroke:none;" d="M320 852L321 853L320 852z"/>
</svg>
