<?xml version="1.0" standalone="yes"?>
<svg xmlns="http://www.w3.org/2000/svg" width="1200" height="840">
<path style="fill:#202020; stroke:none;" d="M0 0L0 420L420 420L420 0L0 0z"/>
<path style="fill:#6e6e6e; stroke:none;" d="M420 0L420 210L1200 210L1200 0L420 0z"/>
<path style="fill:#444444; stroke:none;" d="M71.6667 24.3333C71.2222 24.7778 72.2777 24.7224 72.3333 24.6667C72.7778 24.2222 71.7222 24.2778 71.6667 24.3333M347.667 24.3333C347.222 24.778 348.278 24.7221 348.333 24.6667C348.778 24.2223 347.722 24.2777 347.667 24.3333z"/>
<path style="fill:#8c8c8c; stroke:none;" d="M71.6667 25.3333C71.2222 25.7778 72.2778 25.7222 72.3333 25.6667C72.7777 25.2222 71.7223 25.2777 71.6667 25.3333M347.667 25.3333C347.222 25.7779 348.278 25.7222 348.333 25.6667C348.778 25.2223 347.722 25.2777 347.667 25.3333z"/>
<path style="fill:#d5d5d5; stroke:none;" d="M71.6667 26.3333C71.2222 26.7778 72.2777 26.7224 72.3333 26.6667C72.7777 26.2222 71.7223 26.2777 71.6667 26.3333M347.667 26.3333C347.222 26.778 348.278 26.7222 348.333 26.6667C348.778 26.2224 347.722 26.2776 347.667 26.3333z"/>
<path style="fill:#ffffff; stroke:none;" d="M71 27C69.3505 34.1299 66.6497 41.0608 64.3333 48C63.3392 50.9781 62.5879 55.1766 59.7222 56.9722C57.0614 58.6395 52.9891 57.9998 50 58L29 58C34.9724 65.2311 46.361 73.3478 55 77C51.5561 87.5839 47.2592 98.0837 45 109C51.5508 106.231 57.2834 101.088 63 96.8843C65.4635 95.0728 68.7413 91.8688 72 91.8688C75.2587 91.8688 78.5364 95.0727 81 96.8843C86.7167 101.088 92.4493 106.231 99 109C96.7408 98.0837 92.4439 87.5839 89 77C97.639 73.3479 109.028 65.231 115 58L92 58C88.8239 57.9935 85.0934 58.3958 82.8434 55.6821C76.586 48.1353 78.9797 32.9927 71 27M347 27C345.35 34.13 342.65 41.0607 340.333 48C339.339 50.9782 338.588 55.1766 335.722 56.9722C333.061 58.6395 328.989 57.9998 326 58L305 58C310.972 65.2311 322.361 73.3478 331 77C327.556 87.5839 323.259 98.0837 321 109C327.551 106.231 333.283 101.088 339 96.8843C341.464 95.0728 344.741 91.8688 348 91.8688C351.259 91.8688 354.536 95.0727 357 96.8843C362.717 101.088 368.449 106.231 375 109C372.741 98.0837 368.444 87.5839 365 77C373.639 73.3478 385.028 65.2311 391 58L368 58C364.824 57.9935 361.093 58.3959 358.843 55.6821C352.586 48.1353 354.98 32.9927 347 27z"/>
<path style="fill:#868686; stroke:none;" d="M70 28L71 29L70 28M73 28L74 29L73 28M346 28L347 29L346 28M349 28L350 29L349 28z"/>
<path style="fill:#d0d0d0; stroke:none;" d="M70 29L71 30L70 29M73 29L74 30L73 29M346 29L347 30L346 29M349 29L350 30L349 29z"/>
<path style="fill:#828282; stroke:none;" d="M69 31L70 32L69 31M74 31L75 32L74 31M345 31L346 32L345 31M350 31L351 32L350 31z"/>
<path style="fill:#cacaca; stroke:none;" d="M69 32L70 33L69 32M74 32L75 33L74 32M345 32L346 33L345 32M350 32L351 33L350 32z"/>
<path style="fill:#7c7c7c; stroke:none;" d="M68 34L69 35L68 34M75 34L76 35L75 34M344 34L345 35L344 34M351 34L352 35L351 34z"/>
<path style="fill:#c5c5c5; stroke:none;" d="M68 35L69 36L68 35M75 35L76 36L75 35M344 35L345 36L344 35M351 35L352 36L351 35z"/>
<path style="fill:#767676; stroke:none;" d="M67 37L68 38L67 37M76 37L77 38L76 37M343 37L344 38L343 37M352 37L353 38L352 37z"/>
<path style="fill:#bfbfbf; stroke:none;" d="M67 38L68 39L67 38M76 38L77 39L76 38M343 38L344 39L343 38M352 38L353 39L352 38z"/>
<path style="fill:#717171; stroke:none;" d="M66 40L67 41L66 40M77 40L78 41L77 40M342 40L343 41L342 40M353 40L354 41L353 40z"/>
<path style="fill:#b9b9b9; stroke:none;" d="M66 41L67 42L66 41M77 41L78 42L77 41M342 41L343 42L342 41M353 41L354 42L353 41z"/>
<path style="fill:#6c6c6c; stroke:none;" d="M65 43L66 44L65 43M78 43L79 44L78 43M341 43L342 44L341 43M354 43L355 44L354 43z"/>
<path style="fill:#b3b3b3; stroke:none;" d="M65 44L66 45L65 44M78 44L79 45L78 44M341 44L342 45L341 44M354 44L355 45L354 44z"/>
<path style="fill:#656565; stroke:none;" d="M64 46L65 47L64 46M79 46L80 47L79 46M340 46L341 47L340 46M355 46L356 47L355 46z"/>
<path style="fill:#aeaeae; stroke:none;" d="M64 47L65 48L64 47M79 47L80 48L79 47M340 47L341 48L340 47M355 47L356 48L355 47z"/>
<path style="fill:#5f5f5f; stroke:none;" d="M63 49L64 50L63 49M80 49L81 50L80 49M339 49L340 50L339 49M356 49L357 50L356 49z"/>
<path style="fill:#a9a9a9; stroke:none;" d="M63 50L64 51L63 50M80 50L81 51L80 50M339 50L340 51L339 50M356 50L357 51L356 50z"/>
<path style="fill:#5a5a5a; stroke:none;" d="M62 52L63 53L62 52M81 52L82 53L81 52M338 52L339 53L338 52M357 52L358 53L357 52z"/>
<path style="fill:#a2a2a2; stroke:none;" d="M62 53L63 54L62 53M81 53L82 54L81 53M338 53L339 54L338 53M357 53L358 54L357 53z"/>
<path style="fill:#555555; stroke:none;" d="M61 55L62 56L61 55M82 55L83 56L82 55M337 55L338 56L337 55M358 55L359 56L358 55z"/>
<path style="fill:#9d9d9d; stroke:none;" d="M61 56L62 57L61 56M82 56L83 57L82 56M337 56L338 57L337 56M358 56L359 57L358 56z"/>
<path style="fill:#d2d2d2; stroke:none;" d="M27 57C30.2468 58.8773 34.271 58.0057 38 58L61 58C57.3014 56.4479 52.9828 57 49 57L27 57M83 57C86.9585 58.6611 91.7397 58 96 58C102.896 58 110.185 58.7492 117 58C113.301 56.4479 108.983 57 105 57L83 57M303 57C306.247 58.8773 310.271 58.0057 314 58L337 58C333.301 56.4479 328.983 57 325 57L303 57M359 57C362.959 58.6611 367.74 58 372 58C378.896 58 386.185 58.7492 393 58C389.301 56.4479 384.983 57 381 57L359 57z"/>
<path style="fill:#868686; stroke:none;" d="M29 59L30 60L29 59M114 59L115 60L114 59M305 59L306 60L305 59M390 59L391 60L390 59z"/>
<path style="fill:#4e4e4e; stroke:none;" d="M30 60L31 61L30 60M113 60L114 61L113 60M306 60L307 61L306 60M389 60L390 61L389 60z"/>
<path style="fill:#aeaeae; stroke:none;" d="M32 61L33 62L32 61M111 61L112 62L111 61M308 61L309 62L308 61M387 61L388 62L387 61z"/>
<path style="fill:#717171; stroke:none;" d="M33 62L34 63L33 62M110 62L111 63L110 62M309 62L310 63L309 62M386 62L387 63L386 62z"/>
<path style="fill:#d1d1d1; stroke:none;" d="M35 63L36 64L35 63M108 63L109 64L108 63M311 63L312 64L311 63M384 63L385 64L384 63z"/>
<path style="fill:#999999; stroke:none;" d="M36 64L37 65L36 64M107 64L108 65L107 64M312 64L313 65L312 64M383 64L384 65L383 64z"/>
<path style="fill:#5d5d5d; stroke:none;" d="M37 65L38 66L37 65M106 65L107 66L106 65M313 65L314 66L313 65M382 65L383 66L382 65z"/>
<path style="fill:#c0c0c0; stroke:none;" d="M39 66L40 67L39 66M104 66L105 67L104 66M315 66L316 67L315 66M380 66L381 67L380 66z"/>
<path style="fill:#858585; stroke:none;" d="M40 67L41 68L40 67M103 67L104 68L103 67M316 67L317 68L316 67M379 67L380 68L379 67z"/>
<path style="fill:#4d4d4d; stroke:none;" d="M41 68L42 69L41 68M102 68L103 69L102 68M317 68L318 69L317 68M378 68L379 69L378 68z"/>
<path style="fill:#acacac; stroke:none;" d="M43 69L44 70L43 69M100 69L101 70L100 69M319 69L320 70L319 69M376 69L377 70L376 69z"/>
<path style="fill:#6f6f6f; stroke:none;" d="M44 70L45 71L44 70M99 70L100 71L99 70M320 70L321 71L320 70M375 70L376 71L375 70z"/>
<path style="fill:#d0d0d0; stroke:none;" d="M46 71L47 72L46 71M97 71L98 72L97 71M322 71L323 72L322 71M373 71L374 72L373 71z"/>
<path style="fill:#979797; stroke:none;" d="M47 72L48 73L47 72M96 72L97 73L96 72M323 72L324 73L323 72M372 72L373 73L372 72z"/>
<path style="fill:#5b5b5b; stroke:none;" d="M48 73L49 74L48 73M95 73L96 74L95 73M324 73L325 74L324 73M371 73L372 74L371 73z"/>
<path style="fill:#bebebe; stroke:none;" d="M50 74L51 75L50 74M93 74L94 75L93 74M326 74L327 75L326 74M369 74L370 75L369 74z"/>
<path style="fill:#828282; stroke:none;" d="M51 75L52 76L51 75M92 75L93 76L92 75M327 75L328 76L327 75M368 75L369 76L368 75z"/>
<path style="fill:#4b4b4b; stroke:none;" d="M52 76L53 77L52 76M91 76L92 77L91 76M328 76L329 77L328 76M367 76L368 77L367 76z"/>
<path style="fill:#bebebe; stroke:none;" d="M54.3333 77.6667C54.2779 77.7221 54.2222 78.7777 54.6667 78.3333C54.7224 78.2776 54.7777 77.2223 54.3333 77.6667M89.3333 77.6667C89.2778 77.7222 89.2221 78.7778 89.6667 78.3333C89.7223 78.2777 89.7778 77.2223 89.3333 77.6667M330.333 77.6667C330.278 77.722 330.222 78.7779 330.667 78.3333C330.723 78.2775 330.777 77.2225 330.333 77.6667M365.333 77.6667C365.278 77.7221 365.222 78.7778 365.667 78.3333C365.723 78.2775 365.777 77.2225 365.333 77.6667z"/>
<path style="fill:#717171; stroke:none;" d="M53 80L54 81L53 80M90 80L91 81L90 80M329 80L330 81L329 80M366 80L367 81L366 80z"/>
<path style="fill:#b8b8b8; stroke:none;" d="M53 81L54 82L53 81M90 81L91 82L90 81M329 81L330 82L329 81M366 81L367 82L366 81z"/>
<path style="fill:#6b6b6b; stroke:none;" d="M52 83L53 84L52 83M91 83L92 84L91 83M328 83L329 84L328 83M367 83L368 84L367 83z"/>
<path style="fill:#b3b3b3; stroke:none;" d="M52 84L53 85L52 84M91 84L92 85L91 84M328 84L329 85L328 84M367 84L368 85L367 84z"/>
<path style="fill:#656565; stroke:none;" d="M51 86L52 87L51 86M92 86L93 87L92 86M327 86L328 87L327 86M368 86L369 87L368 86z"/>
<path style="fill:#aeaeae; stroke:none;" d="M51 87L52 88L51 87M92 87L93 88L92 87M327 87L328 88L327 87M368 87L369 88L368 87z"/>
<path style="fill:#5f5f5f; stroke:none;" d="M50 89L51 90L50 89M93 89L94 90L93 89M326 89L327 90L326 89M369 89L370 90L369 89z"/>
<path style="fill:#a8a8a8; stroke:none;" d="M50 90L51 91L50 90z"/>
<path style="fill:#bbbbbb; stroke:none;" d="M71.6667 90.3333C71.2222 90.7778 72.2777 90.7224 72.3333 90.6667C72.7779 90.2221 71.7221 90.2778 71.6667 90.3333z"/>
<path style="fill:#a8a8a8; stroke:none;" d="M93 90L94 91L93 90M326 90L327 91L326 90z"/>
<path style="fill:#bbbbbb; stroke:none;" d="M347.667 90.3333C347.222 90.7779 348.278 90.7222 348.333 90.6667C348.778 90.2223 347.722 90.2777 347.667 90.3333z"/>
<path style="fill:#a8a8a8; stroke:none;" d="M369 90L370 91L369 90z"/>
<path style="fill:#808080; stroke:none;" d="M70 91L71 92L70 91M73 91L74 92L73 91M346 91L347 92L346 91M349 91L350 92L349 91z"/>
<path style="fill:#5a5a5a; stroke:none;" d="M49 92L50 93L49 92M94 92L95 93L94 92M325 92L326 93L325 92M370 92L371 93L370 92z"/>
<path style="fill:#a1a1a1; stroke:none;" d="M49 93L50 94L49 93z"/>
<path style="fill:#a8a8a8; stroke:none;" d="M67 93L68 94L67 93M76 93L77 94L76 93z"/>
<path style="fill:#a1a1a1; stroke:none;" d="M94 93L95 94L94 93M325 93L326 94L325 93z"/>
<path style="fill:#a8a8a8; stroke:none;" d="M343 93L344 94L343 93M352 93L353 94L352 93z"/>
<path style="fill:#a1a1a1; stroke:none;" d="M370 93L371 94L370 93z"/>
<path style="fill:#6a6a6a; stroke:none;" d="M66 94L67 95L66 94M77 94L78 95L77 94M342 94L343 95L342 94M353 94L354 95L353 94z"/>
<path style="fill:#545454; stroke:none;" d="M48 95L49 96L48 95z"/>
<path style="fill:#cbcbcb; stroke:none;" d="M64 95L65 96L64 95M79 95L80 96L79 95z"/>
<path style="fill:#545454; stroke:none;" d="M95 95L96 96L95 95M324 95L325 96L324 95z"/>
<path style="fill:#cbcbcb; stroke:none;" d="M340 95L341 96L340 95M355 95L356 96L355 95z"/>
<path style="fill:#545454; stroke:none;" d="M371 95L372 96L371 95z"/>
<path style="fill:#9c9c9c; stroke:none;" d="M48 96L49 97L48 96z"/>
<path style="fill:#939393; stroke:none;" d="M63 96L64 97L63 96M80 96L81 97L80 96z"/>
<path style="fill:#9c9c9c; stroke:none;" d="M95 96L96 97L95 96M324 96L325 97L324 96z"/>
<path style="fill:#939393; stroke:none;" d="M339 96L340 97L339 96M356 96L357 97L356 96z"/>
<path style="fill:#9c9c9c; stroke:none;" d="M371 96L372 97L371 96z"/>
<path style="fill:#575757; stroke:none;" d="M62 97L63 98L62 97M81 97L82 98L81 97M338 97L339 98L338 97M357 97L358 98L357 97z"/>
<path style="fill:#4e4e4e; stroke:none;" d="M47 98L48 99L47 98z"/>
<path style="fill:#bababa; stroke:none;" d="M60 98L61 99L60 98M83 98L84 99L83 98z"/>
<path style="fill:#4e4e4e; stroke:none;" d="M96 98L97 99L96 98M323 98L324 99L323 98z"/>
<path style="fill:#bababa; stroke:none;" d="M336 98L337 99L336 98M359 98L360 99L359 98z"/>
<path style="fill:#4e4e4e; stroke:none;" d="M372 98L373 99L372 98z"/>
<path style="fill:#979797; stroke:none;" d="M47 99L48 100L47 99z"/>
<path style="fill:#7d7d7d; stroke:none;" d="M59 99L60 100L59 99M84 99L85 100L84 99z"/>
<path style="fill:#979797; stroke:none;" d="M96 99L97 100L96 99M323 99L324 100L323 99z"/>
<path style="fill:#7d7d7d; stroke:none;" d="M335 99L336 100L335 99M360 99L361 100L360 99z"/>
<path style="fill:#979797; stroke:none;" d="M372 99L373 100L372 99z"/>
<path style="fill:#a4a4a4; stroke:none;" d="M56 101L57 102L56 101M87 101L88 102L87 101M332 101L333 102L332 101M363 101L364 102L363 101z"/>
<path style="fill:#919191; stroke:none;" d="M46 102L47 103L46 102z"/>
<path style="fill:#686868; stroke:none;" d="M55 102L56 103L55 102M88 102L89 103L88 102z"/>
<path style="fill:#919191; stroke:none;" d="M97 102L98 103L97 102M322 102L323 103L322 102z"/>
<path style="fill:#686868; stroke:none;" d="M331 102L332 103L331 102M364 102L365 103L364 102z"/>
<path style="fill:#919191; stroke:none;" d="M373 102L374 103L373 102z"/>
<path style="fill:#cacaca; stroke:none;" d="M53 103L54 104L53 103M90 103L91 104L90 103M329 103L330 104L329 103M366 103L367 104L366 103z"/>
<path style="fill:#909090; stroke:none;" d="M52 104L53 105L52 104M91 104L92 105L91 104M328 104L329 105L328 104M367 104L368 105L367 104z"/>
<path style="fill:#8b8b8b; stroke:none;" d="M45 105L46 106L45 105z"/>
<path style="fill:#555555; stroke:none;" d="M51 105L52 106L51 105M92 105L93 106L92 105z"/>
<path style="fill:#8b8b8b; stroke:none;" d="M98 105L99 106L98 105M321 105L322 106L321 105z"/>
<path style="fill:#555555; stroke:none;" d="M327 105L328 106L327 105M368 105L369 106L368 105z"/>
<path style="fill:#8b8b8b; stroke:none;" d="M374 105L375 106L374 105z"/>
<path style="fill:#d4d4d4; stroke:none;" d="M45 106L46 107L45 106z"/>
<path style="fill:#b7b7b7; stroke:none;" d="M49 106L50 107L49 106M94 106L95 107L94 106z"/>
<path style="fill:#d4d4d4; stroke:none;" d="M98 106L99 107L98 106M321 106L322 107L321 106z"/>
<path style="fill:#b7b7b7; stroke:none;" d="M325 106L326 107L325 106M370 106L371 107L370 106z"/>
<path style="fill:#d4d4d4; stroke:none;" d="M374 106L375 107L374 106z"/>
<path style="fill:#7b7b7b; stroke:none;" d="M48 107L49 108L48 107M95 107L96 108L95 107M324 107L325 108L324 107M371 107L372 108L371 107z"/>
<path style="fill:#868686; stroke:none;" d="M44 108L45 109L44 108M99 108L100 109L99 108M320 108L321 109L320 108M375 108L376 109L375 108z"/>
<path style="fill:#cfcfcf; stroke:none;" d="M44 109L45 110L44 109z"/>
<path style="fill:#a3a3a3; stroke:none;" d="M45 109L46 110L45 109M98 109L99 110L98 109z"/>
<path style="fill:#cfcfcf; stroke:none;" d="M99 109L100 110L99 109M320 109L321 110L320 109z"/>
<path style="fill:#a3a3a3; stroke:none;" d="M321 109L322 110L321 109M374 109L375 110L374 109z"/>
<path style="fill:#cfcfcf; stroke:none;" d="M375 109L376 110L375 109z"/>
<path style="fill:#656565; stroke:none;" d="M44 110L45 111L44 110M99 110L100 111L99 110M320 110L321 111L320 110M375 110L376 111L375 110z"/>
<path style="fill:#444444; stroke:none;" d="M209.667 114.333C209.222 114.778 210.278 114.722 210.333 114.667C210.778 114.222 209.722 114.278 209.667 114.333z"/>
<path style="fill:#8c8c8c; stroke:none;" d="M209.667 115.333C209.222 115.778 210.278 115.722 210.333 115.667C210.778 115.222 209.722 115.278 209.667 115.333z"/>
<path style="fill:#d5d5d5; stroke:none;" d="M209.667 116.333C209.222 116.778 210.278 116.722 210.333 116.667C210.778 116.222 209.722 116.278 209.667 116.333z"/>
<path style="fill:#ffffff; stroke:none;" d="M209 117C205.343 132.809 199.089 148.58 193.999 164C192.471 168.629 191.26 177.271 186.775 179.972C182.214 182.72 173.17 181 168 181L121 181C131.11 192.39 146.764 200.578 159 209.629C163.285 212.799 171.801 216.754 173.647 222.039C175.253 226.64 170.792 235.516 169.33 240C164.465 254.928 157.299 270.434 155 286C168.784 278.318 181.156 267.448 194 258.291C197.986 255.449 204.92 248.128 210 248.128C215.08 248.128 222.014 255.449 226 258.291C238.844 267.448 251.216 278.318 265 286C262.701 270.434 255.535 254.928 250.67 240C249.208 235.516 244.747 226.64 246.353 222.039C248.114 216.998 255.927 213.384 260 210.371C272.921 200.814 285.947 191.376 299 182C294.28 180.019 288.08 181 283 181L250 181C245.197 181 236.341 182.687 232.419 179.397C228.98 176.512 228.025 170.078 226.667 166C222.793 154.368 219.212 142.636 215.333 131C213.821 126.464 212.928 119.95 209 117z"/>
<path style="fill:#868686; stroke:none;" d="M208 118L209 119L208 118M211 118L212 119L211 118z"/>
<path style="fill:#d0d0d0; stroke:none;" d="M208 119L209 120L208 119M211 119L212 120L211 119z"/>
<path style="fill:#828282; stroke:none;" d="M207 121L208 122L207 121M212 121L213 122L212 121z"/>
<path style="fill:#cacaca; stroke:none;" d="M207 122L208 123L207 122M212 122L213 123L212 122z"/>
<path style="fill:#7c7c7c; stroke:none;" d="M206 124L207 125L206 124M213 124L214 125L213 124z"/>
<path style="fill:#c5c5c5; stroke:none;" d="M206 125L207 126L206 125M213 125L214 126L213 125z"/>
<path style="fill:#767676; stroke:none;" d="M205 127L206 128L205 127M214 127L215 128L214 127z"/>
<path style="fill:#bfbfbf; stroke:none;" d="M205 128L206 129L205 128M214 128L215 129L214 128z"/>
<path style="fill:#717171; stroke:none;" d="M204 130L205 131L204 130M215 130L216 131L215 130z"/>
<path style="fill:#b9b9b9; stroke:none;" d="M204 131L205 132L204 131M215 131L216 132L215 131z"/>
<path style="fill:#6c6c6c; stroke:none;" d="M203 133L204 134L203 133M216 133L217 134L216 133z"/>
<path style="fill:#b3b3b3; stroke:none;" d="M203 134L204 135L203 134M216 134L217 135L216 134z"/>
<path style="fill:#656565; stroke:none;" d="M202 136L203 137L202 136M217 136L218 137L217 136z"/>
<path style="fill:#aeaeae; stroke:none;" d="M202 137L203 138L202 137M217 137L218 138L217 137z"/>
<path style="fill:#5f5f5f; stroke:none;" d="M201 139L202 140L201 139M218 139L219 140L218 139z"/>
<path style="fill:#a9a9a9; stroke:none;" d="M201 140L202 141L201 140M218 140L219 141L218 140z"/>
<path style="fill:#5a5a5a; stroke:none;" d="M200 142L201 143L200 142M219 142L220 143L219 142z"/>
<path style="fill:#a2a2a2; stroke:none;" d="M200 143L201 144L200 143M219 143L220 144L219 143z"/>
<path style="fill:#555555; stroke:none;" d="M199 145L200 146L199 145M220 145L221 146L220 145z"/>
<path style="fill:#9d9d9d; stroke:none;" d="M199 146L200 147L199 146M220 146L221 147L220 146z"/>
<path style="fill:#4e4e4e; stroke:none;" d="M198 148L199 149L198 148M221 148L222 149L221 148z"/>
<path style="fill:#989898; stroke:none;" d="M198 149L199 150L198 149M221 149L222 150L221 149z"/>
<path style="fill:#929292; stroke:none;" d="M197 152L198 153L197 152M222 152L223 153L222 152z"/>
<path style="fill:#8c8c8c; stroke:none;" d="M196 155L197 156L196 155M223 155L224 156L223 155z"/>
<path style="fill:#868686; stroke:none;" d="M195 158L196 159L195 158M224 158L225 159L224 158z"/>
<path style="fill:#cfcfcf; stroke:none;" d="M195 159L196 160L195 159M224 159L225 160L224 159z"/>
<path style="fill:#818181; stroke:none;" d="M194 161L195 162L194 161M225 161L226 162L225 161z"/>
<path style="fill:#c9c9c9; stroke:none;" d="M194 162L195 163L194 162M225 162L226 163L225 162z"/>
<path style="fill:#7b7b7b; stroke:none;" d="M193 164L194 165L193 164M226 164L227 165L226 164z"/>
<path style="fill:#c4c4c4; stroke:none;" d="M193 165L194 166L193 165M226 165L227 166L226 165z"/>
<path style="fill:#767676; stroke:none;" d="M192 167L193 168L192 167M227 167L228 168L227 167z"/>
<path style="fill:#bebebe; stroke:none;" d="M192 168L193 169L192 168M227 168L228 169L227 168z"/>
<path style="fill:#717171; stroke:none;" d="M191 170L192 171L191 170M228 170L229 171L228 170z"/>
<path style="fill:#b8b8b8; stroke:none;" d="M191 171L192 172L191 171M228 171L229 172L228 171z"/>
<path style="fill:#6b6b6b; stroke:none;" d="M190 173L191 174L190 173M229 173L230 174L229 173z"/>
<path style="fill:#b3b3b3; stroke:none;" d="M190 174L191 175L190 174M229 174L230 175L229 174z"/>
<path style="fill:#656565; stroke:none;" d="M189 176L190 177L189 176M230 176L231 177L230 176z"/>
<path style="fill:#aeaeae; stroke:none;" d="M189 177L190 178L189 177M230 177L231 178L230 177z"/>
<path style="fill:#5f5f5f; stroke:none;" d="M188 179L189 180L188 179M231 179L232 180L231 179z"/>
<path style="fill:#b4b4b4; stroke:none;" d="M119 180C123.922 182.846 133.27 181 139 181L188 181C181.806 178.401 172.686 180 166 180L119 180M232 180C238.194 182.599 247.314 181 254 181C269.354 181 285.797 182.671 301 181C294.806 178.401 285.686 180 279 180L232 180z"/>
<path style="fill:#727272; stroke:none;" d="M121 182L122 183L121 182M298 182L299 183L298 182z"/>
<path style="fill:#d2d2d2; stroke:none;" d="M123 183L124 184L123 183M296 183L297 184L296 183z"/>
<path style="fill:#9a9a9a; stroke:none;" d="M124 184L125 185L124 184M295 184L296 185L295 184z"/>
<path style="fill:#5f5f5f; stroke:none;" d="M125 185L126 186L125 185M294 185L295 186L294 185z"/>
<path style="fill:#c2c2c2; stroke:none;" d="M127 186L128 187L127 186M292 186L293 187L292 186z"/>
<path style="fill:#868686; stroke:none;" d="M128 187L129 188L128 187M291 187L292 188L291 187z"/>
<path style="fill:#4e4e4e; stroke:none;" d="M129 188L130 189L129 188M290 188L291 189L290 188z"/>
<path style="fill:#aeaeae; stroke:none;" d="M131 189L132 190L131 189M288 189L289 190L288 189z"/>
<path style="fill:#717171; stroke:none;" d="M132 190L133 191L132 190M287 190L288 191L287 190z"/>
<path style="fill:#d1d1d1; stroke:none;" d="M134 191L135 192L134 191M285 191L286 192L285 191z"/>
<path style="fill:#999999; stroke:none;" d="M135 192L136 193L135 192M284 192L285 193L284 192z"/>
<path style="fill:#5d5d5d; stroke:none;" d="M136 193L137 194L136 193M283 193L284 194L283 193z"/>
<path style="fill:#c0c0c0; stroke:none;" d="M138 194L139 195L138 194M281 194L282 195L281 194z"/>
<path style="fill:#858585; stroke:none;" d="M139 195L140 196L139 195M280 195L281 196L280 195z"/>
<path style="fill:#4d4d4d; stroke:none;" d="M140 196L141 197L140 196M279 196L280 197L279 196z"/>
<path style="fill:#adadad; stroke:none;" d="M142 197L143 198L142 197M277 197L278 198L277 197z"/>
<path style="fill:#6f6f6f; stroke:none;" d="M143 198L144 199L143 198M276 198L277 199L276 198z"/>
<path style="fill:#d0d0d0; stroke:none;" d="M145 199L146 200L145 199M274 199L275 200L274 199z"/>
<path style="fill:#989898; stroke:none;" d="M146 200L147 201L146 200M273 200L274 201L273 200z"/>
<path style="fill:#5b5b5b; stroke:none;" d="M147 201L148 202L147 201M272 201L273 202L272 201z"/>
<path style="fill:#bfbfbf; stroke:none;" d="M149 202L150 203L149 202M270 202L271 203L270 202z"/>
<path style="fill:#828282; stroke:none;" d="M150 203L151 204L150 203M269 203L270 204L269 203z"/>
<path style="fill:#4c4c4c; stroke:none;" d="M151 204L152 205L151 204M268 204L269 205L268 204z"/>
<path style="fill:#aaaaaa; stroke:none;" d="M153 205L154 206L153 205M266 205L267 206L266 205z"/>
<path style="fill:#6d6d6d; stroke:none;" d="M154 206L155 207L154 206M265 206L266 207L265 206z"/>
<path style="fill:#cfcfcf; stroke:none;" d="M156 207L157 208L156 207M263 207L264 208L263 207z"/>
<path style="fill:#959595; stroke:none;" d="M157 208L158 209L157 208M262 208L263 209L262 208z"/>
<path style="fill:#5a5a5a; stroke:none;" d="M158 209L159 210L158 209M261 209L262 210L261 209z"/>
<path style="fill:#bdbdbd; stroke:none;" d="M160 210L161 211L160 210M259 210L260 211L259 210z"/>
<path style="fill:#c0c0c0; stroke:none;" d="M420 210L420 420L1200 420L1200 210L420 210z"/>
<path style="fill:#818181; stroke:none;" d="M161 211L162 212L161 211M258 211L259 212L258 211z"/>
<path style="fill:#a9a9a9; stroke:none;" d="M164 213L165 214L164 213M255 213L256 214L255 213z"/>
<path style="fill:#6c6c6c; stroke:none;" d="M165 214L166 215L165 214M254 214L255 215L254 214z"/>
<path style="fill:#cdcdcd; stroke:none;" d="M167 215L168 216L167 215M252 215L253 216L252 215z"/>
<path style="fill:#949494; stroke:none;" d="M168 216L169 217L168 216M251 216L252 217L251 216z"/>
<path style="fill:#595959; stroke:none;" d="M169 217L170 218L169 217M250 217L251 218L250 217z"/>
<path style="fill:#bbbbbb; stroke:none;" d="M171 218L172 219L171 218M248 218L249 219L248 218z"/>
<path style="fill:#808080; stroke:none;" d="M172 219L173 220L172 219M247 219L248 220L247 219z"/>
<path style="fill:#595959; stroke:none;" d="M174 222L175 223L174 222M245 222L246 223L245 222z"/>
<path style="fill:#a0a0a0; stroke:none;" d="M174 223L175 224L174 223M245 223L246 224L245 223z"/>
<path style="fill:#535353; stroke:none;" d="M173 225L174 226L173 225M246 225L247 226L246 225z"/>
<path style="fill:#9c9c9c; stroke:none;" d="M173 226L174 227L173 226M246 226L247 227L246 226z"/>
<path style="fill:#4e4e4e; stroke:none;" d="M172 228L173 229L172 228M247 228L248 229L247 228z"/>
<path style="fill:#969696; stroke:none;" d="M172 229L173 230L172 229M247 229L248 230L247 229z"/>
<path style="fill:#909090; stroke:none;" d="M171 232L172 233L171 232M248 232L249 233L248 232z"/>
<path style="fill:#8a8a8a; stroke:none;" d="M170 235L171 236L170 235M249 235L250 236L249 235z"/>
<path style="fill:#d2d2d2; stroke:none;" d="M170 236L171 237L170 236M249 236L250 237L249 236z"/>
<path style="fill:#858585; stroke:none;" d="M169 238L170 239L169 238M250 238L251 239L250 238z"/>
<path style="fill:#cdcdcd; stroke:none;" d="M169 239L170 240L169 239M250 239L251 240L250 239z"/>
<path style="fill:#808080; stroke:none;" d="M168 241L169 242L168 241M251 241L252 242L251 241z"/>
<path style="fill:#c8c8c8; stroke:none;" d="M168 242L169 243L168 242M251 242L252 243L251 242z"/>
<path style="fill:#797979; stroke:none;" d="M167 244L168 245L167 244M252 244L253 245L252 244z"/>
<path style="fill:#c3c3c3; stroke:none;" d="M167 245L168 246L167 245M252 245L253 246L252 245z"/>
<path style="fill:#757575; stroke:none;" d="M166 247L167 248L166 247z"/>
<path style="fill:#c7c7c7; stroke:none;" d="M208 247L209 248L208 247z"/>
<path style="fill:#383838; stroke:none;" d="M209.667 247.333C209.222 247.778 210.278 247.722 210.333 247.667C210.778 247.222 209.722 247.278 209.667 247.333z"/>
<path style="fill:#c7c7c7; stroke:none;" d="M211 247L212 248L211 247z"/>
<path style="fill:#757575; stroke:none;" d="M253 247L254 248L253 247z"/>
<path style="fill:#bdbdbd; stroke:none;" d="M166 248L167 249L166 248z"/>
<path style="fill:#8b8b8b; stroke:none;" d="M207 248L208 249L207 248M212 248L213 249L212 248z"/>
<path style="fill:#bdbdbd; stroke:none;" d="M253 248L254 249L253 248z"/>
<path style="fill:#535353; stroke:none;" d="M206 249L207 250L206 249M213 249L214 250L213 249z"/>
<path style="fill:#6f6f6f; stroke:none;" d="M165 250L166 251L165 250z"/>
<path style="fill:#b3b3b3; stroke:none;" d="M204 250L205 251L204 250M215 250L216 251L215 250z"/>
<path style="fill:#6f6f6f; stroke:none;" d="M254 250L255 251L254 250z"/>
<path style="fill:#b6b6b6; stroke:none;" d="M165 251L166 252L165 251z"/>
<path style="fill:#767676; stroke:none;" d="M203 251L204 252L203 251M216 251L217 252L216 251z"/>
<path style="fill:#b6b6b6; stroke:none;" d="M254 251L255 252L254 251z"/>
<path style="fill:#696969; stroke:none;" d="M164 253L165 254L164 253z"/>
<path style="fill:#9e9e9e; stroke:none;" d="M200 253L201 254L200 253M219 253L220 254L219 253z"/>
<path style="fill:#696969; stroke:none;" d="M255 253L256 254L255 253z"/>
<path style="fill:#b1b1b1; stroke:none;" d="M164 254L165 255L164 254z"/>
<path style="fill:#636363; stroke:none;" d="M199 254L200 255L199 254M220 254L221 255L220 254z"/>
<path style="fill:#b1b1b1; stroke:none;" d="M255 254L256 255L255 254z"/>
<path style="fill:#c5c5c5; stroke:none;" d="M197 255L198 256L197 255M222 255L223 256L222 255z"/>
<path style="fill:#636363; stroke:none;" d="M163 256L164 257L163 256z"/>
<path style="fill:#8a8a8a; stroke:none;" d="M196 256L197 257L196 256M223 256L224 257L223 256z"/>
<path style="fill:#636363; stroke:none;" d="M256 256L257 257L256 256z"/>
<path style="fill:#ababab; stroke:none;" d="M163 257L164 258L163 257z"/>
<path style="fill:#515151; stroke:none;" d="M195 257L196 258L195 257M224 257L225 258L224 257z"/>
<path style="fill:#ababab; stroke:none;" d="M256 257L257 258L256 257z"/>
<path style="fill:#b2b2b2; stroke:none;" d="M193 258L194 259L193 258M226 258L227 259L226 258z"/>
<path style="fill:#5d5d5d; stroke:none;" d="M162 259L163 260L162 259z"/>
<path style="fill:#767676; stroke:none;" d="M192 259L193 260L192 259M227 259L228 260L227 259z"/>
<path style="fill:#5d5d5d; stroke:none;" d="M257 259L258 260L257 259z"/>
<path style="fill:#a6a6a6; stroke:none;" d="M162 260L163 261L162 260z"/>
<path style="fill:#d4d4d4; stroke:none;" d="M190 260L191 261L190 260M229 260L230 261L229 260z"/>
<path style="fill:#a6a6a6; stroke:none;" d="M257 260L258 261L257 260z"/>
<path style="fill:#9e9e9e; stroke:none;" d="M189 261L190 262L189 261M230 261L231 262L230 261z"/>
<path style="fill:#585858; stroke:none;" d="M161 262L162 263L161 262z"/>
<path style="fill:#616161; stroke:none;" d="M188 262L189 263L188 262M231 262L232 263L231 262z"/>
<path style="fill:#585858; stroke:none;" d="M258 262L259 263L258 262z"/>
<path style="fill:#a0a0a0; stroke:none;" d="M161 263L162 264L161 263z"/>
<path style="fill:#c4c4c4; stroke:none;" d="M186 263L187 264L186 263M233 263L234 264L233 263z"/>
<path style="fill:#a0a0a0; stroke:none;" d="M258 263L259 264L258 263z"/>
<path style="fill:#898989; stroke:none;" d="M185 264L186 265L185 264M234 264L235 265L234 264z"/>
<path style="fill:#525252; stroke:none;" d="M160 265L161 266L160 265z"/>
<path style="fill:#4f4f4f; stroke:none;" d="M184 265L185 266L184 265M235 265L236 266L235 265z"/>
<path style="fill:#525252; stroke:none;" d="M259 265L260 266L259 265z"/>
<path style="fill:#9b9b9b; stroke:none;" d="M160 266L161 267L160 266z"/>
<path style="fill:#b1b1b1; stroke:none;" d="M182 266L183 267L182 266M237 266L238 267L237 266z"/>
<path style="fill:#9b9b9b; stroke:none;" d="M259 266L260 267L259 266z"/>
<path style="fill:#737373; stroke:none;" d="M181 267L182 268L181 267M238 267L239 268L238 267z"/>
<path style="fill:#4d4d4d; stroke:none;" d="M159 268L160 269L159 268z"/>
<path style="fill:#d2d2d2; stroke:none;" d="M179 268L180 269L179 268M240 268L241 269L240 268z"/>
<path style="fill:#4d4d4d; stroke:none;" d="M260 268L261 269L260 268z"/>
<path style="fill:#959595; stroke:none;" d="M159 269L160 270L159 269z"/>
<path style="fill:#9b9b9b; stroke:none;" d="M178 269L179 270L178 269M241 269L242 270L241 269z"/>
<path style="fill:#959595; stroke:none;" d="M260 269L261 270L260 269z"/>
<path style="fill:#5f5f5f; stroke:none;" d="M177 270L178 271L177 270M242 270L243 271L242 270z"/>
<path style="fill:#c3c3c3; stroke:none;" d="M175 271L176 272L175 271M244 271L245 272L244 271z"/>
<path style="fill:#8f8f8f; stroke:none;" d="M158 272L159 273L158 272z"/>
<path style="fill:#868686; stroke:none;" d="M174 272L175 273L174 272M245 272L246 273L245 272z"/>
<path style="fill:#8f8f8f; stroke:none;" d="M261 272L262 273L261 272z"/>
<path style="fill:#4e4e4e; stroke:none;" d="M173 273L174 274L173 273M246 273L247 274L246 273z"/>
<path style="fill:#aeaeae; stroke:none;" d="M171 274L172 275L171 274M248 274L249 275L248 274z"/>
<path style="fill:#8a8a8a; stroke:none;" d="M157 275L158 276L157 275z"/>
<path style="fill:#717171; stroke:none;" d="M170 275L171 276L170 275M249 275L250 276L249 275z"/>
<path style="fill:#8a8a8a; stroke:none;" d="M262 275L263 276L262 275z"/>
<path style="fill:#d1d1d1; stroke:none;" d="M157 276L158 277L157 276M168 276L169 277L168 276M251 276L252 277L251 276M262 276L263 277L262 276z"/>
<path style="fill:#999999; stroke:none;" d="M167 277L168 278L167 277M252 277L253 278L252 277z"/>
<path style="fill:#848484; stroke:none;" d="M156 278L157 279L156 278z"/>
<path style="fill:#5e5e5e; stroke:none;" d="M166 278L167 279L166 278M253 278L254 279L253 278z"/>
<path style="fill:#848484; stroke:none;" d="M263 278L264 279L263 278z"/>
<path style="fill:#cdcdcd; stroke:none;" d="M156 279L157 280L156 279z"/>
<path style="fill:#c1c1c1; stroke:none;" d="M164 279L165 280L164 279M255 279L256 280L255 279z"/>
<path style="fill:#cdcdcd; stroke:none;" d="M263 279L264 280L263 279z"/>
<path style="fill:#868686; stroke:none;" d="M163 280L164 281L163 280M256 280L257 281L256 280z"/>
<path style="fill:#7f7f7f; stroke:none;" d="M155 281L156 282L155 281z"/>
<path style="fill:#4e4e4e; stroke:none;" d="M162 281L163 282L162 281M257 281L258 282L257 281z"/>
<path style="fill:#7f7f7f; stroke:none;" d="M264 281L265 282L264 281z"/>
<path style="fill:#c7c7c7; stroke:none;" d="M155 282L156 283L155 282z"/>
<path style="fill:#adadad; stroke:none;" d="M160 282L161 283L160 282M259 282L260 283L259 282z"/>
<path style="fill:#c7c7c7; stroke:none;" d="M264 282L265 283L264 282z"/>
<path style="fill:#717171; stroke:none;" d="M159 283L160 284L159 283M260 283L261 284L260 283z"/>
<path style="fill:#787878; stroke:none;" d="M154 284L155 285L154 284z"/>
<path style="fill:#d1d1d1; stroke:none;" d="M157 284L158 285L157 284M262 284L263 285L262 284z"/>
<path style="fill:#787878; stroke:none;" d="M265 284L266 285L265 284z"/>
<path style="fill:#e6e6e6; stroke:none;" d="M154.333 285.667C154.278 285.722 154.222 286.778 154.667 286.333C154.722 286.278 154.778 285.222 154.333 285.667z"/>
<path style="fill:#999999; stroke:none;" d="M156 285L157 286L156 285M263 285L264 286L263 285z"/>
<path style="fill:#e6e6e6; stroke:none;" d="M265.333 285.667C265.278 285.722 265.222 286.778 265.667 286.333C265.722 286.278 265.778 285.222 265.333 285.667z"/>
<path style="fill:#5c5c5c; stroke:none;" d="M155 286L156 287L155 286M264 286L265 287L264 286z"/>
<path style="fill:#404040; stroke:none;" d="M265.667 287.333C265.222 287.778 266.278 287.722 266.333 287.667C266.778 287.222 265.722 287.278 265.667 287.333z"/>
<path style="fill:#444444; stroke:none;" d="M71.6667 300.333C71.2222 300.778 72.2778 300.722 72.3333 300.667C72.7778 300.222 71.7222 300.278 71.6667 300.333M347.667 300.333C347.222 300.778 348.278 300.722 348.333 300.667C348.778 300.222 347.722 300.278 347.667 300.333z"/>
<path style="fill:#8c8c8c; stroke:none;" d="M71.6667 301.333C71.2221 301.778 72.2779 301.722 72.3333 301.667C72.7778 301.222 71.7222 301.278 71.6667 301.333M347.667 301.333C347.222 301.778 348.278 301.722 348.333 301.667C348.778 301.222 347.722 301.278 347.667 301.333z"/>
<path style="fill:#d5d5d5; stroke:none;" d="M71.6667 302.333C71.2222 302.778 72.2777 302.722 72.3333 302.667C72.7779 302.222 71.7221 302.278 71.6667 302.333M347.667 302.333C347.222 302.778 348.278 302.722 348.333 302.667C348.778 302.222 347.722 302.278 347.667 302.333z"/>
<path style="fill:#ffffff; stroke:none;" d="M71 303C69.3505 310.13 66.6497 317.061 64.3333 324C63.3392 326.978 62.5879 331.177 59.7222 332.972C57.0613 334.64 52.9891 334 50 334L29 334C34.9724 341.231 46.361 349.348 55 353C51.5561 363.584 47.2592 374.084 45 385C51.5507 382.231 57.2834 377.088 63 372.884C65.4636 371.073 68.7412 367.869 72 367.869C75.2588 367.869 78.5364 371.073 81 372.884C86.7166 377.088 92.4493 382.231 99 385C96.7408 374.084 92.4439 363.584 89 353C97.639 349.348 109.028 341.231 115 334L92 334C88.8238 333.993 85.0935 334.396 82.8434 331.682C76.586 324.135 78.9797 308.993 71 303M347 303C345.35 310.13 342.65 317.061 340.333 324C339.339 326.978 338.588 331.177 335.722 332.972C333.061 334.64 328.989 334 326 334L305 334C310.972 341.231 322.361 349.348 331 353C327.556 363.584 323.259 374.084 321 385C327.551 382.231 333.283 377.088 339 372.884C341.464 371.073 344.741 367.869 348 367.869C351.259 367.869 354.536 371.073 357 372.884C362.717 377.088 368.449 382.231 375 385C372.741 374.084 368.444 363.584 365 353C373.639 349.348 385.028 341.231 391 334L368 334C364.824 333.993 361.093 334.396 358.843 331.682C352.586 324.135 354.98 308.993 347 303z"/>
<path style="fill:#868686; stroke:none;" d="M70 304L71 305L70 304M73 304L74 305L73 304M346 304L347 305L346 304M349 304L350 305L349 304z"/>
<path style="fill:#d0d0d0; stroke:none;" d="M70 305L71 306L70 305M73 305L74 306L73 305M346 305L347 306L346 305M349 305L350 306L349 305z"/>
<path style="fill:#828282; stroke:none;" d="M69 307L70 308L69 307M74 307L75 308L74 307M345 307L346 308L345 307M350 307L351 308L350 307z"/>
<path style="fill:#cacaca; stroke:none;" d="M69 308L70 309L69 308M74 308L75 309L74 308M345 308L346 309L345 308M350 308L351 309L350 308z"/>
<path style="fill:#7c7c7c; stroke:none;" d="M68 310L69 311L68 310M75 310L76 311L75 310M344 310L345 311L344 310M351 310L352 311L351 310z"/>
<path style="fill:#c5c5c5; stroke:none;" d="M68 311L69 312L68 311M75 311L76 312L75 311M344 311L345 312L344 311M351 311L352 312L351 311z"/>
<path style="fill:#767676; stroke:none;" d="M67 313L68 314L67 313M76 313L77 314L76 313M343 313L344 314L343 313M352 313L353 314L352 313z"/>
<path style="fill:#bfbfbf; stroke:none;" d="M67 314L68 315L67 314M76 314L77 315L76 314M343 314L344 315L343 314M352 314L353 315L352 314z"/>
<path style="fill:#717171; stroke:none;" d="M66 316L67 317L66 316M77 316L78 317L77 316M342 316L343 317L342 316M353 316L354 317L353 316z"/>
<path style="fill:#b9b9b9; stroke:none;" d="M66 317L67 318L66 317M77 317L78 318L77 317M342 317L343 318L342 317M353 317L354 318L353 317z"/>
<path style="fill:#6c6c6c; stroke:none;" d="M65 319L66 320L65 319M78 319L79 320L78 319M341 319L342 320L341 319M354 319L355 320L354 319z"/>
<path style="fill:#b3b3b3; stroke:none;" d="M65 320L66 321L65 320M78 320L79 321L78 320M341 320L342 321L341 320M354 320L355 321L354 320z"/>
<path style="fill:#656565; stroke:none;" d="M64 322L65 323L64 322M79 322L80 323L79 322M340 322L341 323L340 322M355 322L356 323L355 322z"/>
<path style="fill:#aeaeae; stroke:none;" d="M64 323L65 324L64 323M79 323L80 324L79 323M340 323L341 324L340 323M355 323L356 324L355 323z"/>
<path style="fill:#5f5f5f; stroke:none;" d="M63 325L64 326L63 325M80 325L81 326L80 325M339 325L340 326L339 325M356 325L357 326L356 325z"/>
<path style="fill:#a9a9a9; stroke:none;" d="M63 326L64 327L63 326M80 326L81 327L80 326M339 326L340 327L339 326M356 326L357 327L356 326z"/>
<path style="fill:#5a5a5a; stroke:none;" d="M62 328L63 329L62 328M81 328L82 329L81 328M338 328L339 329L338 328M357 328L358 329L357 328z"/>
<path style="fill:#a2a2a2; stroke:none;" d="M62 329L63 330L62 329M81 329L82 330L81 329M338 329L339 330L338 329M357 329L358 330L357 329z"/>
<path style="fill:#555555; stroke:none;" d="M61 331L62 332L61 331M82 331L83 332L82 331M337 331L338 332L337 331M358 331L359 332L358 331z"/>
<path style="fill:#9d9d9d; stroke:none;" d="M61 332L62 333L61 332M82 332L83 333L82 332M337 332L338 333L337 332M358 332L359 333L358 332z"/>
<path style="fill:#d2d2d2; stroke:none;" d="M27 333C30.2469 334.877 34.271 334.006 38 334L61 334C57.3013 332.448 52.9828 333 49 333L27 333M83 333C86.9586 334.661 91.7396 334 96 334C102.896 334 110.185 334.749 117 334C113.301 332.448 108.983 333 105 333L83 333M303 333C306.247 334.877 310.271 334.006 314 334L337 334C333.301 332.448 328.983 333 325 333L303 333M359 333C362.959 334.661 367.74 334 372 334C378.896 334 386.185 334.749 393 334C389.301 332.448 384.983 333 381 333L359 333z"/>
<path style="fill:#868686; stroke:none;" d="M29 335L30 336L29 335M114 335L115 336L114 335M305 335L306 336L305 335M390 335L391 336L390 335z"/>
<path style="fill:#4e4e4e; stroke:none;" d="M30 336L31 337L30 336M113 336L114 337L113 336M306 336L307 337L306 336M389 336L390 337L389 336z"/>
<path style="fill:#aeaeae; stroke:none;" d="M32 337L33 338L32 337M111 337L112 338L111 337M308 337L309 338L308 337M387 337L388 338L387 337z"/>
<path style="fill:#717171; stroke:none;" d="M33 338L34 339L33 338M110 338L111 339L110 338M309 338L310 339L309 338M386 338L387 339L386 338z"/>
<path style="fill:#d1d1d1; stroke:none;" d="M35 339L36 340L35 339M108 339L109 340L108 339M311 339L312 340L311 339M384 339L385 340L384 339z"/>
<path style="fill:#999999; stroke:none;" d="M36 340L37 341L36 340M107 340L108 341L107 340M312 340L313 341L312 340M383 340L384 341L383 340z"/>
<path style="fill:#5d5d5d; stroke:none;" d="M37 341L38 342L37 341M106 341L107 342L106 341M313 341L314 342L313 341M382 341L383 342L382 341z"/>
<path style="fill:#c0c0c0; stroke:none;" d="M39 342L40 343L39 342M104 342L105 343L104 342M315 342L316 343L315 342M380 342L381 343L380 342z"/>
<path style="fill:#858585; stroke:none;" d="M40 343L41 344L40 343M103 343L104 344L103 343M316 343L317 344L316 343M379 343L380 344L379 343z"/>
<path style="fill:#4d4d4d; stroke:none;" d="M41 344L42 345L41 344M102 344L103 345L102 344M317 344L318 345L317 344M378 344L379 345L378 344z"/>
<path style="fill:#acacac; stroke:none;" d="M43 345L44 346L43 345M100 345L101 346L100 345M319 345L320 346L319 345M376 345L377 346L376 345z"/>
<path style="fill:#6f6f6f; stroke:none;" d="M44 346L45 347L44 346M99 346L100 347L99 346M320 346L321 347L320 346M375 346L376 347L375 346z"/>
<path style="fill:#d0d0d0; stroke:none;" d="M46 347L47 348L46 347M97 347L98 348L97 347M322 347L323 348L322 347M373 347L374 348L373 347z"/>
<path style="fill:#979797; stroke:none;" d="M47 348L48 349L47 348M96 348L97 349L96 348M323 348L324 349L323 348M372 348L373 349L372 348z"/>
<path style="fill:#5b5b5b; stroke:none;" d="M48 349L49 350L48 349M95 349L96 350L95 349M324 349L325 350L324 349M371 349L372 350L371 349z"/>
<path style="fill:#bebebe; stroke:none;" d="M50 350L51 351L50 350M93 350L94 351L93 350M326 350L327 351L326 350M369 350L370 351L369 350z"/>
<path style="fill:#828282; stroke:none;" d="M51 351L52 352L51 351M92 351L93 352L92 351M327 351L328 352L327 351M368 351L369 352L368 351z"/>
<path style="fill:#4b4b4b; stroke:none;" d="M52 352L53 353L52 352M91 352L92 353L91 352M328 352L329 353L328 352M367 352L368 353L367 352z"/>
<path style="fill:#bebebe; stroke:none;" d="M54.3333 353.667C54.2778 353.722 54.2222 354.778 54.6667 354.333C54.7222 354.278 54.7778 353.222 54.3333 353.667M89.3333 353.667C89.2777 353.722 89.2223 354.778 89.6667 354.333C89.7221 354.278 89.7778 353.222 89.3333 353.667M330.333 353.667C330.278 353.722 330.222 354.778 330.667 354.333C330.722 354.278 330.778 353.222 330.333 353.667M365.333 353.667C365.278 353.722 365.222 354.778 365.667 354.333C365.722 354.278 365.778 353.222 365.333 353.667z"/>
<path style="fill:#717171; stroke:none;" d="M53 356L54 357L53 356M90 356L91 357L90 356M329 356L330 357L329 356M366 356L367 357L366 356z"/>
<path style="fill:#b8b8b8; stroke:none;" d="M53 357L54 358L53 357M90 357L91 358L90 357M329 357L330 358L329 357M366 357L367 358L366 357z"/>
<path style="fill:#6b6b6b; stroke:none;" d="M52 359L53 360L52 359M91 359L92 360L91 359M328 359L329 360L328 359M367 359L368 360L367 359z"/>
<path style="fill:#b3b3b3; stroke:none;" d="M52 360L53 361L52 360M91 360L92 361L91 360M328 360L329 361L328 360M367 360L368 361L367 360z"/>
<path style="fill:#656565; stroke:none;" d="M51 362L52 363L51 362M92 362L93 363L92 362M327 362L328 363L327 362M368 362L369 363L368 362z"/>
<path style="fill:#aeaeae; stroke:none;" d="M51 363L52 364L51 363M92 363L93 364L92 363M327 363L328 364L327 363M368 363L369 364L368 363z"/>
<path style="fill:#5f5f5f; stroke:none;" d="M50 365L51 366L50 365M93 365L94 366L93 365M326 365L327 366L326 365M369 365L370 366L369 365z"/>
<path style="fill:#a8a8a8; stroke:none;" d="M50 366L51 367L50 366z"/>
<path style="fill:#bbbbbb; stroke:none;" d="M71.6667 366.333C71.2223 366.778 72.2778 366.722 72.3333 366.667C72.7779 366.222 71.7222 366.278 71.6667 366.333z"/>
<path style="fill:#a8a8a8; stroke:none;" d="M93 366L94 367L93 366M326 366L327 367L326 366z"/>
<path style="fill:#bbbbbb; stroke:none;" d="M347.667 366.333C347.222 366.778 348.278 366.722 348.333 366.667C348.778 366.222 347.722 366.278 347.667 366.333z"/>
<path style="fill:#a8a8a8; stroke:none;" d="M369 366L370 367L369 366z"/>
<path style="fill:#808080; stroke:none;" d="M70 367L71 368L70 367M73 367L74 368L73 367M346 367L347 368L346 367M349 367L350 368L349 367z"/>
<path style="fill:#5a5a5a; stroke:none;" d="M49 368L50 369L49 368M94 368L95 369L94 368M325 368L326 369L325 368M370 368L371 369L370 368z"/>
<path style="fill:#a1a1a1; stroke:none;" d="M49 369L50 370L49 369z"/>
<path style="fill:#a8a8a8; stroke:none;" d="M67 369L68 370L67 369M76 369L77 370L76 369z"/>
<path style="fill:#a1a1a1; stroke:none;" d="M94 369L95 370L94 369M325 369L326 370L325 369z"/>
<path style="fill:#a8a8a8; stroke:none;" d="M343 369L344 370L343 369M352 369L353 370L352 369z"/>
<path style="fill:#a1a1a1; stroke:none;" d="M370 369L371 370L370 369z"/>
<path style="fill:#6a6a6a; stroke:none;" d="M66 370L67 371L66 370M77 370L78 371L77 370M342 370L343 371L342 370M353 370L354 371L353 370z"/>
<path style="fill:#545454; stroke:none;" d="M48 371L49 372L48 371z"/>
<path style="fill:#cbcbcb; stroke:none;" d="M64 371L65 372L64 371M79 371L80 372L79 371z"/>
<path style="fill:#545454; stroke:none;" d="M95 371L96 372L95 371M324 371L325 372L324 371z"/>
<path style="fill:#cbcbcb; stroke:none;" d="M340 371L341 372L340 371M355 371L356 372L355 371z"/>
<path style="fill:#545454; stroke:none;" d="M371 371L372 372L371 371z"/>
<path style="fill:#9c9c9c; stroke:none;" d="M48 372L49 373L48 372z"/>
<path style="fill:#939393; stroke:none;" d="M63 372L64 373L63 372M80 372L81 373L80 372z"/>
<path style="fill:#9c9c9c; stroke:none;" d="M95 372L96 373L95 372M324 372L325 373L324 372z"/>
<path style="fill:#939393; stroke:none;" d="M339 372L340 373L339 372M356 372L357 373L356 372z"/>
<path style="fill:#9c9c9c; stroke:none;" d="M371 372L372 373L371 372z"/>
<path style="fill:#575757; stroke:none;" d="M62 373L63 374L62 373M81 373L82 374L81 373M338 373L339 374L338 373M357 373L358 374L357 373z"/>
<path style="fill:#4e4e4e; stroke:none;" d="M47 374L48 375L47 374z"/>
<path style="fill:#bababa; stroke:none;" d="M60 374L61 375L60 374M83 374L84 375L83 374z"/>
<path style="fill:#4e4e4e; stroke:none;" d="M96 374L97 375L96 374M323 374L324 375L323 374z"/>
<path style="fill:#bababa; stroke:none;" d="M336 374L337 375L336 374M359 374L360 375L359 374z"/>
<path style="fill:#4e4e4e; stroke:none;" d="M372 374L373 375L372 374z"/>
<path style="fill:#979797; stroke:none;" d="M47 375L48 376L47 375z"/>
<path style="fill:#7d7d7d; stroke:none;" d="M59 375L60 376L59 375M84 375L85 376L84 375z"/>
<path style="fill:#979797; stroke:none;" d="M96 375L97 376L96 375M323 375L324 376L323 375z"/>
<path style="fill:#7d7d7d; stroke:none;" d="M335 375L336 376L335 375M360 375L361 376L360 375z"/>
<path style="fill:#979797; stroke:none;" d="M372 375L373 376L372 375z"/>
<path style="fill:#a4a4a4; stroke:none;" d="M56 377L57 378L56 377M87 377L88 378L87 377M332 377L333 378L332 377M363 377L364 378L363 377z"/>
<path style="fill:#919191; stroke:none;" d="M46 378L47 379L46 378z"/>
<path style="fill:#686868; stroke:none;" d="M55 378L56 379L55 378M88 378L89 379L88 378z"/>
<path style="fill:#919191; stroke:none;" d="M97 378L98 379L97 378M322 378L323 379L322 378z"/>
<path style="fill:#686868; stroke:none;" d="M331 378L332 379L331 378M364 378L365 379L364 378z"/>
<path style="fill:#919191; stroke:none;" d="M373 378L374 379L373 378z"/>
<path style="fill:#cacaca; stroke:none;" d="M53 379L54 380L53 379M90 379L91 380L90 379M329 379L330 380L329 379M366 379L367 380L366 379z"/>
<path style="fill:#909090; stroke:none;" d="M52 380L53 381L52 380M91 380L92 381L91 380M328 380L329 381L328 380M367 380L368 381L367 380z"/>
<path style="fill:#8b8b8b; stroke:none;" d="M45 381L46 382L45 381z"/>
<path style="fill:#555555; stroke:none;" d="M51 381L52 382L51 381M92 381L93 382L92 381z"/>
<path style="fill:#8b8b8b; stroke:none;" d="M98 381L99 382L98 381M321 381L322 382L321 381z"/>
<path style="fill:#555555; stroke:none;" d="M327 381L328 382L327 381M368 381L369 382L368 381z"/>
<path style="fill:#8b8b8b; stroke:none;" d="M374 381L375 382L374 381z"/>
<path style="fill:#d4d4d4; stroke:none;" d="M45 382L46 383L45 382z"/>
<path style="fill:#b7b7b7; stroke:none;" d="M49 382L50 383L49 382M94 382L95 383L94 382z"/>
<path style="fill:#d4d4d4; stroke:none;" d="M98 382L99 383L98 382M321 382L322 383L321 382z"/>
<path style="fill:#b7b7b7; stroke:none;" d="M325 382L326 383L325 382M370 382L371 383L370 382z"/>
<path style="fill:#d4d4d4; stroke:none;" d="M374 382L375 383L374 382z"/>
<path style="fill:#7b7b7b; stroke:none;" d="M48 383L49 384L48 383M95 383L96 384L95 383M324 383L325 384L324 383M371 383L372 384L371 383z"/>
<path style="fill:#868686; stroke:none;" d="M44 384L45 385L44 384M99 384L100 385L99 384M320 384L321 385L320 384M375 384L376 385L375 384z"/>
<path style="fill:#cfcfcf; stroke:none;" d="M44 385L45 386L44 385z"/>
<path style="fill:#a3a3a3; stroke:none;" d="M45 385L46 386L45 385M98 385L99 386L98 385z"/>
<path style="fill:#cfcfcf; stroke:none;" d="M99 385L100 386L99 385M320 385L321 386L320 385z"/>
<path style="fill:#a3a3a3; stroke:none;" d="M321 385L322 386L321 385M374 385L375 386L374 385z"/>
<path style="fill:#cfcfcf; stroke:none;" d="M375 385L376 386L375 385z"/>
<path style="fill:#656565; stroke:none;" d="M44 386L45 387L44 386M99 386L100 387L99 386M320 386L321 387L320 386M375 386L376 387L375 386z"/>
<path style="fill:#6e6e6e; stroke:none;" d="M0 420L0 630L1200 630L1200 420L0 420z"/>
<path style="fill:#c0c0c0; stroke:none;" d="M0 630L0 840L1200 840L1200 630L0 630z"/>
</svg>
